<?xml version="1.0" standalone="no"?>
<!DOCTYPE svg PUBLIC "-//W3C//DTD SVG 20010904//EN"
 "http://www.w3.org/TR/2001/REC-SVG-20010904/DTD/svg10.dtd">
<svg version="1.0" xmlns="http://www.w3.org/2000/svg"
 width="596.000000pt" height="574.000000pt" viewBox="0 0 596.000000 574.000000"
 preserveAspectRatio="xMidYMid meet">
<metadata>
Created by potrace 1.15, written by Peter Selinger 2001-2017
</metadata>
<g transform="translate(0.000000,574.000000) scale(0.100000,-0.100000)"
fill="#000000" stroke="none">
<path d="M2423 5193 c-12 -2 -27 -11 -33 -19 -8 -8 -31 -14 -59 -14 -66 0 -85
-18 -111 -101 -15 -50 -32 -83 -60 -113 -36 -39 -46 -44 -112 -55 -47 -8 -74
-8 -76 -2 -2 6 -20 3 -45 -6 -23 -8 -81 -23 -129 -33 -70 -13 -86 -14 -77 -3
22 25 -56 16 -88 -11 -18 -15 -61 -32 -112 -44 l-83 -20 34 36 c22 23 27 33
15 29 -10 -4 -27 -7 -37 -7 -11 0 -41 -20 -68 -43 -37 -33 -65 -48 -114 -60
-36 -9 -74 -20 -84 -24 -12 -4 -6 8 19 36 21 24 36 45 34 48 -10 9 -123 -56
-152 -87 -31 -33 -71 -54 -183 -95 l-64 -23 21 22 c12 12 21 25 21 29 0 14
-104 -39 -143 -73 -23 -20 -59 -43 -80 -51 -57 -20 -75 -45 -83 -118 -6 -52
-4 -63 7 -59 9 3 20 -11 31 -41 17 -43 17 -46 -1 -66 -22 -23 -36 -80 -23 -89
5 -3 19 8 31 24 12 17 25 30 29 30 4 0 15 -21 24 -47 17 -46 16 -48 -2 -68
-17 -19 -18 -24 -6 -40 12 -16 16 -17 30 -6 13 11 17 9 27 -15 7 -16 13 -47
14 -69 3 -61 4 -65 19 -65 8 0 21 -19 29 -43 12 -37 12 -45 0 -64 -9 -13 -12
-31 -8 -43 6 -20 8 -20 25 -5 17 15 19 14 35 -35 17 -51 17 -52 -5 -75 -18
-19 -20 -27 -10 -45 11 -20 13 -21 30 -5 20 18 22 16 39 -37 10 -31 10 -41 -2
-58 -13 -19 -12 -70 1 -70 3 0 14 7 24 17 15 13 23 14 43 5 34 -16 153 -3 185
19 29 21 235 73 250 64 6 -3 22 3 36 14 15 12 35 21 46 21 19 0 19 -27 17
-1406 l-3 -1407 23 -18 c16 -13 40 -19 75 -20 279 -4 2839 1 2855 6 12 3 26
16 32 27 8 14 11 386 11 1284 l-1 1265 107 104 c111 109 119 114 180 92 l33
-12 -25 -24 c-32 -30 -32 -37 -4 -45 17 -4 31 3 54 25 34 33 29 33 123 3 10
-3 3 -16 -24 -44 l-39 -40 34 0 c29 0 48 14 148 113 105 102 151 166 152 207
0 8 -29 -15 -65 -50 -36 -35 -65 -60 -65 -55 0 6 14 51 30 100 28 83 36 96
104 165 45 46 79 91 89 118 8 23 12 42 9 42 -4 0 -34 -27 -68 -61 l-62 -61 35
99 c32 92 38 103 109 173 53 54 80 90 94 128 11 29 17 52 13 52 -4 0 -36 -28
-71 -62 l-63 -63 25 60 c14 33 36 88 49 123 l25 62 -29 40 c-16 22 -34 40 -41
40 -6 0 -20 7 -29 16 -10 9 -29 18 -43 19 -41 5 -96 28 -96 42 0 17 -33 33
-50 23 -19 -9 -119 23 -102 34 27 16 11 29 -30 23 -27 -4 -59 1 -92 12 -28 10
-85 26 -126 36 -41 10 -124 32 -185 50 -60 18 -128 36 -150 39 -22 4 -50 14
-63 22 -13 9 -33 14 -45 13 -33 -4 -127 12 -127 21 0 4 -36 10 -81 13 -53 3
-85 10 -92 20 -17 20 -43 27 -55 15 -12 -12 -122 -2 -122 12 0 7 -20 15 -44
18 -11 1 -47 93 -43 107 2 5 -7 31 -20 56 -28 56 -30 57 -283 66 -96 3 -176
10 -178 14 -5 12 -69 11 -77 -1 -3 -5 -36 -10 -72 -10 -57 0 -64 2 -53 15 11
13 7 15 -23 15 -19 0 -40 -7 -47 -15 -9 -11 -32 -15 -78 -15 -51 0 -63 3 -54
12 19 19 14 28 -17 28 -15 0 -40 -9 -54 -20 -19 -15 -40 -20 -88 -20 -61 0
-62 0 -44 20 18 20 17 20 -17 20 -20 0 -46 -9 -61 -20 -19 -15 -40 -20 -88
-20 -49 0 -60 3 -51 12 25 25 15 31 -35 21z m587 -223 c0 -5 15 -10 34 -10 19
0 38 5 41 10 3 6 35 10 70 10 l64 0 7 -36 7 -36 29 36 c22 27 37 36 59 36 18
0 28 -4 24 -10 -10 -16 -203 -160 -215 -160 -15 0 -131 -59 -152 -77 -15 -13
-20 -12 -53 12 l-36 28 22 23 c24 26 20 54 -9 54 -10 0 -27 -9 -37 -20 -10
-11 -23 -20 -29 -20 -18 1 -69 47 -63 57 4 6 0 18 -7 29 -11 15 -17 16 -29 6
-11 -10 -20 -8 -43 10 -47 35 -48 36 -34 53 10 12 41 15 181 15 106 0 169 -4
169 -10z m-543 -135 c-1 -5 12 -14 29 -20 51 -17 104 -63 104 -91 0 -21 2 -23
18 -13 15 10 25 8 51 -12 17 -13 29 -29 27 -35 -3 -7 10 -18 27 -25 41 -16 97
-52 97 -61 0 -9 -209 -178 -219 -178 -4 0 -13 12 -20 26 -11 24 -9 30 15 55
l28 29 -46 0 c-41 0 -48 3 -66 33 -12 17 -20 39 -20 47 3 38 -3 52 -17 46 -20
-7 -57 65 -59 115 -1 30 -4 35 -15 26 -10 -9 -17 -7 -28 8 -26 37 -27 64 -3
90 l23 24 38 -27 c20 -15 37 -31 36 -37z m1128 43 c14 -6 25 -20 25 -31 0 -34
-96 -190 -149 -242 -44 -42 -51 -55 -51 -88 0 -40 -38 -119 -55 -114 -5 2 -10
10 -10 17 0 7 -14 18 -31 24 -48 17 -90 54 -76 68 8 8 8 17 0 32 -16 31 -16
31 -37 12 -18 -17 -21 -17 -45 0 -15 9 -24 19 -22 22 3 2 18 14 34 26 16 11
83 62 148 112 143 109 161 119 111 67 -26 -28 -35 -43 -27 -48 6 -4 15 -3 20
1 13 16 94 110 112 133 21 25 20 24 53 9z m-1472 -178 c-4 -17 0 -20 25 -20
17 0 34 5 37 10 3 6 10 10 14 10 10 0 51 -74 51 -93 0 -9 6 -20 13 -24 8 -4
24 -27 37 -51 18 -33 21 -45 12 -54 -27 -27 -5 -71 24 -47 8 6 16 10 17 8 25
-32 43 -79 35 -87 -6 -6 -1 -16 15 -29 30 -23 61 -80 62 -111 0 -19 9 -27 40
-38 22 -7 55 -14 74 -14 29 0 32 -2 21 -15 -7 -8 -9 -15 -4 -15 14 0 90 64
142 119 26 28 57 51 68 51 11 0 51 32 94 75 41 41 79 75 85 75 5 -1 23 -12 40
-25 l29 -24 -29 -31 c-16 -16 -39 -30 -51 -30 -62 0 -87 -66 -77 -210 5 -81 3
-97 -11 -109 -21 -18 -23 -86 -1 -77 12 4 15 -6 15 -59 0 -35 -4 -67 -10 -70
-5 -3 -10 -22 -10 -41 0 -23 4 -33 11 -28 11 6 8 -82 -7 -175 -5 -33 -3 -42 6
-36 12 8 9 -87 -5 -167 -5 -25 -3 -38 4 -38 6 0 11 -9 11 -20 0 -11 9 -29 21
-41 15 -15 17 -24 10 -33 -8 -9 -7 -18 3 -31 13 -18 16 -18 57 18 83 70 113
109 122 155 7 36 2 40 -25 15 -17 -15 -18 -13 -18 54 0 61 3 72 25 93 24 22
50 88 40 99 -3 2 -19 -8 -35 -24 l-30 -29 0 65 c0 57 3 69 25 89 17 16 25 34
25 57 0 37 -6 40 -32 16 -17 -15 -18 -13 -18 49 0 46 4 69 15 78 8 7 15 26 15
42 0 23 -4 29 -15 24 -12 -4 -15 6 -15 59 0 36 5 74 12 84 9 15 9 25 0 46 -7
14 -12 40 -12 56 0 17 -4 38 -10 48 -7 14 -4 23 14 40 29 27 47 20 97 -36 18
-21 36 -38 40 -38 4 0 21 -10 39 -23 21 -16 29 -29 25 -41 -7 -24 20 -48 38
-33 8 7 18 7 27 2 8 -6 33 -10 54 -10 39 0 39 0 21 -20 -24 -26 -16 -33 23
-19 27 9 52 48 52 82 0 4 14 33 31 65 97 176 136 240 167 274 19 21 32 44 29
52 -3 7 8 36 24 64 28 49 30 50 69 48 22 -2 43 0 45 4 3 5 13 7 23 5 9 -2 34
-7 55 -10 38 -6 38 -7 21 -26 -20 -23 -10 -39 14 -21 43 30 64 33 131 17 36
-9 91 -20 121 -25 70 -9 100 -19 100 -31 0 -5 17 -9 38 -9 20 0 62 -7 92 -16
30 -9 75 -20 100 -25 25 -5 65 -16 90 -23 25 -8 65 -20 90 -26 25 -7 61 -19
80 -28 19 -9 40 -16 45 -17 6 0 32 -7 58 -14 45 -13 47 -15 31 -32 -9 -11 -14
-25 -10 -35 6 -16 7 -16 19 0 18 25 76 31 121 12 20 -8 35 -20 32 -25 -3 -5 1
-15 10 -22 12 -10 20 -10 34 -1 11 6 21 8 24 4 2 -4 -11 -47 -29 -96 -24 -62
-46 -102 -73 -130 -22 -23 -44 -54 -50 -71 -5 -16 -13 -39 -17 -50 -6 -14 3
-10 29 15 l37 35 -36 -100 c-26 -72 -46 -110 -72 -137 -33 -34 -35 -40 -26
-70 7 -24 6 -45 -5 -78 -19 -58 -24 -62 -56 -54 -19 4 -24 10 -17 17 7 7 2 15
-16 24 -23 12 -29 12 -41 -1 -13 -12 -20 -12 -61 1 -25 8 -64 19 -86 24 -68
16 -124 41 -122 53 1 7 -15 11 -43 12 -109 1 -129 4 -124 18 3 9 -4 16 -22 20
-34 9 -60 -14 -74 -63 -16 -57 -13 -67 10 -46 20 18 20 17 20 -47 0 -56 -3
-68 -25 -88 -27 -25 -30 -37 -16 -59 7 -12 13 -12 24 -3 12 10 14 -153 12
-1196 -1 -1083 -3 -1212 -17 -1255 -16 -48 -16 -49 3 -31 20 18 20 17 17 -57
l-3 -74 -74 -3 c-66 -3 -73 -1 -61 13 15 18 15 18 -35 0 -22 -8 -70 -14 -107
-15 -56 0 -66 3 -62 15 8 20 -44 20 -70 0 -24 -18 -142 -21 -148 -4 -3 8 -14
8 -43 0 -22 -6 -68 -11 -102 -11 -51 0 -61 3 -57 15 8 21 -49 21 -66 0 -9 -11
-32 -15 -78 -15 -64 0 -65 0 -47 20 18 20 17 20 -22 20 -27 0 -46 -6 -58 -20
-15 -16 -31 -20 -83 -20 -64 0 -65 0 -47 20 18 20 17 20 -12 20 -17 0 -42 -9
-56 -20 -19 -15 -40 -20 -92 -20 -41 0 -64 4 -60 10 4 6 -6 10 -24 10 -16 0
-32 -4 -35 -9 -3 -5 -131 -9 -285 -9 -232 1 -278 3 -274 14 7 19 -37 18 -63
-1 -12 -9 -43 -14 -83 -15 -64 0 -64 0 -46 20 20 22 19 25 -12 34 -16 5 -31
-1 -56 -24 -31 -26 -42 -30 -96 -30 -34 0 -61 4 -61 10 0 13 -57 13 -65 0 -3
-6 -38 -10 -77 -10 -57 0 -68 2 -59 13 7 9 8 24 2 44 -5 16 -8 646 -8 1399 0
1073 -2 1374 -12 1392 -9 17 -9 27 -2 36 8 10 6 17 -7 30 -18 15 -20 15 -37
-4 -10 -11 -30 -20 -45 -20 -15 0 -49 -7 -76 -15 -62 -19 -69 -19 -54 0 10 13
9 15 -9 15 -28 0 -59 -16 -92 -46 -14 -14 -55 -33 -91 -43 -36 -11 -77 -22
-89 -26 -21 -7 -18 -2 16 36 l40 44 -35 3 c-23 3 -39 -2 -49 -15 -9 -10 -30
-31 -47 -46 l-32 -28 -16 47 c-16 47 -16 48 9 74 28 29 31 40 13 58 -9 9 -17
7 -33 -8 l-22 -21 -18 46 c-17 45 -17 47 3 68 29 32 43 63 36 81 -8 22 -13 20
-50 -15 l-32 -31 -15 47 c-13 35 -14 51 -5 64 14 23 4 51 -19 51 -26 0 -56 83
-37 102 7 7 16 31 20 53 l7 40 -30 -27 -29 -28 -17 48 c-9 26 -17 50 -17 54 0
4 17 19 38 33 46 30 219 91 203 71 -21 -24 71 2 99 29 30 28 140 63 216 69 31
3 66 11 78 20 13 8 52 22 87 31 35 9 73 19 84 22 20 6 20 5 1 -16 -14 -16 -16
-21 -5 -21 36 0 88 23 102 44 12 18 31 26 84 36 37 6 77 14 88 17 19 5 19 4
-2 -19 -30 -31 -29 -38 4 -38 18 0 41 13 68 39 38 38 71 49 172 60 6 1 9 -7 6
-19z"/>
<path d="M479 583 c-36 -38 -80 -85 -97 -106 -31 -37 -42 -77 -22 -77 6 0 56
44 111 98 80 78 100 104 97 122 -1 13 -8 25 -13 27 -6 2 -40 -27 -76 -64z"/>
</g>
</svg>
