<svg xmlns="http://www.w3.org/2000/svg" xmlns:xlink="http://www.w3.org/1999/xlink" version="1.1" width="277" height="352" style=""><rect id="backgroundrect" width="100%" height="100%" x="0" y="0" fill="none" stroke="none"/><g class="currentLayer" style=""><title>Layer 1</title><g id="svgg" class=""><path id="path0" d="M79.86600106811522,12.935999237060546 L79.86600106811522,25.872999237060547 L73.65800106811523,30.76199923706055 C70.24300106811523,33.45099923706055 66.58300106811524,36.312999237060545 65.52500106811523,37.120999237060545 C63.38800106811523,38.751999237060545 59.98000106811523,41.47899923706055 58.407001068115235,42.81699923706055 C57.84400106811523,43.29699923706055 54.21100106811524,46.11899923706055 50.33600106811524,49.08899923706055 C46.46000106811523,52.05899923706055 42.08100106811523,55.50599923706055 40.60400106811524,56.748999237060545 C39.127001068115234,57.99199923706054 36.258001068115234,60.16399923706055 34.22800106811523,61.57599923706054 L30.53700106811523,64.14299923706055 L30.36700106811523,183.74899923706056 L30.198001068115232,303.35499923706055 L15.099001068115228,303.35499923706055 L0.0000010681152318170462,303.35499923706055 L0.0000010681152318170462,327.51599923706056 L0.0000010681152318170462,351.67799923706053 L138.25500106811523,351.67799923706053 L276.51000106811523,351.67799923706053 L276.51000106811523,327.51599923706056 L276.51000106811523,303.35499923706055 L261.07400106811525,303.35499923706055 L245.63800106811522,303.35499923706055 L245.63800106811522,184.01799923706054 L245.63800106811522,64.67999923706054 L243.7920010681152,62.982999237060554 C242.77700106811523,62.04999923706055 240.45900106811524,60.25599923706055 238.64200106811523,58.99799923706054 C236.82500106811523,57.739999237060545 234.57500106811523,56.016999237060546 233.6430010681152,55.16799923706054 C232.71000106811522,54.31899923706055 228.52000106811522,50.99699923706055 224.33100106811526,47.78599923706055 C220.14200106811523,44.57399923706055 215.57400106811525,41.03999923706055 214.18100106811522,39.93299923706055 C211.80700106811526,38.04599923706055 202.52600106811525,30.85399923706055 196.18200106811526,25.982999237060547 L193.37100106811525,23.824999237060545 L193.33000106811522,11.911999237060545 L193.28900106811523,-7.629394538355427e-7 L136.57700106811524,-7.629394538355427e-7 L79.86600106811522,-7.629394538355427e-7 L79.86600106811522,12.935999237060546 M182.55000106811522,16.77799923706055 L182.55000106811522,23.489999237060545 L136.24200106811523,23.489999237060545 L89.93300106811523,23.489999237060545 L89.93300106811523,16.77799923706055 L89.93300106811523,10.066999237060546 L136.24200106811523,10.066999237060546 L182.55000106811522,10.066999237060546 L182.55000106811522,16.77799923706055 M265.77200106811523,327.51599923706056 L265.77200106811523,340.93899923706056 L138.25500106811523,340.93899923706056 L10.738001068115238,340.93899923706056 L10.738001068115238,327.51599923706056 L10.738001068115238,314.09399923706053 L138.25500106811523,314.09399923706053 L265.77200106811523,314.09399923706053 L265.77200106811523,327.51599923706056 " stroke="none" fill="#0a204f" fill-rule="evenodd"/></g></g></svg>