<svg id="svg" version="1.1" width="596" height="574" xmlns="http://www.w3.org/2000/svg" xmlns:xlink="http://www.w3.org/1999/xlink" ><g id="svgg"><path id="path0" d="M183.899 13.617 C 181.375 14.894,181.441 15.397,186.530 33.815 C 190.807 49.294,191.221 51.332,190.836 55.015 C 190.261 60.509,190.158 60.231,187.946 47.229 C 183.272 19.762,181.340 15.436,173.741 15.436 C 168.494 15.436,168.656 15.404,135.235 23.185 C 121.946 26.279,106.309 29.860,100.486 31.142 C 77.105 36.292,75.440 38.208,65.440 71.477 C 62.999 79.597,53.637 109.346,44.637 137.584 C 6.537 257.117,5.323 261.766,11.058 266.141 C 13.464 267.976,28.404 275.246,40.604 280.518 C 82.123 298.459,82.259 298.483,91.036 289.468 L 94.177 286.242 93.731 310.779 C 93.044 348.572,93.458 349.127,126.384 354.681 C 170.762 362.165,192.177 360.322,200.056 348.339 L 201.118 346.723 203.904 350.826 C 209.397 358.915,220.020 360.425,252.391 357.717 C 289.130 354.643,302.084 350.810,306.665 341.657 C 308.796 337.398,308.924 335.578,308.769 311.786 L 308.617 288.337 311.252 290.718 C 317.381 296.254,324.187 296.656,334.908 292.113 C 353.809 284.106,378.278 273.353,383.678 270.682 C 396.579 264.302,396.580 264.319,381.283 217.114 C 376.499 202.349,371.026 185.436,369.122 179.530 C 362.396 158.669,348.782 114.026,339.136 81.208 C 325.701 35.493,326.778 37.052,305.034 31.871 C 241.837 16.812,225.759 13.808,222.738 16.492 C 219.460 19.403,217.295 27.186,214.027 47.801 C 212.814 55.451,211.734 61.622,211.626 61.514 C 211.518 61.406,211.119 59.073,210.740 56.330 L 210.050 51.342 214.757 34.244 C 220.050 15.013,220.016 15.229,217.971 13.796 C 215.995 12.412,186.587 12.257,183.899 13.617 M258.307 35.876 C 270.349 38.628,286.544 42.285,294.295 44.002 C 310.722 47.640,312.024 48.104,314.234 51.103 C 316.521 54.208,315.126 49.819,338.191 126.510 C 349.626 164.530,362.800 208.171,367.468 223.490 C 379.033 261.450,379.748 257.935,358.725 266.473 C 353.926 268.422,345.508 272.075,340.019 274.590 C 322.314 282.704,322.287 282.688,316.421 260.340 C 308.988 232.022,303.356 213.115,300.696 207.550 C 295.722 197.147,295.973 194.045,295.973 265.793 C 295.973 335.146,296.143 331.998,292.197 335.703 C 288.032 339.612,274.794 342.319,248.498 344.638 C 217.400 347.382,214.655 346.141,205.674 325.283 C 201.628 315.887,201.639 315.893,198.750 321.477 C 186.380 345.387,180.958 348.119,152.685 344.690 C 124.039 341.216,113.405 339.053,110.180 336.042 C 106.350 332.465,106.529 335.774,106.663 271.176 C 106.794 207.530,106.475 201.342,103.063 201.342 C 102.213 201.342,91.753 236.957,85.241 262.021 C 80.473 280.373,78.583 282.127,68.456 277.598 C 49.607 269.168,43.133 266.323,36.913 263.736 C 28.357 260.178,26.174 258.274,26.174 254.364 C 26.174 252.660,31.756 233.166,40.554 204.145 C 48.463 178.057,61.767 133.909,70.118 106.040 C 80.128 72.634,85.920 54.361,87.114 52.410 C 89.664 48.245,91.566 47.508,109.732 43.644 C 118.591 41.760,134.192 38.267,144.401 35.881 C 168.461 30.259,170.006 30.321,171.814 36.986 C 172.362 39.003,183.471 105.455,184.256 111.409 C 185.497 120.821,197.593 189.142,198.633 192.617 C 200.010 197.219,201.585 199.981,202.378 199.188 C 202.788 198.778,223.767 76.613,228.563 46.708 C 230.373 35.418,231.369 32.514,233.760 31.552 C 235.902 30.689,234.624 30.464,258.307 35.876 M216.194 126.446 C 215.282 130.066,215.276 130.201,216.031 130.201 C 216.653 130.201,217.773 124.261,217.251 123.738 C 217.086 123.573,216.610 124.792,216.194 126.446 M196.278 234.533 C 192.116 238.696,195.072 245.638,201.007 245.638 C 205.282 245.638,207.383 243.537,207.383 239.262 C 207.383 233.327,200.441 230.371,196.278 234.533 M196.278 278.157 C 192.116 282.320,195.072 289.262,201.007 289.262 C 205.282 289.262,207.383 287.162,207.383 282.886 C 207.383 276.951,200.441 273.995,196.278 278.157 " stroke="none" fill="#0a204f" fill-rule="evenodd"></path></g></svg>