<svg xmlns="http://www.w3.org/2000/svg" xmlns:xlink="http://www.w3.org/1999/xlink" version="1.1" width="385" height="346" style=""><rect id="backgroundrect" width="100%" height="100%" x="0" y="0" fill="none" stroke="none"/><g class="currentLayer" style=""><title>Layer 1</title><g id="svgg" class=""><path id="path0" d="M175.37935049438477,0.9433034820556649 C172.85535049438477,2.220303482055664 172.92135049438477,2.7233034820556643 178.01035049438477,21.141303482055662 C182.28735049438475,36.62030348205566 182.70135049438477,38.658303482055665 182.31635049438478,42.341303482055665 C181.74135049438476,47.835303482055664 181.63835049438475,47.557303482055666 179.42635049438476,34.55530348205566 C174.75235049438476,7.0883034820556645 172.82035049438477,2.762303482055664 165.22135049438478,2.762303482055664 C159.97435049438477,2.762303482055664 160.13635049438477,2.730303482055664 126.71535049438478,10.511303482055663 C113.42635049438476,13.605303482055664 97.78935049438476,17.186303482055663 91.96635049438477,18.468303482055664 C68.58535049438477,23.618303482055666 66.92035049438476,25.534303482055662 56.92035049438476,58.80330348205567 C54.47935049438477,66.92330348205566 45.117350494384766,96.67230348205567 36.117350494384766,124.91030348205567 C-1.9826495056152345,244.44330348205568 -3.196649505615234,249.09230348205568 2.5383504943847655,253.46730348205568 C4.944350494384766,255.30230348205566 19.884350494384766,262.57230348205564 32.084350494384765,267.84430348205564 C73.60335049438477,285.78530348205567 73.73935049438477,285.80930348205567 82.51635049438477,276.7943034820557 L85.65735049438477,273.5683034820557 L85.21135049438476,298.10530348205566 C84.52435049438476,335.89830348205567 84.93835049438476,336.4533034820557 117.86435049438477,342.00730348205565 C162.24235049438477,349.4913034820557 183.65735049438476,347.64830348205567 191.53635049438478,335.66530348205566 L192.59835049438476,334.0493034820557 L195.38435049438476,338.1523034820557 C200.87735049438476,346.2413034820557 211.50035049438478,347.7513034820557 243.87135049438476,345.04330348205565 C280.61035049438476,341.96930348205564 293.56435049438477,338.13630348205567 298.1453504943848,328.98330348205565 C300.27635049438476,324.7243034820557 300.40435049438474,322.90430348205564 300.24935049438477,299.11230348205567 L300.0973504943848,275.66330348205565 L302.7323504943848,278.0443034820557 C308.86135049438474,283.5803034820557 315.6673504943848,283.98230348205567 326.3883504943848,279.43930348205566 C345.2893504943848,271.43230348205566 369.7583504943848,260.6793034820557 375.15835049438476,258.0083034820557 C388.0593504943848,251.62830348205568 388.06035049438475,251.64530348205568 372.7633504943848,204.44030348205567 C367.9793504943848,189.67530348205565 362.5063504943848,172.76230348205567 360.6023504943848,166.85630348205567 C353.8763504943848,145.99530348205568 340.26235049438475,101.35230348205566 330.6163504943848,68.53430348205566 C317.1813504943848,22.819303482055666 318.2583504943848,24.378303482055664 296.51435049438476,19.197303482055663 C233.31735049438475,4.138303482055665 217.23935049438475,1.134303482055664 214.21835049438477,3.818303482055665 C210.94035049438477,6.729303482055663 208.77535049438475,14.512303482055664 205.50735049438475,35.127303482055666 C204.29435049438476,42.777303482055665 203.21435049438477,48.948303482055664 203.10635049438477,48.84030348205567 C202.99835049438477,48.73230348205566 202.59935049438477,46.399303482055664 202.22035049438477,43.65630348205566 L201.53035049438478,38.66830348205566 L206.23735049438477,21.570303482055664 C211.53035049438478,2.339303482055664 211.49635049438476,2.5553034820556633 209.45135049438477,1.1223034820556634 C207.47535049438477,-0.2616965179443351 178.06735049438475,-0.41669651794433626 175.37935049438477,0.9433034820556649 M249.78735049438478,23.20230348205566 C261.82935049438476,25.954303482055664 278.02435049438475,29.61130348205566 285.7753504943848,31.328303482055667 C302.20235049438475,34.966303482055665 303.50435049438477,35.43030348205566 305.71435049438475,38.429303482055666 C308.0013504943848,41.53430348205566 306.60635049438474,37.14530348205567 329.67135049438474,113.83630348205567 C341.10635049438474,151.85630348205567 354.2803504943848,195.49730348205566 358.9483504943848,210.81630348205567 C370.5133504943848,248.77630348205565 371.22835049438476,245.26130348205567 350.2053504943848,253.79930348205568 C345.40635049438475,255.7483034820557 336.98835049438475,259.40130348205565 331.49935049438477,261.91630348205564 C313.7943504943848,270.0303034820557 313.76735049438474,270.01430348205565 307.90135049438476,247.66630348205564 C300.46835049438477,219.34830348205566 294.83635049438476,200.44130348205567 292.1763504943848,194.87630348205568 C287.20235049438475,184.47330348205566 287.4533504943848,181.37130348205565 287.4533504943848,253.11930348205567 C287.4533504943848,322.4723034820557 287.62335049438474,319.32430348205565 283.67735049438477,323.02930348205564 C279.51235049438475,326.9383034820557 266.27435049438475,329.6453034820557 239.97835049438476,331.96430348205564 C208.88035049438477,334.70830348205567 206.13535049438477,333.4673034820557 197.15435049438477,312.6093034820557 C193.10835049438475,303.21330348205566 193.11935049438478,303.21930348205564 190.23035049438477,308.80330348205564 C177.86035049438476,332.71330348205566 172.43835049438476,335.4453034820557 144.16535049438477,332.01630348205566 C115.51935049438477,328.5423034820557 104.88535049438477,326.37930348205566 101.66035049438477,323.36830348205564 C97.83035049438476,319.79130348205564 98.00935049438476,323.10030348205566 98.14335049438476,258.50230348205565 C98.27435049438476,194.85630348205567 97.95535049438476,188.66830348205568 94.54335049438477,188.66830348205568 C93.69335049438476,188.66830348205568 83.23335049438477,224.28330348205566 76.72135049438477,249.34730348205568 C71.95335049438476,267.69930348205565 70.06335049438476,269.4533034820557 59.93635049438477,264.9243034820557 C41.087350494384765,256.49430348205567 34.61335049438477,253.64930348205564 28.393350494384762,251.06230348205565 C19.837350494384765,247.50430348205566 17.654350494384765,245.60030348205566 17.654350494384765,241.69030348205567 C17.654350494384765,239.98630348205566 23.236350494384766,220.49230348205566 32.03435049438477,191.47130348205567 C39.94335049438477,165.38330348205565 53.24735049438477,121.23530348205566 61.59835049438476,93.36630348205567 C71.60835049438477,59.960303482055664 77.40035049438477,41.68730348205566 78.59435049438477,39.73630348205566 C81.14435049438477,35.57130348205566 83.04635049438477,34.83430348205567 101.21235049438476,30.970303482055662 C110.07135049438476,29.086303482055662 125.67235049438477,25.593303482055667 135.88135049438478,23.207303482055664 C159.94135049438478,17.585303482055664 161.48635049438477,17.647303482055666 163.29435049438476,24.31230348205566 C163.84235049438476,26.329303482055664 174.95135049438477,92.78130348205566 175.73635049438477,98.73530348205567 C176.97735049438478,108.14730348205566 189.07335049438475,176.46830348205566 190.11335049438478,179.94330348205565 C191.49035049438476,184.54530348205566 193.06535049438477,187.30730348205566 193.85835049438475,186.51430348205565 C194.26835049438478,186.10430348205566 215.24735049438476,63.939303482055664 220.04335049438475,34.03430348205566 C221.85335049438476,22.744303482055663 222.84935049438477,19.840303482055667 225.24035049438476,18.878303482055664 C227.38235049438475,18.015303482055664 226.10435049438476,17.790303482055663 249.78735049438478,23.20230348205566 M207.67435049438475,113.77230348205566 C206.76235049438478,117.39230348205567 206.75635049438478,117.52730348205566 207.51135049438477,117.52730348205566 C208.13335049438476,117.52730348205566 209.25335049438476,111.58730348205566 208.73135049438477,111.06430348205566 C208.56635049438478,110.89930348205566 208.09035049438478,112.11830348205567 207.67435049438475,113.77230348205566 M187.75835049438476,221.85930348205565 C183.59635049438478,226.02230348205566 186.55235049438477,232.96430348205567 192.48735049438477,232.96430348205567 C196.76235049438478,232.96430348205567 198.86335049438478,230.86330348205567 198.86335049438478,226.58830348205566 C198.86335049438478,220.65330348205566 191.92135049438477,217.69730348205567 187.75835049438476,221.85930348205565 M187.75835049438476,265.48330348205565 C183.59635049438478,269.64630348205566 186.55235049438477,276.58830348205566 192.48735049438477,276.58830348205566 C196.76235049438478,276.58830348205566 198.86335049438478,274.48830348205564 198.86335049438478,270.2123034820557 C198.86335049438478,264.2773034820557 191.92135049438477,261.32130348205567 187.75835049438476,265.48330348205565 " stroke="none" fill="#0a204f" fill-rule="evenodd"/></g></g></svg>