<svg xmlns="http://www.w3.org/2000/svg" version="1.0" width="225.000000" height="225.000000" preserveAspectRatio="xMidYMid meet" style=""><rect id="backgroundrect" width="100%" height="100%" x="0" y="0" fill="none" stroke="none"/>
<metadata>
Created by potrace 1.15, written by Peter Selinger 2001-2017
</metadata>

<g class="currentLayer" style=""><title>Layer 1</title><g transform="translate(0,225) scale(0.10000000149011612,-0.10000000149011612) " fill="#0a204f" stroke="none" id="svg_1" class="selected" fill-opacity="1">
<path d="M1015 2240 c-129 -26 -256 -110 -332 -217 l-47 -68 -85 -1 c-306 -4 -547 -266 -528 -574 15 -244 179 -438 420 -496 l67 -17 0 -293 0 -294 80 0 80 0 0 293 c0 313 1 317 50 317 49 0 50 -4 50 -317 l0 -293 150 0 150 0 0 288 c0 267 1 290 18 305 24 22 55 21 75 -1 15 -16 17 -53 17 -305 l0 -287 150 0 150 0 0 293 c0 313 1 317 50 317 49 0 50 -4 50 -317 l0 -293 80 0 80 0 0 294 0 293 65 16 c88 22 138 46 211 100 76 56 148 154 182 250 36 99 38 250 4 349 -76 222 -272 366 -504 373 l-87 2 -43 64 c-75 110 -206 194 -342 220 -57 11 -154 10 -211 -1z m839 -429 c163 -79 256 -228 256 -412 0 -30 -6 -53 -16 -63 -39 -40 -69 -4 -78 93 -13 153 -95 262 -238 317 -88 34 -98 40 -98 68 0 58 49 57 174 -3z" id="svg_2" fill="#0a204f" fill-opacity="1"/>
<path d="M510 101 c0 -50 4 -74 16 -85 14 -14 82 -16 599 -16 517 0 585 2 599 16 12 11 16 35 16 85 l0 69 -615 0 -615 0 0 -69z" id="svg_3" fill="#0a204f" fill-opacity="1"/>
</g></g></svg>