<svg xmlns="http://www.w3.org/2000/svg" xmlns:xlink="http://www.w3.org/1999/xlink" version="1.1" width="370.3333337969252" height="213.00000516573573"><rect id="backgroundrect" width="100%" height="100%" x="0" y="0" fill="none" stroke="none" class="selected" style=""/><g class="currentLayer" style=""><title>Layer 1</title><g id="svgg" class="selected"><path id="path0" d="M216.31103038787842,0.14427172088623053 C196.7260303878784,0.34827172088623115 173.86503038787842,0.6282717208862305 158.89403038787842,0.8472717208862299 C151.37803038787843,0.9582717208862306 144.58003038787842,1.0222717208862306 143.78903038787843,0.9902717208862306 C139.90203038787843,0.8332717208862306 136.5470303878784,2.1442717208862305 134.72303038787842,4.534271720886231 C132.66503038787843,7.229271720886231 132.43203038787843,9.83327172088623 133.4580303878784,18.622271720886232 C133.74203038787843,21.051271720886227 133.9750303878784,23.61327172088623 133.9760303878784,24.316271720886228 C133.97703038787841,25.01927172088623 134.05003038787842,25.619271720886232 134.13803038787842,25.649271720886233 C134.35903038787842,25.72627172088623 135.5410303878784,43.90727172088623 135.8510303878784,51.98527172088623 C135.9040303878784,53.37727172088623 136.00903038787843,53.61927172088623 136.44403038787843,53.35027172088623 C136.6000303878784,53.25327172088623 139.16503038787843,51.79927172088623 142.14403038787842,50.11927172088623 C145.1240303878784,48.43927172088623 148.34803038787842,46.61927172088623 149.31103038787842,46.07527172088623 C150.2730303878784,45.53227172088623 152.0360303878784,44.54127172088623 153.22803038787842,43.87327172088623 C154.41903038787842,43.20627172088623 156.18203038787843,42.21427172088623 157.14403038787842,41.670271720886234 C160.29903038787842,39.88627172088623 162.97703038787841,38.37527172088623 168.89403038787842,35.039271720886234 C176.46503038787841,30.77227172088623 181.1550303878784,28.127271720886228 183.22803038787842,26.95527172088623 C184.14403038787842,26.436271720886232 185.6780303878784,25.572271720886228 186.63503038787843,25.033271720886233 C188.7620303878784,23.838271720886233 188.9820303878784,23.93727172088623 183.14403038787842,23.457271720886233 C164.11403038787842,21.89427172088623 150.5830303878784,19.35027172088623 144.4450303878784,16.17927172088623 C138.58703038787843,13.15327172088623 136.52503038787842,8.433271720886232 140.3450303878784,6.790271720886231 C141.79003038787843,6.168271720886231 142.93603038787842,6.127271720886231 152.06103038787842,6.375271720886232 C182.7740303878784,7.211271720886231 188.97203038787842,7.31827172088623 213.14403038787842,7.435271720886231 L235.89403038787842,7.54527172088623 L236.7980303878784,7.912271720886231 C240.87603038787842,9.56527172088623 239.1130303878784,13.956271720886232 233.1720303878784,16.94327172088623 C228.92503038787842,19.07927172088623 215.52003038787842,21.841271720886233 200.39403038787842,23.698271720886233 C197.73603038787843,24.024271720886233 195.11603038787842,24.347271720886233 194.5710303878784,24.41527172088623 L193.5820303878784,24.53827172088623 L219.80503038787842,40.28827172088623 C234.22703038787841,48.95127172088623 246.08703038787843,56.06227172088623 246.1600303878784,56.091271720886226 C246.38903038787842,56.18127172088623 246.4590303878784,55.23527172088623 246.81103038787842,47.28827172088623 C247.20003038787843,38.52427172088623 247.72903038787842,27.680271720886232 248.0640303878784,21.622271720886232 C248.18803038787843,19.37627172088623 248.34203038787842,15.288271720886229 248.4080303878784,12.538271720886229 L248.52703038787843,7.538271720886229 L248.01203038787844,6.442271720886229 C247.4150303878784,5.169271720886229 246.7550303878784,4.329271720886231 245.47803038787842,3.214271720886231 C244.91803038787842,2.72527172088623 242.91503038787843,1.6022717208862307 242.0180303878784,1.2742717208862313 C240.03203038787842,0.5482717208862304 239.50903038787843,0.4212717208862298 237.56103038787842,0.19427172088623124 C235.40303038787843,-0.055728279113768764 235.5640303878784,-0.055728279113768764 216.31103038787842,0.14427172088623053 M56.56103038787842,119.97927172088623 C55.736030387878415,120.16327172088623 54.79803038787842,120.36927172088622 54.47803038787842,120.43827172088623 C53.77003038787842,120.59127172088623 50.89903038787842,121.87027172088622 50.285030387878415,122.30727172088623 C50.04203038787842,122.48027172088624 49.791030387878415,122.62227172088623 49.72803038787842,122.62227172088623 C49.480030387878415,122.62227172088623 47.873030387878416,123.93527172088622 46.666030387878415,125.12427172088624 C43.85903038787842,127.88727172088622 42.315030387878416,130.53427172088624 41.36603038787842,134.20527172088623 C40.74703038787842,136.59827172088623 40.635030387878416,141.15527172088622 41.141030387878416,143.37227172088623 C41.32903038787842,144.19727172088622 41.55103038787842,145.17227172088624 41.635030387878416,145.53827172088623 C42.46303038787842,149.17827172088624 46.61303038787842,154.45127172088624 50.160030387878415,156.37227172088623 C52.471030387878415,157.62327172088624 54.56003038787842,158.44327172088623 55.964030387878424,158.65027172088622 C56.56703038787842,158.73927172088622 57.51103038787842,158.88027172088624 58.06103038787842,158.96427172088622 C60.07403038787842,159.26827172088622 322.2200303878784,159.16227172088622 324.3640303878784,158.85527172088624 C326.93003038787845,158.48827172088622 328.8530303878784,157.81627172088622 331.5610303878784,156.34027172088622 C335.0020303878784,154.46527172088622 340.1160303878784,147.86127172088624 340.14203038787844,145.26027172088624 C340.1430303878784,145.10727172088622 340.29103038787844,144.35727172088622 340.47103038787844,143.59327172088624 C341.35803038787844,139.81627172088622 340.9190303878784,134.96827172088624 339.3660303878784,131.40027172088622 C338.7230303878784,129.92127172088624 337.04103038787844,127.12227172088623 336.79603038787843,127.12227172088623 C336.7130303878784,127.12227172088623 336.64403038787844,127.02327172088624 336.64403038787844,126.90227172088623 C336.64403038787844,126.78227172088623 336.4010303878784,126.45927172088622 336.1030303878784,126.18427172088624 C335.80503038787845,125.91027172088624 335.4480303878784,125.55827172088624 335.3110303878784,125.40127172088623 C334.5750303878784,124.56427172088624 333.7160303878784,123.78827172088623 333.5270303878784,123.78827172088623 C333.4080303878784,123.78827172088623 333.3110303878784,123.73227172088622 333.3110303878784,123.66327172088623 C333.3110303878784,123.59527172088622 332.9170303878784,123.28227172088623 332.4360303878784,122.96927172088624 C331.9550303878784,122.65627172088622 331.3740303878784,122.27427172088622 331.14403038787844,122.12127172088623 C330.5470303878784,121.72227172088623 327.8590303878784,120.58927172088622 327.15603038787845,120.44027172088624 C326.8290303878784,120.37127172088623 325.8480303878784,120.15927172088624 324.9780303878784,119.97027172088622 L323.39403038787844,119.62627172088622 L190.72803038787842,119.63627172088624 C58.626030387878416,119.64527172088623 58.05503038787842,119.64727172088624 56.56103038787842,119.97927172088623 M192.1070303878784,134.37627172088622 C194.3800303878784,135.05127172088623 196.0600303878784,137.60227172088622 195.75103038787842,139.90827172088623 C194.8690303878784,146.47627172088622 185.2800303878784,145.90627172088622 185.31903038787843,139.28827172088623 C185.34003038787841,135.70527172088623 188.61103038787843,133.33827172088624 192.1070303878784,134.37627172088622 " stroke="none" fill="#f4b519" fill-rule="evenodd"/><path id="path1" d="M215.35503038787843,7.5752717208862315 C215.60803038787842,7.613271720886232 215.98303038787842,7.6122717208862305 216.18803038787843,7.572271720886231 C216.3930303878784,7.53327172088623 216.18603038787842,7.50127172088623 215.72803038787842,7.503271720886232 C215.26903038787842,7.50427172088623 215.10203038787841,7.53627172088623 215.35503038787843,7.5752717208862315 M220.60303038787842,7.578271720886232 C221.0840303878784,7.6122717208862305 221.87103038787842,7.6122717208862305 222.35303038787842,7.578271720886232 C222.8340303878784,7.544271720886229 222.4400303878784,7.517271720886232 221.47803038787842,7.517271720886232 C220.51503038787843,7.517271720886232 220.12103038787842,7.544271720886229 220.60303038787842,7.578271720886232 M56.394030387878416,167.87027172088622 C50.83203038787842,169.10327172088623 46.21303038787842,172.37727172088623 43.45903038787842,177.03827172088623 C39.88303038787842,183.09027172088622 39.98503038787842,192.96727172088623 43.672030387878415,197.76927172088622 C43.84003038787842,197.98827172088622 43.97803038787842,198.24027172088623 43.97803038787842,198.33027172088623 C43.97803038787842,198.80927172088624 47.568030387878416,202.53827172088623 48.916030387878415,203.45927172088622 C51.54803038787842,205.25827172088623 54.825030387878414,206.53427172088624 57.47203038787842,206.79227172088622 C59.55503038787842,206.99527172088622 321.98603038787843,206.99727172088623 324.14403038787844,206.79427172088623 C329.4650303878784,206.29527172088623 335.0630303878784,202.63927172088623 338.0920303878784,197.68627172088623 C341.20903038787844,192.59027172088622 341.81503038787844,184.66327172088623 339.4730303878784,179.64527172088623 C339.2000303878784,179.06127172088623 338.9780303878784,178.51727172088624 338.9780303878784,178.43427172088624 C338.9780303878784,178.26627172088624 337.4700303878784,175.82327172088623 337.0200303878784,175.26227172088622 C336.41603038787844,174.51127172088624 335.3720303878784,173.37827172088623 334.7280303878784,172.77827172088624 C333.6280303878784,171.75227172088623 332.6930303878784,170.95527172088623 332.5910303878784,170.95527172088623 C332.5380303878784,170.95527172088623 332.1720303878784,170.74027172088623 331.7780303878784,170.47827172088623 C330.2010303878784,169.42927172088622 327.1750303878784,168.23027172088624 325.0110303878784,167.79827172088622 C323.5640303878784,167.50927172088623 57.70103038787842,167.58027172088623 56.394030387878416,167.87027172088622 M192.82503038787843,182.42727172088624 C197.8990303878784,184.89827172088624 196.12003038787842,192.62227172088623 190.47803038787842,192.62227172088623 C184.3870303878784,192.62227172088623 183.15703038787842,183.99127172088623 188.97803038787842,182.10327172088623 C189.7860303878784,181.84127172088623 192.0050303878784,182.02827172088624 192.82503038787843,182.42727172088624 M159.66803038787842,301.45727172088624 C156.1660303878784,301.94727172088625 154.06303038787843,303.18727172088626 152.99503038787842,305.39227172088624 C152.04303038787842,307.35827172088625 151.97803038787842,307.8072717208862 151.97803038787842,312.40227172088623 L151.97803038787842,316.6222717208862 L150.31103038787842,316.6222717208862 L148.64403038787842,316.6222717208862 L148.64403038787842,319.53827172088626 L148.64403038787842,322.45527172088623 L150.31103038787842,322.45527172088623 L151.97803038787842,322.45527172088623 L151.97803038787842,332.20527172088623 L151.97803038787842,341.95527172088623 L155.72803038787842,341.95527172088623 L159.47803038787842,341.95527172088623 L159.47803038787842,332.20527172088623 L159.47803038787842,322.45527172088623 L161.81103038787842,322.45527172088623 L164.14403038787842,322.45527172088623 L164.14403038787842,319.53827172088626 L164.14403038787842,316.6222717208862 L161.81103038787842,316.6222717208862 L159.47803038787842,316.6222717208862 L159.47803038787842,313.52927172088624 C159.47803038787842,309.3692717208862 159.78403038787843,308.2492717208862 161.06903038787843,307.7132717208862 C162.30603038787842,307.1962717208862 163.03303038787843,307.2252717208862 165.1070303878784,307.87727172088626 L165.48503038787842,307.9962717208862 L165.4400303878784,304.94527172088624 L165.39403038787842,301.8932717208862 L164.56103038787842,301.67827172088624 C163.43703038787842,301.38727172088625 160.96703038787842,301.2752717208862 159.66803038787842,301.45727172088624 M138.39603038787843,302.2222717208862 C135.48903038787842,303.28627172088625 134.82903038787842,307.3932717208862 137.21203038787843,309.5902717208862 C140.10903038787842,312.26027172088624 144.7800303878784,309.8672717208862 144.42603038787843,305.89427172088625 C144.37803038787843,305.35627172088624 144.25803038787842,304.8352717208862 144.15803038787843,304.73627172088624 C144.0590303878784,304.6362717208862 143.97803038787842,304.4362717208862 143.97803038787842,304.2902717208862 C143.97803038787842,302.8142717208862 140.40003038787842,301.48827172088625 138.39603038787843,302.2222717208862 M63.69803038787842,317.66327172088626 C63.77603038787842,333.13527172088624 63.72503038787842,332.52627172088626 65.19503038787842,335.7972717208862 C65.92203038787842,337.4152717208862 68.51503038787841,340.45527172088623 69.16803038787842,340.45527172088623 C69.23503038787842,340.45527172088623 69.65003038787842,340.67527172088626 70.09203038787842,340.9442717208862 C74.64303038787841,343.7152717208862 85.54103038787842,343.6462717208862 90.11003038787842,340.81727172088625 C93.22603038787842,338.8882717208862 94.91403038787841,336.39027172088623 95.84403038787842,332.33227172088624 C96.21003038787842,330.73327172088625 96.21803038787841,330.47927172088623 96.27103038787841,317.41327172088626 L96.32603038787842,304.1222717208862 L92.15203038787841,304.1222717208862 L87.97803038787842,304.1222717208862 L87.97203038787842,316.08027172088623 C87.96603038787842,330.56527172088624 87.93203038787841,330.8722717208862 86.12803038787841,333.1172717208862 C83.43103038787842,336.4732717208862 76.71303038787842,336.5212717208862 73.79503038787841,333.20527172088623 C71.89003038787841,331.0402717208862 71.82303038787842,330.43127172088623 71.81603038787841,315.33027172088623 L71.81103038787842,304.1222717208862 L67.72003038787842,304.1222717208862 L63.63003038787842,304.1222717208862 L63.69803038787842,317.66327172088626 M305.64403038787844,315.7832717208862 C297.67103038787843,316.62027172088625 294.51903038787844,325.76727172088624 300.89403038787844,329.5662717208862 C301.8140303878784,330.1142717208862 304.66803038787845,331.45527172088623 304.9150303878784,331.45527172088623 C305.0010303878784,331.45527172088623 305.6940303878784,331.71727172088623 306.4540303878784,332.03827172088626 C307.2150303878784,332.3592717208862 307.9150303878784,332.6222717208862 308.0110303878784,332.6222717208862 C308.95203038787844,332.6222717208862 310.8090303878784,334.4482717208862 310.81003038787844,335.37527172088625 C310.8140303878784,338.3792717208862 303.55503038787845,338.1742717208862 302.89903038787844,335.15227172088623 C302.73803038787844,334.40927172088624 302.5250303878784,334.3672717208862 301.55303038787844,334.8862717208862 C301.09903038787843,335.12827172088623 299.84603038787844,335.77727172088623 298.76903038787844,336.3282717208862 C296.5830303878784,337.44727172088625 296.6600303878784,337.3432717208862 297.2200303878784,338.41927172088623 C298.2170303878784,340.33427172088625 300.0510303878784,341.6452717208862 303.0610303878784,342.59227172088623 C304.3060303878784,342.98327172088625 310.00003038787844,342.97827172088626 311.4310303878784,342.58427172088625 C315.6870303878784,341.41127172088625 317.9780303878784,338.6742717208862 317.9780303878784,334.7612717208862 C317.9780303878784,331.1482717208862 315.3350303878784,328.12827172088623 311.2950303878784,327.1242717208862 C306.32003038787843,325.88727172088625 303.7280303878784,323.7712717208862 305.0560303878784,322.0302717208862 C306.5210303878784,320.1102717208862 311.9780303878784,321.09927172088624 311.9780303878784,323.2852717208862 C311.9780303878784,323.8362717208862 312.4420303878784,323.69927172088626 315.1210303878784,322.3622717208862 C317.8350303878784,321.0062717208862 317.89203038787844,320.9462717208862 317.3170303878784,320.00327172088623 C315.2640303878784,316.6362717208862 311.2710303878784,315.19227172088625 305.64403038787844,315.7832717208862 M117.22803038787842,316.02427172088625 C115.31403038787842,316.5012717208862 112.11803038787842,318.60427172088623 111.25303038787841,319.95527172088623 C111.00003038787841,320.35127172088625 110.98603038787842,320.27927172088624 110.98203038787842,318.49327172088624 L110.97803038787842,316.61527172088626 L107.26903038787842,316.6602717208862 L103.56103038787842,316.70527172088623 L103.56103038787842,329.28827172088626 L103.56103038787842,341.8722717208862 L107.33603038787842,341.91627172088624 L111.11103038787842,341.9612717208862 L111.16903038787842,334.2342717208862 L111.22803038787842,326.50727172088625 L111.87003038787842,325.2422717208862 C114.04103038787842,320.9652717208862 120.09603038787841,320.7202717208862 121.41803038787842,324.8552717208862 C121.64903038787841,325.57727172088624 121.70203038787841,326.93327172088624 121.76903038787842,333.83027172088623 L121.84903038787843,341.95527172088623 L125.62103038787842,341.95527172088623 L129.39403038787842,341.95527172088623 L129.36103038787843,332.4582717208862 C129.32503038787843,321.98127172088624 129.3030303878784,321.73627172088624 128.2550303878784,319.7342717208862 C126.61303038787841,316.5982717208862 121.64103038787843,314.92527172088626 117.22803038787842,316.02427172088625 M177.64403038787842,315.9482717208862 C164.68603038787842,318.3402717208862 162.64703038787843,336.7062717208862 174.77003038787842,341.84927172088624 C177.02103038787843,342.8042717208862 177.43803038787843,342.8722717208862 180.97803038787842,342.86327172088625 C184.45003038787843,342.85427172088623 184.28903038787843,342.8832717208862 187.14403038787842,341.77427172088625 C189.41503038787843,340.8912717208862 192.63503038787843,337.84127172088625 193.56803038787842,335.68727172088626 C194.46103038787842,333.6262717208862 194.6670303878784,332.92127172088624 194.83003038787842,331.3722717208862 C195.3630303878784,326.2952717208862 194.05703038787843,322.46627172088625 190.7200303878784,319.32427172088626 C190.0170303878784,318.66327172088626 189.38203038787842,318.1222717208862 189.30803038787843,318.1222717208862 C189.23403038787842,318.1222717208862 188.77503038787842,317.8592717208862 188.28803038787842,317.53827172088626 C187.80103038787843,317.21727172088623 187.28403038787843,316.95527172088623 187.14003038787843,316.95527172088623 C186.99603038787842,316.95527172088623 186.80603038787842,316.88727172088625 186.7190303878784,316.8042717208862 C185.93603038787842,316.05627172088623 180.0600303878784,315.50227172088626 177.64403038787842,315.9482717208862 M213.0640303878784,316.0662717208862 C212.6070303878784,316.2062717208862 212.03303038787843,316.46427172088625 211.78803038787842,316.6382717208862 C211.54303038787842,316.81227172088626 211.28803038787842,316.95527172088623 211.22103038787841,316.95527172088623 C210.66203038787842,316.95527172088623 209.03103038787842,318.9482717208862 208.15303038787843,320.70527172088623 L207.4870303878784,322.03827172088626 L207.58703038787843,319.33027172088623 L207.68703038787842,316.6222717208862 L203.9990303878784,316.6222717208862 L200.31103038787842,316.6222717208862 L200.31103038787842,329.28827172088626 L200.31103038787842,341.95527172088623 L204.06103038787842,341.95527172088623 L207.81103038787842,341.95527172088623 L207.81103038787842,335.53127172088625 C207.81103038787842,326.35127172088625 208.2200303878784,324.94027172088624 211.1970303878784,323.8432717208862 C212.0000303878784,323.54627172088624 215.61603038787842,323.56727172088625 216.48303038787842,323.87327172088624 C217.40603038787842,324.19927172088626 217.29903038787842,324.44527172088624 217.9220303878784,320.5732717208862 C218.62703038787842,316.18327172088624 218.62903038787843,316.02727172088623 217.9570303878784,315.8932717208862 C216.97203038787842,315.69527172088624 213.91903038787842,315.8042717208862 213.0640303878784,316.0662717208862 M234.54903038787842,316.03827172088626 C232.88303038787842,316.48827172088625 231.0410303878784,317.7392717208862 229.72303038787842,319.31527172088624 L229.06103038787842,320.1072717208862 L229.01403038787842,318.3642717208862 L228.96603038787842,316.6222717208862 L225.22203038787842,316.6222717208862 L221.47803038787842,316.6222717208862 L221.47803038787842,329.28827172088626 L221.47803038787842,341.95527172088623 L225.21703038787842,341.95527172088623 L228.95503038787842,341.95527172088623 L229.02503038787842,334.7472717208862 C229.09903038787843,326.9702717208862 229.19303038787842,326.0612717208862 230.1010303878784,324.3482717208862 C231.47903038787842,321.7462717208862 235.56303038787843,321.13727172088625 237.06103038787842,323.3112717208862 C237.9230303878784,324.56327172088623 238.13303038787842,327.0132717208862 238.14003038787843,335.91327172088626 L238.14403038787842,341.95527172088623 L241.88303038787842,341.95527172088623 L245.62303038787843,341.95527172088623 L245.68803038787843,334.58027172088623 C245.75803038787842,326.7592717208862 245.77703038787843,326.5542717208862 246.62603038787842,324.58427172088625 C247.55803038787843,322.4242717208862 250.1630303878784,321.39227172088624 252.53603038787844,322.24327172088624 C254.64403038787844,322.9992717208862 254.8190303878784,323.8712717208862 254.9270303878784,334.16327172088626 L255.00803038787842,341.95527172088623 L258.74303038787843,341.95527172088623 L262.4780303878784,341.95527172088623 L262.4700303878784,333.33027172088623 C262.4610303878784,322.70027172088624 262.39703038787843,321.7592717208862 261.5610303878784,319.9772717208862 C260.1280303878784,316.92327172088625 257.7530303878784,315.69727172088625 253.49103038787842,315.8142717208862 L251.3620303878784,315.8722717208862 L249.77503038787842,316.6602717208862 C248.2300303878784,317.4272717208862 246.19803038787842,319.1242717208862 245.47203038787842,320.25227172088626 C245.2310303878784,320.62827172088623 245.22103038787841,320.62027172088625 244.74103038787842,319.66927172088623 C243.13303038787842,316.48127172088624 238.72703038787841,314.91127172088625 234.54903038787842,316.03827172088626 M277.49803038787843,316.0422717208862 C272.8260303878784,317.34627172088625 268.8550303878784,321.3192717208862 268.13203038787844,325.41327172088626 C268.0470303878784,325.8952717208862 267.9030303878784,326.7202717208862 267.8120303878784,327.2472717208862 C266.92303038787844,332.39027172088623 268.9720303878784,337.97827172088626 272.7280303878784,340.6552717208862 C277.2340303878784,343.86627172088623 285.2830303878784,343.76427172088626 289.4780303878784,340.44227172088625 C291.20703038787843,339.0732717208862 293.3530303878784,336.4992717208862 292.9700303878784,336.25227172088626 C292.9290303878784,336.2252717208862 291.5680303878784,335.53127172088625 289.9480303878784,334.7082717208862 L287.0010303878784,333.2132717208862 L286.6220303878784,333.70927172088625 C285.2460303878784,335.5062717208862 284.1150303878784,336.11527172088626 281.9320303878784,336.2342717208862 C278.00003038787844,336.44927172088626 276.0690303878784,335.15227172088623 275.24803038787843,331.7472717208862 L275.1380303878784,331.28827172088626 L284.53403038787843,331.28827172088626 L293.9290303878784,331.28827172088626 L294.02203038787843,330.16327172088626 C294.4670303878784,324.78427172088624 292.47103038787844,320.22427172088624 288.5610303878784,317.68327172088624 C287.54803038787844,317.0252717208862 287.19003038787844,316.8622717208862 285.39403038787844,316.2472717208862 C284.04803038787844,315.7852717208862 278.8980303878784,315.65227172088623 277.49803038787843,316.0422717208862 M136.31103038787842,329.28827172088626 L136.31103038787842,341.95527172088623 L140.10303038787842,341.95527172088623 L143.89403038787842,341.95527172088623 L143.89403038787842,329.28827172088626 L143.89403038787842,316.6222717208862 L140.10303038787842,316.6222717208862 L136.31103038787842,316.6222717208862 L136.31103038787842,329.28827172088626 M282.8310303878784,322.23327172088625 C284.4850303878784,322.63227172088625 285.8650303878784,323.91427172088623 286.20903038787844,325.3722717208862 C286.27403038787844,325.64727172088624 286.3660303878784,326.00327172088623 286.4130303878784,326.16327172088626 C286.49503038787844,326.43727172088626 286.1600303878784,326.45527172088623 280.9890303878784,326.45527172088623 C276.69003038787844,326.45527172088623 275.4780303878784,326.40927172088624 275.4800303878784,326.2472717208862 C275.5130303878784,323.38027172088624 279.21403038787844,321.3602717208862 282.8310303878784,322.23327172088625 M183.58103038787843,323.2612717208862 C186.41803038787842,324.5112717208862 187.71603038787842,327.33027172088623 187.08703038787843,330.8792717208862 C186.02703038787843,336.86627172088623 177.75903038787843,337.98827172088625 175.0530303878784,332.5112717208862 L174.4510303878784,331.29327172088625 L174.50903038787843,329.16627172088624 C174.65003038787842,324.0212717208862 178.9510303878784,321.22127172088625 183.58103038787843,323.2612717208862 " stroke="none" fill="#64142c" fill-rule="evenodd"/><path id="path2" d="M141.53303038787843,6.526271720886232 C135.1190303878784,7.999271720886231 139.19403038787843,14.619271720886232 148.39403038787842,17.67027172088623 C155.2130303878784,19.93127172088623 167.38903038787842,22.045271720886234 178.81103038787842,22.950271720886228 C182.8390303878784,23.270271720886228 188.05503038787842,23.820271720886232 188.29403038787842,23.951271720886233 C188.4630303878784,24.04427172088623 188.32503038787843,24.194271720886228 187.79403038787842,24.499271720886227 C187.18303038787843,24.84927172088623 184.2500303878784,26.511271720886228 181.39403038787842,28.125271720886232 C181.02803038787843,28.33327172088623 179.79003038787843,29.027271720886233 178.64403038787842,29.66927172088623 C176.78703038787842,30.70927172088623 175.6010303878784,31.37627172088623 173.39403038787842,32.61927172088623 C173.02803038787843,32.82627172088623 171.60303038787842,33.63327172088623 170.22803038787842,34.41327172088623 C168.85303038787842,35.19327172088623 166.79003038787843,36.35827172088623 165.64403038787842,37.00227172088623 C164.4990303878784,37.64527172088623 162.73603038787843,38.63927172088623 161.72803038787842,39.20927172088623 C159.2010303878784,40.63927172088623 156.46103038787842,42.18227172088623 153.89403038787842,43.62027172088623 C152.7030303878784,44.28727172088623 151.24003038787842,45.11427172088623 150.64403038787842,45.45627172088623 C149.7320303878784,45.98027172088623 145.99003038787842,48.09227172088623 143.55803038787843,49.45627172088623 C143.19303038787842,49.66127172088623 141.80703038787843,50.44627172088623 140.47803038787842,51.20027172088623 C136.7670303878784,53.308271720886225 136.01003038787843,53.709271720886235 135.92103038787843,53.62027172088624 C135.8270303878784,53.52627172088623 135.55503038787842,48.96627172088623 135.3090303878784,43.37227172088623 C135.11503038787842,38.92827172088623 134.1730303878784,25.761271720886228 134.04003038787843,25.628271720886232 C133.99003038787842,25.579271720886233 127.46103038787842,25.490271720886227 119.53103038787842,25.430271720886232 C103.88503038787842,25.31227172088623 105.25603038787841,25.259271720886233 102.03503038787842,26.10827172088623 C101.74603038787842,26.18427172088623 101.07703038787842,26.481271720886234 100.54703038787842,26.767271720886228 C100.01803038787841,27.054271720886227 99.51803038787841,27.28827172088623 99.43603038787842,27.28827172088623 C99.35503038787841,27.28827172088623 98.96103038787842,27.51327172088623 98.56103038787842,27.78827172088623 C98.16103038787841,28.063271720886227 97.78303038787841,28.28827172088623 97.71903038787842,28.28827172088623 C97.58803038787842,28.28827172088623 94.36303038787842,30.60227172088623 93.47803038787842,31.331271720886228 C91.38103038787841,33.05727172088623 90.49303038787842,33.80427172088623 90.14003038787841,34.13927172088623 C89.98503038787842,34.28727172088623 89.04203038787841,35.14227172088623 88.04303038787842,36.04127172088623 C87.04503038787841,36.94027172088623 85.74003038787842,38.14227172088623 85.14403038787842,38.71227172088623 C84.54803038787841,39.28327172088623 83.31603038787841,40.45227172088623 82.40503038787841,41.31127172088623 C81.49403038787842,42.16927172088623 80.44003038787842,43.17227172088623 80.06203038787842,43.53827172088623 C79.68403038787842,43.90527172088623 78.82903038787842,44.69227172088623 78.16103038787841,45.28827172088623 C77.49303038787842,45.88427172088623 76.66903038787842,46.63427172088623 76.33103038787841,46.95527172088623 C75.99203038787842,47.27627172088623 74.66803038787842,48.51027172088623 73.38803038787842,49.69827172088623 C70.41803038787842,52.45527172088623 58.93803038787841,63.920271720886234 56.54803038787841,66.51727172088623 C55.54703038787842,67.60527172088624 54.60603038787842,68.61727172088624 54.45703038787842,68.76727172088623 C54.30803038787842,68.91627172088623 53.60603038787842,69.70627172088624 52.89903038787842,70.52127172088623 C52.19103038787842,71.33627172088623 51.48803038787842,72.13827172088624 51.33703038787842,72.30227172088622 C51.18503038787842,72.46627172088623 50.53603038787842,73.23327172088624 49.894030387878416,74.00527172088623 C49.25303038787842,74.77727172088623 48.48403038787842,75.57927172088623 48.18603038787842,75.78727172088622 C45.40403038787842,77.72727172088624 42.471030387878415,82.11627172088623 41.47203038787842,85.83227172088623 C41.294030387878415,86.49527172088624 41.04603038787842,87.41327172088623 40.922030387878415,87.87227172088623 C40.57203038787842,89.16127172088623 40.80803038787842,94.39527172088623 41.30503038787842,96.37227172088623 C43.34003038787842,104.47027172088623 49.730030387878415,110.06527172088623 58.14003038787841,111.11227172088623 C60.126030387878416,111.36027172088623 321.4960303878784,111.36027172088623 323.4820303878784,111.11227172088623 C325.3740303878784,110.87727172088623 327.9970303878784,110.18927172088623 329.2440303878784,109.60127172088623 C329.80303038787844,109.33727172088624 330.3070303878784,109.12227172088623 330.3640303878784,109.12227172088623 C330.73603038787843,109.12227172088623 333.8260303878784,106.90527172088623 334.9080303878784,105.86127172088624 C339.3350303878784,101.59027172088624 341.39703038787843,95.82227172088623 340.8230303878784,89.31627172088623 C340.53603038787844,86.06627172088623 339.33703038787843,82.46127172088623 338.03603038787844,80.94227172088623 C337.9120303878784,80.79727172088623 337.8110303878784,80.62627172088624 337.8110303878784,80.56227172088623 C337.8110303878784,80.35427172088623 335.8430303878784,77.94427172088623 334.5200303878784,76.53127172088622 C333.8090303878784,75.77327172088623 332.7780303878784,74.64427172088624 332.2280303878784,74.02427172088623 C329.73303038787844,71.20927172088624 322.57703038787844,63.97627172088623 317.5670303878784,59.20527172088623 C316.0270303878784,57.73827172088623 314.2590303878784,56.051271720886234 313.63703038787844,55.45527172088623 C313.0160303878784,54.85927172088623 311.9170303878784,53.80927172088623 311.19503038787843,53.12227172088623 C306.3860303878784,48.54427172088623 302.7290303878784,44.97327172088623 299.39403038787844,41.60227172088623 C292.30503038787845,34.43627172088623 289.82203038787844,32.10227172088623 287.4440303878784,30.372271720886232 C286.13203038787844,29.417271720886234 284.4770303878784,28.28827172088623 284.3890303878784,28.28827172088623 C284.33403038787844,28.28827172088623 284.0500303878784,28.11327172088623 283.7580303878784,27.899271720886233 C281.4440303878784,26.198271720886233 276.85803038787844,24.960271720886233 274.9390303878784,25.518271720886233 C274.1170303878784,25.75727172088623 272.4940303878784,25.78827172088623 260.9100303878784,25.78827172088623 L247.81103038787842,25.78827172088623 L247.81003038787844,26.247271720886232 C247.8090303878784,27.094271720886233 247.47703038787841,35.673271720886234 247.31303038787843,39.12227172088623 C246.91803038787845,47.40827172088623 246.4410303878784,56.210271720886226 246.38403038787843,56.26927172088622 C246.33103038787843,56.32427172088623 221.9570303878784,41.77427172088623 219.06103038787842,39.95827172088623 C218.5110303878784,39.61427172088623 216.6730303878784,38.50627172088623 214.97803038787842,37.49627172088623 C210.05603038787842,34.56727172088623 208.5420303878784,33.65927172088623 206.06103038787842,32.15127172088623 C204.77803038787843,31.371271720886227 203.33503038787842,30.50127172088623 202.8560303878784,30.219271720886233 C197.0540303878784,26.79927172088623 193.47803038787842,24.60527172088623 193.47803038787842,24.466271720886233 C193.47803038787842,24.395271720886228 194.50903038787843,24.246271720886227 195.76903038787842,24.13527172088623 C201.50303038787843,23.62927172088623 215.09203038787842,21.56827172088623 220.72803038787842,20.35027172088623 C224.40803038787843,19.55427172088623 225.63503038787843,19.26427172088623 227.90003038787842,18.654271720886232 C236.25803038787842,16.40627172088623 241.1720303878784,11.669271720886229 238.11403038787842,8.80927172088623 C236.77803038787843,7.560271720886231 238.06103038787842,7.625271720886232 213.22803038787842,7.54527172088623 C201.58603038787842,7.508271720886231 189.1360303878784,7.401271720886232 185.56103038787842,7.307271720886231 C181.98603038787843,7.214271720886231 175.31103038787842,7.057271720886231 170.72803038787842,6.959271720886232 C166.14403038787842,6.8622717208862305 159.4690303878784,6.707271720886229 155.89403038787842,6.616271720886232 C142.4290303878784,6.2742717208862295 142.6250303878784,6.275271720886231 141.53303038787843,6.526271720886232 M192.3800303878784,32.46427172088623 C195.9450303878784,33.798271720886234 197.03903038787843,38.29327172088623 194.49503038787842,41.15427172088623 C191.9580303878784,44.00727172088623 187.3340303878784,43.33027172088623 185.6240303878784,39.85527172088623 C183.50203038787842,35.54627172088623 187.86403038787842,30.774271720886233 192.3800303878784,32.46427172088623 M192.93203038787843,86.63027172088623 C197.77103038787843,89.00127172088624 196.3500303878784,96.37627172088624 190.98303038787842,96.74427172088623 C189.18103038787842,96.86827172088623 188.0950303878784,96.52427172088623 186.93203038787843,95.46127172088623 C182.28903038787843,91.21727172088623 187.2850303878784,83.86327172088623 192.93203038787843,86.63027172088623 M21.894030387878416,224.39327172088622 C18.348030387878417,224.77727172088623 16.889030387878417,224.99027172088623 15.894030387878416,225.27227172088624 C13.061030387878418,226.07327172088623 12.511030387878417,226.25727172088622 11.692030387878418,226.67627172088623 C11.213030387878419,226.92127172088624 10.749030387878417,227.12227172088623 10.659030387878417,227.12227172088623 C10.454030387878419,227.12227172088623 8.517030387878417,228.31727172088623 7.311030387878418,229.18827172088623 C0.22703038787841834,234.30427172088622 -1.3339696121215816,244.08927172088622 3.853030387878418,250.8602717208862 C4.521030387878419,251.73327172088625 6.825030387878417,253.95527172088623 7.061030387878418,253.95527172088623 C7.124030387878417,253.95527172088623 7.48103038787842,254.21727172088623 7.85603038787842,254.53827172088626 C8.23103038787842,254.85927172088623 8.604030387878417,255.1222717208862 8.685030387878417,255.1222717208862 C8.767030387878417,255.1222717208862 9.072030387878417,255.3022717208862 9.364030387878419,255.52227172088624 C10.75103038787842,256.56827172088623 17.101030387878417,259.8452717208862 19.72803038787842,260.8712717208862 C21.38503038787842,261.5182717208862 24.602030387878415,263.0852717208862 25.424030387878418,263.6462717208862 C25.808030387878418,263.9082717208862 26.175030387878415,264.1222717208862 26.241030387878418,264.1222717208862 C26.910030387878415,264.1222717208862 30.065030387878416,267.1552717208862 30.656030387878417,268.36627172088623 C31.720030387878417,270.54627172088624 31.02103038787842,273.32927172088625 28.94503038787842,275.1842717208862 C23.35903038787842,280.17527172088626 12.090030387878418,278.2782717208862 8.617030387878419,271.7632717208862 C8.332030387878419,271.2272717208862 8.041030387878418,270.78827172088626 7.971030387878418,270.78827172088626 C7.723030387878417,270.78827172088626 0.06003038787841852,278.82527172088624 0.007030387878417699,279.1412717208862 C-0.18696961212158136,280.30127172088623 3.6710303878784174,283.94227172088625 6.986030387878419,285.72827172088626 C14.788030387878418,289.9292717208862 30.931030387878415,289.3692717208862 37.07503038787842,284.68327172088624 C37.36003038787842,284.46627172088625 37.660030387878415,284.28627172088625 37.74303038787842,284.28427172088624 C38.30403038787842,284.2662717208862 42.03403038787842,280.5352717208862 42.73103038787842,279.29627172088624 C43.20703038787842,278.4482717208862 44.35703038787842,276.0232717208862 44.580030387878416,275.3952717208862 C45.43603038787842,272.99127172088623 45.51103038787842,267.42827172088624 44.718030387878414,265.20527172088623 C44.394030387878416,264.29627172088624 43.43903038787842,262.38227172088625 43.06603038787842,261.89227172088624 C42.83403038787842,261.58927172088625 42.644030387878416,261.26727172088624 42.644030387878416,261.17827172088624 C42.644030387878416,260.30527172088625 37.108030387878415,255.6412717208862 34.25803038787842,254.1122717208862 C31.571030387878416,252.67127172088624 27.199030387878416,250.6222717208862 26.812030387878416,250.6222717208862 C25.924030387878418,250.6222717208862 19.71003038787842,247.64327172088622 18.738030387878418,246.75127172088622 C18.560030387878417,246.5882717208862 18.348030387878417,246.45527172088623 18.267030387878417,246.45527172088623 C17.94003038787842,246.45527172088623 15.796030387878417,244.05327172088624 15.470030387878417,243.32127172088624 C14.617030387878419,241.40227172088623 15.186030387878418,238.73327172088622 16.766030387878416,237.25227172088623 C21.35503038787842,232.94927172088623 30.278030387878417,233.95427172088623 33.97803038787842,239.19027172088624 C34.53603038787842,239.97927172088623 34.471030387878415,239.99127172088623 35.742030387878415,238.87227172088623 C36.05403038787842,238.59727172088623 36.59103038787842,238.13527172088624 36.93503038787842,237.84627172088622 C37.96903038787842,236.97627172088622 41.84803038787842,233.64127172088624 42.535030387878415,233.03027172088622 L43.17603038787842,232.46027172088623 L42.678030387878415,231.83227172088624 C38.44203038787842,226.49927172088624 30.08403038787842,223.50727172088622 21.894030387878416,224.39327172088622 M287.8110303878784,256.3722717208862 L287.8110303878784,286.95527172088623 L295.14403038787844,286.95527172088623 L302.4780303878784,286.95527172088623 L302.4780303878784,273.78827172088626 L302.4780303878784,260.6222717208862 L315.0610303878784,260.6222717208862 L327.64403038787844,260.6222717208862 L327.64403038787844,254.95527172088623 L327.64403038787844,249.28827172088626 L315.0610303878784,249.28827172088626 L302.4780303878784,249.28827172088626 L302.4780303878784,243.12227172088623 L302.4780303878784,236.95527172088623 L315.0610303878784,236.95527172088623 L327.64403038787844,236.95527172088623 L327.64403038787844,231.37227172088623 L327.64403038787844,225.78827172088623 L307.7280303878784,225.78827172088623 L287.8110303878784,225.78827172088623 L287.8110303878784,256.3722717208862 M172.81103038787842,239.03827172088623 L172.81103038787842,245.78827172088626 L169.72803038787842,245.78827172088626 L166.64403038787842,245.78827172088626 L166.64403038787842,250.53827172088626 L166.64403038787842,255.28827172088626 L169.72803038787842,255.28827172088626 L172.81103038787842,255.28827172088626 L172.81103038787842,271.1222717208862 L172.81103038787842,286.95527172088623 L179.56103038787842,286.95527172088623 L186.31103038787842,286.95527172088623 L186.31103038787842,271.1222717208862 L186.31103038787842,255.28827172088626 L189.39403038787842,255.28827172088626 L192.47803038787842,255.28827172088626 L192.47803038787842,250.53827172088626 L192.47803038787842,245.78827172088626 L189.39403038787842,245.78827172088626 L186.31103038787842,245.78827172088626 L186.31103038787842,239.03827172088623 L186.31103038787842,232.28827172088623 L179.56103038787842,232.28827172088623 L172.81103038787842,232.28827172088623 L172.81103038787842,239.03827172088623 M71.14403038787842,244.55827172088624 C70.82303038787842,244.59727172088623 70.07303038787842,244.70527172088623 69.47803038787842,244.79927172088622 C68.88203038787842,244.89327172088622 67.98203038787842,245.0332717208862 67.47803038787842,245.11127172088624 C65.74203038787842,245.3792717208862 61.59403038787842,247.24827172088624 60.763030387878416,248.1362717208862 C60.599030387878415,248.31227172088626 60.41103038787841,248.45527172088623 60.346030387878415,248.4562717208862 C60.14703038787842,248.45727172088624 57.82003038787842,250.75127172088622 57.21903038787842,251.53927172088623 C50.64203038787842,260.15427172088624 51.45903038787842,275.62827172088623 58.879030387878416,282.9752717208862 C60.65003038787842,284.72827172088626 63.16703038787841,286.6222717208862 63.72803038787842,286.6222717208862 C63.80203038787842,286.6222717208862 64.28203038787842,286.82227172088625 64.79503038787841,287.0662717208862 C65.30803038787842,287.31027172088625 65.99003038787842,287.5642717208862 66.31103038787842,287.63027172088624 C66.63203038787842,287.69727172088625 67.34403038787842,287.87027172088625 67.89403038787842,288.0162717208862 C72.97803038787842,289.3672717208862 80.14803038787842,288.3842717208862 83.95203038787842,285.81527172088624 C84.77703038787841,285.2582717208862 87.64403038787842,282.62327172088624 87.64403038787842,282.42127172088624 C87.64403038787842,282.3482717208862 87.79703038787842,282.1362717208862 87.98303038787842,281.95027172088624 L88.32203038787841,281.61127172088624 L88.20703038787842,284.2832717208862 L88.09303038787841,286.95527172088623 L94.61903038787842,286.95527172088623 L101.14403038787842,286.95527172088623 L101.14403038787842,266.3722717208862 L101.14403038787842,245.78827172088626 L94.81103038787842,245.78827172088626 L88.47803038787842,245.78827172088626 L88.47803038787842,248.98127172088624 L88.47803038787842,252.17427172088622 L88.06103038787842,251.6892717208862 C87.83203038787842,251.42327172088625 87.64503038787842,251.13827172088622 87.64503038787842,251.05627172088623 C87.64403038787842,250.81627172088622 84.29603038787842,247.60127172088625 83.82403038787842,247.38727172088625 C83.58803038787842,247.28027172088622 83.09603038787841,247.00727172088625 82.73103038787842,246.78227172088623 C82.36603038787842,246.55627172088623 81.87003038787842,246.29727172088622 81.62903038787842,246.20527172088623 C81.38703038787841,246.11327172088625 80.67303038787841,245.83927172088625 80.04203038787841,245.59527172088622 C77.98303038787842,244.80027172088623 73.46703038787842,244.27327172088624 71.14403038787842,244.55827172088624 M140.47803038787842,244.56227172088623 C134.58503038787842,245.34427172088624 130.46603038787842,247.39227172088624 126.77603038787842,251.3722717208862 L126.15803038787843,252.03827172088626 L126.15103038787842,248.91327172088626 L126.14403038787842,245.78827172088626 L119.64403038787842,245.78827172088626 L113.14403038787842,245.78827172088626 L113.14403038787842,266.3722717208862 L113.14403038787842,286.95527172088623 L119.80103038787843,286.95527172088623 L126.4570303878784,286.95527172088623 L126.5170303878784,275.33027172088623 C126.59303038787843,260.70527172088623 126.65803038787843,260.3162717208862 129.50803038787842,257.49827172088624 C133.88803038787842,253.16827172088625 142.11603038787842,253.27527172088622 144.34603038787841,257.6912717208862 C145.5940303878784,260.16327172088626 145.6660303878784,261.04627172088624 145.7610303878784,275.08027172088623 L145.84103038787842,286.95527172088623 L152.50303038787843,286.95527172088623 L159.16503038787843,286.95527172088623 L159.09703038787842,271.9972717208862 C159.02103038787843,255.37827172088623 159.01503038787843,255.28427172088624 157.91903038787842,252.5642717208862 C157.59703038787842,251.7662717208862 157.14103038787843,250.88527172088624 156.90603038787842,250.6052717208862 C156.67003038787843,250.32527172088624 156.47803038787842,250.04227172088622 156.47803038787842,249.9752717208862 C156.47803038787842,249.75027172088625 154.2310303878784,247.63927172088626 153.36703038787843,247.05327172088624 C150.80503038787842,245.31527172088624 144.28903038787843,244.05627172088623 140.47803038787842,244.56227172088623 M215.18003038787842,244.61627172088623 C214.5120303878784,244.69327172088623 213.7620303878784,244.80727172088623 213.51303038787842,244.87127172088623 C213.26503038787843,244.93527172088622 212.6490303878784,245.04727172088622 212.14403038787842,245.12027172088625 C206.19303038787842,245.97927172088623 200.79303038787842,251.13927172088626 198.53703038787842,258.1222717208862 C196.68203038787843,263.86827172088624 197.38503038787843,273.6022717208862 199.98303038787842,278.1222717208862 C200.22103038787841,278.53427172088624 200.46103038787842,278.99527172088625 200.5180303878784,279.1462717208862 C201.0590303878784,280.5882717208862 205.59903038787843,285.45527172088623 206.40203038787843,285.45527172088623 C206.47203038787842,285.45527172088623 206.7730303878784,285.6412717208862 207.0710303878784,285.86827172088624 C207.68803038787843,286.3382717208862 210.51503038787843,287.62027172088625 210.94303038787842,287.6242717208862 C211.1000303878784,287.62527172088625 211.5470303878784,287.73827172088625 211.93703038787842,287.87327172088624 C216.25103038787842,289.37727172088626 224.46103038787842,288.4892717208862 228.04303038787842,286.13227172088625 C228.40003038787842,285.89727172088624 228.84603038787841,285.61627172088623 229.03403038787843,285.50727172088625 C229.44903038787842,285.2662717208862 231.68303038787843,283.09127172088625 232.4410303878784,282.1892717208862 L232.9870303878784,281.53827172088626 L232.8750303878784,284.2472717208862 L232.7620303878784,286.95527172088623 L239.2030303878784,286.95527172088623 L245.64403038787842,286.95527172088623 L245.64403038787842,266.3722717208862 L245.64403038787842,245.78827172088626 L239.3980303878784,245.78827172088626 L233.15203038787843,245.78827172088626 L233.1060303878784,248.97427172088624 L233.06103038787842,252.16027172088621 L232.53103038787842,251.42127172088624 C228.90103038787842,246.36427172088622 222.34903038787843,243.79527172088623 215.18003038787842,244.61627172088623 M356.14403038787844,244.55127172088623 C351.1140303878784,245.13327172088623 346.9030303878784,246.42427172088622 344.69703038787844,248.06127172088623 C344.4050303878784,248.2782717208862 344.12003038787844,248.45527172088623 344.0630303878784,248.45527172088623 C344.0060303878784,248.45527172088623 343.4200303878784,248.88227172088625 342.76003038787843,249.40427172088624 C339.09603038787844,252.30427172088622 336.7050303878784,255.68327172088624 335.4720303878784,259.70527172088623 C334.5970303878784,262.5572717208862 334.5610303878784,262.83927172088625 334.5610303878784,266.78827172088626 C334.5610303878784,270.7612717208862 334.5270303878784,270.50727172088625 335.5620303878784,274.28827172088626 C335.86803038787843,275.40427172088624 337.32703038787844,278.4562717208862 337.7040303878784,278.76927172088625 C337.8550303878784,278.89427172088625 337.9780303878784,279.06727172088625 337.9780303878784,279.1552717208862 C337.9780303878784,279.7342717208862 341.46403038787844,283.3522717208862 343.0980303878784,284.46927172088624 C345.22603038787844,285.9242717208862 348.4050303878784,287.30127172088623 350.7280303878784,287.7732717208862 C351.2780303878784,287.8842717208862 352.3280303878784,288.0972717208862 353.0610303878784,288.2462717208862 C354.94703038787844,288.62827172088623 361.5080303878784,288.62827172088623 363.39403038787844,288.2462717208862 C364.1280303878784,288.0972717208862 365.17803038787844,287.8842717208862 365.7280303878784,287.7732717208862 C368.76003038787843,287.15627172088625 372.37003038787844,285.39727172088624 375.1620303878784,283.1742717208862 C376.5520303878784,282.06827172088623 379.05503038787845,279.2582717208862 379.6290303878784,278.15927172088624 C379.8520303878784,277.7322717208862 379.9360303878784,277.77627172088626 373.64403038787844,274.9512717208862 C372.7730303878784,274.5592717208862 371.5730303878784,274.00027172088625 370.9780303878784,273.70727172088624 C369.3550303878784,272.90927172088624 369.0540303878784,272.8672717208862 368.69503038787843,273.38727172088625 C364.80503038787845,279.00527172088624 353.99503038787844,279.6312717208862 349.9100303878784,274.4752717208862 C349.1690303878784,273.53927172088623 348.0690303878784,271.16127172088625 347.91603038787844,270.16327172088626 L347.8070303878784,269.45527172088623 L364.7100303878784,269.45527172088623 L381.61303038787844,269.45527172088623 L381.73303038787844,267.85127172088625 C381.9260303878784,265.28227172088623 381.6070303878784,262.3232717208862 380.7920303878784,259.1222717208862 C380.3540303878784,257.39927172088625 378.7010303878784,254.01327172088622 377.6960303878784,252.77927172088624 C375.13203038787844,249.62827172088623 372.0670303878784,247.3382717208862 368.9780303878784,246.26227172088625 C366.48603038787843,245.39527172088623 365.91103038787844,245.24427172088622 363.9780303878784,244.94627172088624 C361.99303038787843,244.63927172088623 357.38703038787844,244.40827172088623 356.14403038787844,244.55127172088623 M361.8620303878784,254.9392717208862 C365.27203038787843,255.79227172088622 367.59603038787844,258.17327172088625 368.26003038787843,261.4922717208862 L368.3530303878784,261.95527172088623 L358.2560303878784,261.95527172088623 L348.1600303878784,261.95527172088623 L348.38003038787843,261.2472717208862 C349.61103038787843,257.2802717208862 352.0180303878784,255.35327172088626 356.7280303878784,254.56627172088622 C357.6840303878784,254.40627172088625 360.5690303878784,254.61627172088623 361.8620303878784,254.9392717208862 M80.88703038787841,255.02227172088624 C90.45603038787841,257.1002717208862 91.88003038787842,272.8022717208862 82.86703038787842,276.8502717208862 C79.31303038787841,278.4462717208862 73.59103038787842,278.02727172088623 70.81803038787842,275.96727172088623 C70.50103038787842,275.73127172088624 70.16003038787842,275.5012717208862 70.06203038787842,275.45527172088623 C69.82003038787842,275.3432717208862 68.47803038787842,273.86627172088623 68.47803038787842,273.7132717208862 C68.47803038787842,273.6462717208862 68.33103038787841,273.40427172088624 68.15103038787842,273.17627172088623 C65.91603038787842,270.3352717208862 65.82003038787842,262.68727172088626 67.98203038787842,259.7492717208862 C68.16603038787842,259.49827172088624 68.38903038787842,259.1052717208862 68.47703038787841,258.8742717208862 C68.56403038787842,258.64427172088625 68.70303038787841,258.45527172088623 68.78503038787842,258.45527172088623 C68.86803038787842,258.45527172088623 69.11303038787842,258.19327172088623 69.33103038787841,257.87327172088624 C69.54903038787842,257.55327172088624 69.80803038787842,257.2902717208862 69.90703038787842,257.28927172088623 C70.00603038787841,257.28927172088623 70.26403038787842,257.09927172088624 70.48203038787842,256.8672717208862 C72.15103038787842,255.09027172088622 77.13303038787842,254.20727172088624 80.88703038787841,255.02227172088624 M225.52703038787843,255.02027172088623 C229.42603038787843,255.85327172088626 232.6610303878784,259.48327172088625 233.17403038787842,263.60127172088625 C234.41203038787842,273.5522717208862 229.26403038787842,278.87827172088623 219.6120303878784,277.6342717208862 C213.58703038787843,276.85627172088624 209.90603038787842,270.56727172088625 211.3090303878784,263.4462717208862 C211.87603038787842,260.57027172088624 212.89503038787842,258.74527172088625 214.98403038787842,256.86827172088624 C215.99103038787842,255.9632717208862 218.27803038787843,255.11127172088624 220.72803038787842,254.72727172088622 C221.56703038787842,254.59627172088625 224.3280303878784,254.76527172088623 225.52703038787843,255.02027172088623 M143.89003038787843,329.28827172088626 C143.89003038787843,336.20927172088625 143.9110303878784,339.0402717208862 143.93603038787842,335.58027172088623 C143.96103038787842,332.12027172088625 143.96103038787842,326.45727172088624 143.93603038787842,322.9972717208862 C143.9110303878784,319.53627172088625 143.89003038787843,322.3672717208862 143.89003038787843,329.28827172088626 M129.38803038787842,333.70527172088623 C129.38803038787842,338.19727172088625 129.4100303878784,340.01027172088624 129.43603038787842,337.7352717208862 C129.46203038787843,335.4602717208862 129.46203038787843,331.7852717208862 129.43603038787842,329.56827172088623 C129.4100303878784,327.3522717208862 129.38803038787842,329.2132717208862 129.38803038787842,333.70527172088623 M238.0530303878784,335.6222717208862 C238.0530303878784,339.15127172088626 238.07503038787843,340.5952717208862 238.10203038787841,338.83027172088623 C238.12903038787843,337.06527172088624 238.12903038787843,334.17827172088624 238.10203038787841,332.41327172088626 C238.07503038787843,330.64927172088625 238.0530303878784,332.09227172088623 238.0530303878784,335.6222717208862 " stroke="none" fill="#0c244c" fill-rule="evenodd"/><path id="path3" d="M143.60303038787842,6.2422717208862295 C143.90103038787842,6.279271720886232 144.38803038787842,6.279271720886232 144.68603038787842,6.2422717208862295 C144.98403038787842,6.2052717208862305 144.74003038787842,6.175271720886229 144.14403038787842,6.175271720886229 C143.5480303878784,6.175271720886229 143.30503038787842,6.2052717208862305 143.60303038787842,6.2422717208862295 M148.01903038787842,6.412271720886231 C148.63803038787842,6.444271720886231 149.65103038787842,6.444271720886231 150.26903038787842,6.412271720886231 C150.88803038787842,6.380271720886231 150.38203038787842,6.354271720886231 149.14403038787842,6.354271720886231 C147.90703038787842,6.354271720886231 147.40103038787842,6.380271720886231 148.01903038787842,6.412271720886231 M153.60303038787842,6.579271720886229 C154.35903038787842,6.610271720886232 155.59603038787841,6.610271720886232 156.35303038787842,6.579271720886229 C157.10903038787842,6.54827172088623 156.49003038787842,6.523271720886232 154.97803038787842,6.523271720886232 C153.46503038787841,6.523271720886232 152.84603038787841,6.54827172088623 153.60303038787842,6.579271720886229 M159.86103038787843,6.746271720886231 C160.6670303878784,6.776271720886232 161.94203038787842,6.776271720886232 162.69403038787843,6.746271720886231 C163.4460303878784,6.715271720886232 162.7860303878784,6.69027172088623 161.22803038787842,6.69027172088623 C159.66903038787842,6.69027172088623 159.0540303878784,6.715271720886232 159.86103038787843,6.746271720886231 M168.51903038787842,6.91127172088623 C168.95503038787842,6.945271720886229 169.6670303878784,6.945271720886229 170.10303038787842,6.91127172088623 C170.53803038787842,6.877271720886231 170.18203038787843,6.848271720886231 169.31103038787842,6.848271720886231 C168.4400303878784,6.848271720886231 168.0840303878784,6.877271720886231 168.51903038787842,6.91127172088623 M175.44203038787842,7.078271720886232 C175.92603038787843,7.1122717208862305 176.67603038787843,7.111271720886229 177.10803038787842,7.07727172088623 C177.5410303878784,7.043271720886231 177.14403038787842,7.015271720886229 176.22803038787842,7.01627172088623 C175.31103038787842,7.01627172088623 174.9570303878784,7.044271720886229 175.44203038787842,7.078271720886232 M183.0120303878784,7.24527172088623 C183.62703038787842,7.27727172088623 184.67703038787843,7.27727172088623 185.3450303878784,7.246271720886231 C186.01403038787842,7.214271720886231 185.5110303878784,7.188271720886231 184.22803038787842,7.18727172088623 C182.94403038787843,7.18727172088623 182.39703038787843,7.21327172088623 183.0120303878784,7.24527172088623 M191.6120303878784,7.413271720886229 C192.55603038787842,7.44327172088623 194.05603038787842,7.442271720886229 194.9450303878784,7.412271720886231 C195.8340303878784,7.383271720886231 195.06103038787842,7.358271720886229 193.22803038787842,7.358271720886229 C191.39403038787842,7.35927172088623 190.6670303878784,7.383271720886231 191.6120303878784,7.413271720886229 M203.93603038787842,7.5802717208862305 C205.9760303878784,7.60627172088623 209.31303038787843,7.60627172088623 211.35303038787842,7.5802717208862305 C213.3920303878784,7.5532717208862294 211.72303038787842,7.532271720886232 207.64403038787842,7.532271720886232 C203.5650303878784,7.532271720886232 201.89603038787843,7.5532717208862294 203.93603038787842,7.5802717208862305 M225.35303038787842,7.5802717208862305 C226.6130303878784,7.608271720886229 228.67603038787843,7.608271720886229 229.93603038787842,7.5802717208862305 C231.1960303878784,7.5512717208862306 230.16503038787843,7.528271720886231 227.64403038787842,7.528271720886231 C225.1240303878784,7.528271720886231 224.09203038787842,7.5512717208862306 225.35303038787842,7.5802717208862305 M234.10303038787842,7.573271720886229 C234.3090303878784,7.6122717208862305 234.64603038787843,7.6122717208862305 234.85303038787842,7.573271720886229 C235.0590303878784,7.53327172088623 234.89003038787843,7.500271720886232 234.47803038787842,7.500271720886232 C234.0650303878784,7.500271720886232 233.89603038787843,7.53327172088623 234.10303038787842,7.573271720886229 M138.64403038787842,10.685271720886231 C138.64403038787842,10.86427172088623 139.14003038787843,11.788271720886229 139.23603038787843,11.788271720886229 C139.28203038787842,11.788271720886229 139.1960303878784,11.54527172088623 139.04403038787842,11.247271720886232 C138.73503038787842,10.63827172088623 138.64403038787842,10.511271720886231 138.64403038787842,10.685271720886231 M140.56103038787842,13.45527172088623 C141.0120303878784,13.913271720886229 141.41903038787842,14.288271720886229 141.46503038787841,14.288271720886229 C141.5110303878784,14.288271720886229 141.1790303878784,13.913271720886229 140.72803038787842,13.45527172088623 C140.27603038787842,12.997271720886232 139.8690303878784,12.622271720886232 139.82403038787842,12.622271720886232 C139.77803038787843,12.622271720886232 140.11003038787842,12.997271720886232 140.56103038787842,13.45527172088623 M237.0530303878784,14.163271720886229 L236.39403038787842,14.872271720886232 L237.10303038787842,14.21327172088623 C237.49203038787843,13.85027172088623 237.81103038787842,13.532271720886232 237.81103038787842,13.505271720886231 C237.81103038787842,13.378271720886232 237.6660303878784,13.505271720886231 237.0530303878784,14.163271720886229 M233.93603038787842,16.38427172088623 C233.31303038787843,16.72227172088623 233.3510303878784,16.86227172088623 233.97803038787842,16.53827172088623 C234.25303038787843,16.39627172088623 234.47803038787842,16.244271720886232 234.47803038787842,16.20127172088623 C234.47803038787842,16.093271720886232 234.46003038787842,16.10027172088623 233.93603038787842,16.38427172088623 M151.06103038787842,18.622271720886232 C151.2440303878784,18.70027172088623 151.50703038787842,18.76527172088623 151.64403038787842,18.76527172088623 C151.80203038787843,18.76527172088623 151.77103038787843,18.712271720886232 151.56103038787842,18.622271720886232 C151.37803038787843,18.54327172088623 151.11503038787842,18.47827172088623 150.97803038787842,18.47827172088623 C150.8200303878784,18.47827172088623 150.8510303878784,18.53127172088623 151.06103038787842,18.622271720886232 M168.18603038787842,21.90327172088623 C168.34603038787841,21.945271720886232 168.60903038787842,21.945271720886232 168.76903038787842,21.90327172088623 C168.93003038787842,21.86127172088623 168.7980303878784,21.82727172088623 168.47803038787842,21.82727172088623 C168.15703038787842,21.82727172088623 168.02603038787842,21.86127172088623 168.18603038787842,21.90327172088623 M169.51903038787842,22.070271720886232 C169.68003038787842,22.112271720886227 169.94203038787842,22.112271720886227 170.10303038787842,22.070271720886232 C170.26303038787842,22.02827172088623 170.13203038787842,21.994271720886232 169.81103038787842,21.994271720886232 C169.49003038787842,21.994271720886232 169.35903038787842,22.02827172088623 169.51903038787842,22.070271720886232 M170.85303038787842,22.237271720886227 C171.01303038787842,22.27827172088623 171.27603038787842,22.27827172088623 171.43603038787842,22.237271720886227 C171.59603038787841,22.195271720886232 171.46503038787841,22.16027172088623 171.14403038787842,22.16027172088623 C170.82303038787842,22.16027172088623 170.69203038787842,22.195271720886232 170.85303038787842,22.237271720886227 M177.10503038787843,22.90627172088623 C177.31203038787842,22.94627172088623 177.6120303878784,22.945271720886232 177.77103038787843,22.90327172088623 C177.93103038787842,22.86127172088623 177.7610303878784,22.829271720886233 177.39403038787842,22.83027172088623 C177.02803038787843,22.832271720886233 176.89703038787843,22.866271720886232 177.10503038787843,22.90627172088623 M178.85503038787843,23.075271720886228 C179.10803038787842,23.11327172088623 179.48303038787842,23.112271720886227 179.68803038787843,23.072271720886228 C179.8930303878784,23.033271720886233 179.68603038787842,23.00127172088623 179.22803038787842,23.003271720886232 C178.76903038787842,23.00427172088623 178.60203038787841,23.036271720886234 178.85503038787843,23.075271720886228 M204.68603038787842,23.070271720886232 C204.84603038787841,23.112271720886227 205.10903038787842,23.112271720886227 205.26903038787842,23.070271720886232 C205.43003038787842,23.02827172088623 205.2980303878784,22.994271720886232 204.97803038787842,22.994271720886232 C204.65703038787842,22.994271720886232 204.52603038787842,23.02827172088623 204.68603038787842,23.070271720886232 M180.51903038787842,23.241271720886232 C180.77103038787843,23.27927172088623 181.1840303878784,23.27927172088623 181.43603038787842,23.241271720886232 C181.68803038787843,23.203271720886228 181.4820303878784,23.17227172088623 180.97803038787842,23.17227172088623 C180.47303038787842,23.17227172088623 180.2670303878784,23.203271720886228 180.51903038787842,23.241271720886232 M203.51903038787842,23.237271720886227 C203.68003038787842,23.27827172088623 203.94203038787842,23.27827172088623 204.10303038787842,23.237271720886227 C204.26303038787842,23.195271720886232 204.13203038787842,23.16027172088623 203.81103038787842,23.16027172088623 C203.49003038787842,23.16027172088623 203.35903038787842,23.195271720886232 203.51903038787842,23.237271720886227 M182.60303038787842,23.40627172088623 C182.8090303878784,23.44627172088623 183.14603038787843,23.44627172088623 183.35303038787842,23.40627172088623 C183.5590303878784,23.366271720886232 183.39003038787843,23.33427172088623 182.97803038787842,23.33427172088623 C182.5650303878784,23.33427172088623 182.39603038787843,23.366271720886232 182.60303038787842,23.40627172088623 M184.51903038787842,23.570271720886232 C184.68003038787842,23.612271720886234 184.94203038787842,23.612271720886234 185.10303038787842,23.570271720886232 C185.26303038787842,23.52827172088623 185.13203038787842,23.494271720886232 184.81103038787842,23.494271720886232 C184.49003038787842,23.494271720886232 184.35903038787842,23.52827172088623 184.51903038787842,23.570271720886232 M197.01903038787842,24.070271720886232 C197.18003038787842,24.112271720886227 197.44203038787842,24.112271720886227 197.60303038787842,24.070271720886232 C197.76303038787842,24.02827172088623 197.63203038787842,23.994271720886232 197.31103038787842,23.994271720886232 C196.99003038787842,23.994271720886232 196.85903038787842,24.02827172088623 197.01903038787842,24.070271720886232 M195.26903038787842,24.23927172088623 C195.4760303878784,24.27927172088623 195.81303038787843,24.27927172088623 196.01903038787842,24.23927172088623 C196.2260303878784,24.200271720886228 196.05703038787843,24.167271720886234 195.64403038787842,24.167271720886234 C195.2320303878784,24.167271720886234 195.06303038787843,24.200271720886228 195.26903038787842,24.23927172088623 M187.43603038787842,24.55027172088623 C186.81303038787843,24.88827172088623 186.8510303878784,25.02927172088623 187.47803038787842,24.70527172088623 C187.75303038787843,24.563271720886227 187.97803038787842,24.411271720886234 187.97803038787842,24.36727172088623 C187.97803038787842,24.26027172088623 187.96003038787842,24.26627172088623 187.43603038787842,24.55027172088623 M193.47803038787842,24.445271720886232 C193.47803038787842,24.53127172088623 193.5640303878784,24.65627172088623 193.67003038787843,24.72127172088623 C193.7850303878784,24.792271720886234 193.81703038787842,24.767271720886228 193.7500303878784,24.658271720886233 C193.68003038787842,24.545271720886234 193.8440303878784,24.451271720886233 194.18303038787843,24.40927172088623 C194.72303038787842,24.34227172088623 194.72203038787842,24.341271720886233 194.10303038787842,24.31527172088623 C193.75903038787843,24.30027172088623 193.47803038787842,24.359271720886234 193.47803038787842,24.445271720886232 M134.1900303878784,26.28827172088623 C134.1900303878784,26.701271720886233 134.22203038787842,26.87027172088623 134.2620303878784,26.66327172088623 C134.30203038787843,26.457271720886233 134.30203038787843,26.12027172088623 134.2620303878784,25.91327172088623 C134.22203038787842,25.707271720886233 134.1900303878784,25.87627172088623 134.1900303878784,26.28827172088623 M183.60303038787842,26.71727172088623 C182.98003038787843,27.055271720886232 183.0180303878784,27.19627172088623 183.64403038787842,26.872271720886232 C183.91903038787842,26.72927172088623 184.14403038787842,26.578271720886228 184.14403038787842,26.53427172088623 C184.14403038787842,26.42727172088623 184.12603038787842,26.433271720886232 183.60303038787842,26.71727172088623 M247.6920303878784,27.70527172088623 C247.69303038787842,28.16327172088623 247.72603038787844,28.331271720886228 247.7640303878784,28.078271720886228 C247.8020303878784,27.82427172088623 247.80103038787843,27.44927172088623 247.76203038787844,27.244271720886232 C247.72203038787842,27.039271720886234 247.6910303878784,27.247271720886232 247.6920303878784,27.70527172088623 M134.36403038787842,28.28827172088623 C134.36403038787842,28.884271720886233 134.39503038787842,29.128271720886232 134.43203038787843,28.83027172088623 C134.4690303878784,28.53227172088623 134.4690303878784,28.045271720886234 134.43203038787843,27.747271720886232 C134.39503038787842,27.44927172088623 134.36403038787842,27.692271720886232 134.36403038787842,28.28827172088623 M198.64403038787842,27.69627172088623 C198.64403038787842,27.74227172088623 198.8690303878784,27.896271720886233 199.14403038787842,28.03827172088623 C199.41903038787842,28.18127172088623 199.64403038787842,28.259271720886233 199.64403038787842,28.21427172088623 C199.64403038787842,28.16827172088623 199.41903038787842,28.014271720886228 199.14403038787842,27.872271720886232 C198.8690303878784,27.72927172088623 198.64403038787842,27.65127172088623 198.64403038787842,27.69627172088623 M179.76903038787842,28.884271720886233 C179.14603038787843,29.222271720886233 179.1840303878784,29.362271720886227 179.81103038787842,29.03827172088623 C180.08603038787842,28.896271720886233 180.31103038787842,28.744271720886232 180.31103038787842,28.701271720886233 C180.31103038787842,28.59327172088623 180.29303038787842,28.600271720886234 179.76903038787842,28.884271720886233 M201.97803038787842,29.69627172088623 C201.97803038787842,29.74227172088623 202.2030303878784,29.896271720886233 202.47803038787842,30.03827172088623 C202.75303038787843,30.18127172088623 202.97803038787842,30.259271720886233 202.97803038787842,30.21427172088623 C202.97803038787842,30.16827172088623 202.75303038787843,30.014271720886228 202.47803038787842,29.872271720886232 C202.2030303878784,29.72927172088623 201.97803038787842,29.65127172088623 201.97803038787842,29.69627172088623 M134.52803038787843,30.78827172088623 C134.52803038787843,31.292271720886234 134.5590303878784,31.499271720886227 134.59703038787842,31.247271720886232 C134.63503038787843,30.99527172088623 134.63503038787843,30.582271720886233 134.59703038787842,30.33027172088623 C134.5590303878784,30.078271720886228 134.52803038787843,30.28427172088623 134.52803038787843,30.78827172088623 M247.53603038787844,31.95527172088623 C247.53603038787844,32.734271720886234 247.56503038787844,33.05327172088623 247.6000303878784,32.66327172088623 C247.63503038787843,32.27427172088623 247.63503038787843,31.636271720886228 247.6000303878784,31.247271720886232 C247.56503038787844,30.85727172088623 247.53603038787844,31.176271720886227 247.53603038787844,31.95527172088623 M175.93603038787842,31.05027172088623 C175.31303038787843,31.38827172088623 175.3510303878784,31.52927172088623 175.97803038787842,31.20527172088623 C176.25303038787843,31.063271720886227 176.47803038787842,30.911271720886234 176.47803038787842,30.86727172088623 C176.47803038787842,30.76027172088623 176.46003038787842,30.76627172088623 175.93603038787842,31.05027172088623 M206.14403038787842,32.19627172088623 C206.14403038787842,32.24227172088623 206.3690303878784,32.39627172088623 206.64403038787842,32.53827172088623 C206.91903038787842,32.68127172088623 207.14403038787842,32.75927172088623 207.14403038787842,32.71427172088623 C207.14403038787842,32.66827172088623 206.91903038787842,32.51427172088623 206.64403038787842,32.37227172088623 C206.3690303878784,32.22927172088623 206.14403038787842,32.15127172088623 206.14403038787842,32.19627172088623 M134.69203038787842,33.03827172088623 C134.69303038787842,33.49727172088623 134.7260303878784,33.664271720886234 134.76403038787842,33.41127172088623 C134.80203038787843,33.15827172088623 134.80103038787843,32.78327172088623 134.7620303878784,32.57827172088623 C134.72203038787842,32.37327172088623 134.6910303878784,32.58027172088623 134.69203038787842,33.03827172088623 M171.76903038787842,33.38427172088623 C171.14603038787843,33.72227172088623 171.1840303878784,33.86227172088623 171.81103038787842,33.53827172088623 C172.08603038787842,33.39627172088623 172.31103038787842,33.24427172088623 172.31103038787842,33.20127172088623 C172.31103038787842,33.09327172088623 172.29303038787842,33.100271720886234 171.76903038787842,33.38427172088623 M186.63503038787843,33.74727172088623 L186.06103038787842,34.37227172088623 L186.68603038787842,33.79727172088623 C187.0300303878784,33.481271720886234 187.31103038787842,33.20027172088623 187.31103038787842,33.17227172088623 C187.31103038787842,33.045271720886234 187.17003038787843,33.16527172088623 186.63503038787843,33.74727172088623 M207.81103038787842,33.19627172088623 C207.81103038787842,33.24227172088623 208.0360303878784,33.39627172088623 208.31103038787842,33.53827172088623 C208.58603038787842,33.68127172088623 208.81103038787842,33.75927172088623 208.81103038787842,33.71427172088623 C208.81103038787842,33.66827172088623 208.58603038787842,33.51427172088623 208.31103038787842,33.37227172088623 C208.0360303878784,33.22927172088623 207.81103038787842,33.15127172088623 207.81103038787842,33.19627172088623 M247.3720303878784,35.87227172088623 C247.3720303878784,36.78827172088623 247.40003038787842,37.14227172088623 247.4340303878784,36.65827172088623 C247.4680303878784,36.173271720886234 247.46703038787842,35.423271720886234 247.43303038787843,34.99127172088623 C247.39903038787844,34.55927172088623 247.37103038787842,34.95527172088623 247.3720303878784,35.87227172088623 M169.43603038787842,34.71727172088623 C168.81303038787843,35.05527172088623 168.8510303878784,35.19627172088623 169.47803038787842,34.87227172088623 C169.75303038787843,34.72927172088623 169.97803038787842,34.57827172088623 169.97803038787842,34.53427172088623 C169.97803038787842,34.42727172088623 169.96003038787842,34.43327172088623 169.43603038787842,34.71727172088623 M134.8560303878784,35.45527172088623 C134.8560303878784,35.86827172088623 134.88903038787842,36.03627172088623 134.9290303878784,35.83027172088623 C134.96803038787843,35.62427172088623 134.96803038787843,35.28627172088623 134.9290303878784,35.08027172088623 C134.88903038787842,34.87427172088623 134.8560303878784,35.042271720886234 134.8560303878784,35.45527172088623 M167.93603038787842,35.55027172088623 C167.31303038787843,35.88827172088623 167.3510303878784,36.02927172088623 167.97803038787842,35.70527172088623 C168.25303038787843,35.56327172088623 168.47803038787842,35.41127172088623 168.47803038787842,35.36727172088623 C168.47803038787842,35.26027172088623 168.46003038787842,35.26627172088623 167.93603038787842,35.55027172088623 M165.60303038787842,36.88427172088623 C164.98003038787843,37.22227172088623 165.0180303878784,37.36227172088623 165.64403038787842,37.03827172088623 C165.91903038787842,36.89627172088623 166.14403038787842,36.74427172088623 166.14403038787842,36.70127172088623 C166.14403038787842,36.59327172088623 166.12603038787842,36.600271720886234 165.60303038787842,36.88427172088623 M213.64403038787842,36.69627172088623 C213.64403038787842,36.74227172088623 213.8690303878784,36.89627172088623 214.14403038787842,37.03827172088623 C214.41903038787842,37.18127172088623 214.64403038787842,37.25927172088623 214.64403038787842,37.21427172088623 C214.64403038787842,37.16827172088623 214.41903038787842,37.01427172088623 214.14403038787842,36.87227172088623 C213.8690303878784,36.72927172088623 213.64403038787842,36.65127172088623 213.64403038787842,36.69627172088623 M135.01603038787843,37.95527172088623 C135.01603038787843,38.27627172088623 135.05103038787843,38.40727172088623 135.09303038787843,38.24727172088623 C135.13403038787843,38.08627172088623 135.13403038787843,37.82427172088623 135.09303038787843,37.66327172088623 C135.05103038787843,37.50327172088623 135.01603038787843,37.63427172088623 135.01603038787843,37.95527172088623 M215.31103038787842,37.69627172088623 C215.31103038787842,37.74227172088623 215.5360303878784,37.89627172088623 215.81103038787842,38.03827172088623 C216.08603038787842,38.18127172088623 216.31103038787842,38.25927172088623 216.31103038787842,38.21427172088623 C216.31103038787842,38.16827172088623 216.08603038787842,38.01427172088623 215.81103038787842,37.87227172088623 C215.5360303878784,37.72927172088623 215.31103038787842,37.65127172088623 215.31103038787842,37.69627172088623 M247.2040303878784,39.45527172088623 C247.2040303878784,40.32627172088623 247.23303038787844,40.68227172088623 247.26703038787844,40.24727172088623 C247.30103038787843,39.81127172088623 247.30103038787843,39.09927172088623 247.26703038787844,38.66327172088623 C247.23303038787844,38.228271720886234 247.2040303878784,38.58427172088623 247.2040303878784,39.45527172088623 M160.26903038787842,39.88427172088623 C159.64603038787843,40.22227172088623 159.6840303878784,40.36227172088623 160.31103038787842,40.03827172088623 C160.58603038787842,39.89627172088623 160.81103038787842,39.74427172088623 160.81103038787842,39.70127172088623 C160.81103038787842,39.59327172088623 160.79303038787842,39.600271720886234 160.26903038787842,39.88427172088623 M135.1900303878784,40.62227172088623 C135.1900303878784,41.03427172088623 135.22203038787842,41.20327172088623 135.2620303878784,40.99727172088623 C135.30203038787843,40.79027172088623 135.30203038787843,40.45327172088623 135.2620303878784,40.24727172088623 C135.22203038787842,40.04027172088623 135.1900303878784,40.20927172088623 135.1900303878784,40.62227172088623 M157.60303038787842,41.38427172088623 C156.98003038787843,41.72227172088623 157.0180303878784,41.86227172088623 157.64403038787842,41.53827172088623 C157.91903038787842,41.39627172088623 158.14403038787842,41.24427172088623 158.14403038787842,41.20127172088623 C158.14403038787842,41.09327172088623 158.12603038787842,41.100271720886234 157.60303038787842,41.38427172088623 M221.14403038787842,41.19627172088623 C221.14403038787842,41.24227172088623 221.3690303878784,41.39627172088623 221.64403038787842,41.53827172088623 C221.91903038787842,41.68127172088623 222.14403038787842,41.75927172088623 222.14403038787842,41.71427172088623 C222.14403038787842,41.66827172088623 221.91903038787842,41.51427172088623 221.64403038787842,41.37227172088623 C221.3690303878784,41.22927172088623 221.14403038787842,41.15127172088623 221.14403038787842,41.19627172088623 M247.03403038787843,43.28827172088623 C247.03403038787843,43.97627172088623 247.06303038787843,44.25727172088623 247.09903038787843,43.91327172088623 C247.13503038787843,43.57027172088623 247.13503038787843,43.00727172088623 247.09903038787843,42.66327172088623 C247.06303038787843,42.32027172088623 247.03403038787843,42.60127172088623 247.03403038787843,43.28827172088623 M135.3690303878784,44.12227172088623 C135.3690303878784,44.90127172088623 135.3980303878784,45.22027172088623 135.43303038787843,44.83027172088623 C135.46803038787843,44.44027172088623 135.46803038787843,43.80327172088623 135.43303038787843,43.41327172088623 C135.3980303878784,43.02427172088623 135.3690303878784,43.34227172088623 135.3690303878784,44.12227172088623 M153.76903038787842,43.55027172088623 C153.14603038787843,43.88827172088623 153.1840303878784,44.02927172088623 153.81103038787842,43.70527172088623 C154.08603038787842,43.56327172088623 154.31103038787842,43.41127172088623 154.31103038787842,43.36727172088623 C154.31103038787842,43.26027172088623 154.29303038787842,43.26627172088623 153.76903038787842,43.55027172088623 M149.93603038787842,45.71727172088623 C149.31303038787843,46.05527172088623 149.3510303878784,46.19627172088623 149.97803038787842,45.87227172088623 C150.25303038787843,45.72927172088623 150.47803038787842,45.57827172088623 150.47803038787842,45.53427172088623 C150.47803038787842,45.42727172088623 150.46003038787842,45.43327172088623 149.93603038787842,45.71727172088623 M246.86303038787844,46.70527172088623 C246.86403038787842,47.25527172088623 246.89503038787842,47.46027172088623 246.9320303878784,47.16027172088623 C246.96903038787843,46.86127172088623 246.9680303878784,46.41127172088623 246.93003038787845,46.16027172088623 C246.89203038787844,45.91027172088623 246.8620303878784,46.15527172088623 246.86303038787844,46.70527172088623 M135.5360303878784,47.28827172088623 C135.5360303878784,48.06727172088623 135.5650303878784,48.38627172088623 135.6000303878784,47.99727172088623 C135.63503038787843,47.60727172088623 135.63503038787843,46.97027172088623 135.6000303878784,46.58027172088623 C135.5650303878784,46.19027172088623 135.5360303878784,46.50927172088623 135.5360303878784,47.28827172088623 M145.76903038787842,48.05027172088623 C145.14603038787843,48.38827172088623 145.1840303878784,48.52927172088623 145.81103038787842,48.20527172088623 C146.08603038787842,48.06327172088623 146.31103038787842,47.91127172088623 146.31103038787842,47.86727172088623 C146.31103038787842,47.76027172088623 146.29303038787842,47.76627172088623 145.76903038787842,48.05027172088623 M246.69403038787843,49.95527172088623 C246.69403038787843,50.45927172088623 246.7260303878784,50.66527172088623 246.76403038787842,50.41327172088623 C246.80203038787843,50.16127172088623 246.80203038787843,49.74927172088623 246.76403038787842,49.49727172088623 C246.7260303878784,49.24527172088623 246.69403038787843,49.45127172088623 246.69403038787843,49.95527172088623 M135.7010303878784,50.53827172088623 C135.7020303878784,51.27227172088623 135.7310303878784,51.551271720886234 135.7670303878784,51.15927172088623 C135.80203038787843,50.76727172088623 135.80103038787843,50.167271720886234 135.76503038787843,49.82627172088623 C135.73003038787843,49.484271720886234 135.7010303878784,49.80527172088623 135.7010303878784,50.53827172088623 M141.93603038787842,50.21727172088623 C141.31303038787843,50.55527172088623 141.3510303878784,50.69627172088623 141.97803038787842,50.37227172088623 C142.25303038787843,50.22927172088623 142.47803038787842,50.07827172088623 142.47803038787842,50.03427172088623 C142.47803038787842,49.92727172088623 142.46003038787842,49.93327172088623 141.93603038787842,50.21727172088623 M139.60303038787842,51.55027172088623 C138.98003038787843,51.88827172088623 139.0180303878784,52.02927172088623 139.64403038787842,51.70527172088623 C139.91903038787842,51.56327172088623 140.14403038787842,51.41127172088623 140.14403038787842,51.36727172088623 C140.14403038787842,51.26027172088623 140.12603038787842,51.26627172088623 139.60303038787842,51.55027172088623 M138.10303038787842,52.38427172088623 C137.48003038787843,52.72227172088623 137.5180303878784,52.86227172088623 138.14403038787842,52.53827172088623 C138.41903038787842,52.39627172088623 138.64403038787842,52.24427172088623 138.64403038787842,52.20127172088623 C138.64403038787842,52.09327172088623 138.62603038787842,52.100271720886234 138.10303038787842,52.38427172088623 M246.52503038787842,53.37227172088623 C246.52703038787843,53.83027172088623 246.5590303878784,53.99827172088624 246.59703038787842,53.74427172088623 C246.6360303878784,53.49127172088623 246.63503038787843,53.11627172088623 246.5950303878784,52.91127172088623 C246.55503038787842,52.70627172088623 246.5240303878784,52.91327172088623 246.52503038787842,53.37227172088623 M190.10303038787842,86.07327172088623 C190.3090303878784,86.11227172088623 190.64603038787843,86.11227172088623 190.85303038787842,86.07327172088623 C191.0590303878784,86.03327172088623 190.89003038787843,86.00027172088623 190.47803038787842,86.00027172088623 C190.0650303878784,86.00027172088623 189.89603038787843,86.03327172088623 190.10303038787842,86.07327172088623 " stroke="none" fill="#3f4447" fill-rule="evenodd"/><path id="path4" d="M217.26903038787842,7.578271720886232 C217.75103038787842,7.6122717208862305 218.53803038787842,7.6122717208862305 219.01903038787842,7.578271720886232 C219.50103038787842,7.544271720886229 219.1070303878784,7.517271720886232 218.14403038787842,7.517271720886232 C217.18203038787843,7.517271720886232 216.78803038787842,7.544271720886229 217.26903038787842,7.578271720886232 M189.26403038787842,32.29427172088623 C185.2070303878784,33.31227172088623 183.79303038787842,38.46027172088623 186.7670303878784,41.38527172088623 C190.11603038787842,44.67927172088623 195.81103038787842,42.25727172088623 195.81103038787842,37.53827172088623 C195.81103038787842,34.10827172088623 192.5240303878784,31.475271720886234 189.26403038787842,32.29427172088623 M188.7910303878784,86.35227172088624 C183.0830303878784,88.39227172088623 184.43603038787842,96.69627172088623 190.47803038787842,96.70327172088624 C196.22203038787842,96.71027172088623 197.9290303878784,89.05627172088623 192.7310303878784,86.59727172088623 C191.59903038787843,86.06127172088623 189.90003038787842,85.95527172088623 188.7910303878784,86.35227172088624 M188.69803038787842,134.44427172088623 C183.96803038787843,136.14727172088624 184.21003038787842,142.97027172088622 189.04903038787842,144.37627172088622 C193.7490303878784,145.74127172088623 197.60303038787842,140.41527172088624 194.8380303878784,136.37727172088623 C193.5240303878784,134.45827172088622 190.9290303878784,133.64127172088624 188.69803038787842,134.44427172088623 M188.97803038787842,182.10327172088623 C183.15703038787842,183.99127172088623 184.3870303878784,192.62227172088623 190.47803038787842,192.62227172088623 C196.12003038787842,192.62227172088623 197.8990303878784,184.89827172088624 192.82503038787843,182.42727172088624 C192.0050303878784,182.02827172088624 189.7860303878784,181.84127172088623 188.97803038787842,182.10327172088623 " stroke="none" fill="#ffffff" fill-rule="evenodd"/></g></g></svg>