<svg id="svg" version="1.1" width="400" height="365.15426497277673" viewBox="0 0 400 365.15426497277673" xmlns="http://www.w3.org/2000/svg" xmlns:xlink="http://www.w3.org/1999/xlink" ><g id="svgg"><path id="path0" d="M225.500 11.189 C 205.915 11.393,183.054 11.673,168.083 11.892 C 160.567 12.003,153.769 12.067,152.978 12.035 C 149.091 11.878,145.736 13.189,143.912 15.579 C 141.854 18.274,141.621 20.878,142.647 29.667 C 142.931 32.096,143.164 34.658,143.165 35.361 C 143.166 36.064,143.239 36.664,143.327 36.694 C 143.548 36.771,144.730 54.952,145.040 63.030 C 145.093 64.422,145.198 64.664,145.633 64.395 C 145.789 64.298,148.354 62.844,151.333 61.164 C 154.313 59.484,157.537 57.664,158.500 57.120 C 159.462 56.577,161.225 55.586,162.417 54.918 C 163.608 54.251,165.371 53.259,166.333 52.715 C 169.488 50.931,172.166 49.420,178.083 46.084 C 185.654 41.817,190.344 39.172,192.417 38.000 C 193.333 37.481,194.867 36.617,195.824 36.078 C 197.951 34.883,198.171 34.982,192.333 34.502 C 173.303 32.939,159.772 30.395,153.634 27.224 C 147.776 24.198,145.714 19.478,149.534 17.835 C 150.979 17.213,152.125 17.172,161.250 17.420 C 191.963 18.256,198.161 18.363,222.333 18.480 L 245.083 18.590 245.987 18.957 C 250.065 20.610,248.302 25.001,242.361 27.988 C 238.114 30.124,224.709 32.886,209.583 34.743 C 206.925 35.069,204.305 35.392,203.760 35.460 L 202.771 35.583 228.994 51.333 C 243.416 59.996,255.276 67.107,255.349 67.136 C 255.578 67.226,255.648 66.280,256.000 58.333 C 256.389 49.569,256.918 38.725,257.253 32.667 C 257.377 30.421,257.531 26.333,257.597 23.583 L 257.716 18.583 257.201 17.487 C 256.604 16.214,255.944 15.374,254.667 14.259 C 254.107 13.770,252.104 12.647,251.207 12.319 C 249.221 11.593,248.698 11.466,246.750 11.239 C 244.592 10.989,244.753 10.989,225.500 11.189 M65.750 131.024 C 64.925 131.208,63.987 131.414,63.667 131.483 C 62.959 131.636,60.088 132.915,59.474 133.352 C 59.231 133.525,58.980 133.667,58.917 133.667 C 58.669 133.667,57.062 134.980,55.855 136.169 C 53.048 138.932,51.504 141.579,50.555 145.250 C 49.936 147.643,49.824 152.200,50.330 154.417 C 50.518 155.242,50.740 156.217,50.824 156.583 C 51.652 160.223,55.802 165.496,59.349 167.417 C 61.660 168.668,63.749 169.488,65.153 169.695 C 65.756 169.784,66.700 169.925,67.250 170.009 C 69.263 170.313,331.409 170.207,333.553 169.900 C 336.119 169.533,338.042 168.861,340.750 167.385 C 344.191 165.510,349.305 158.906,349.331 156.305 C 349.332 156.152,349.480 155.402,349.660 154.638 C 350.547 150.861,350.108 146.013,348.555 142.445 C 347.912 140.966,346.230 138.167,345.985 138.167 C 345.902 138.167,345.833 138.068,345.833 137.947 C 345.833 137.827,345.590 137.504,345.292 137.229 C 344.994 136.955,344.637 136.603,344.500 136.446 C 343.764 135.609,342.905 134.833,342.716 134.833 C 342.597 134.833,342.500 134.777,342.500 134.708 C 342.500 134.640,342.106 134.327,341.625 134.014 C 341.144 133.701,340.563 133.319,340.333 133.166 C 339.736 132.767,337.048 131.634,336.345 131.485 C 336.018 131.416,335.037 131.204,334.167 131.015 L 332.583 130.671 199.917 130.681 C 67.815 130.690,67.244 130.692,65.750 131.024 M201.296 145.421 C 203.569 146.096,205.249 148.647,204.940 150.953 C 204.058 157.521,194.469 156.951,194.508 150.333 C 194.529 146.750,197.800 144.383,201.296 145.421 " stroke="none" fill="#f4b519" fill-rule="evenodd"></path><path id="path1" d="M224.544 18.620 C 224.797 18.658,225.172 18.657,225.377 18.617 C 225.582 18.578,225.375 18.546,224.917 18.548 C 224.458 18.549,224.291 18.581,224.544 18.620 M229.792 18.623 C 230.273 18.657,231.060 18.657,231.542 18.623 C 232.023 18.589,231.629 18.562,230.667 18.562 C 229.704 18.562,229.310 18.589,229.792 18.623 M65.583 178.915 C 60.021 180.148,55.402 183.422,52.648 188.083 C 49.072 194.135,49.174 204.012,52.861 208.814 C 53.029 209.033,53.167 209.285,53.167 209.375 C 53.167 209.854,56.757 213.583,58.105 214.504 C 60.737 216.303,64.014 217.579,66.661 217.837 C 68.744 218.040,331.175 218.042,333.333 217.839 C 338.654 217.340,344.252 213.684,347.281 208.731 C 350.398 203.635,351.004 195.708,348.662 190.690 C 348.389 190.106,348.167 189.562,348.167 189.479 C 348.167 189.311,346.659 186.868,346.209 186.307 C 345.605 185.556,344.561 184.423,343.917 183.823 C 342.817 182.797,341.882 182.000,341.780 182.000 C 341.727 182.000,341.361 181.785,340.967 181.523 C 339.390 180.474,336.364 179.275,334.200 178.843 C 332.753 178.554,66.890 178.625,65.583 178.915 M202.014 193.472 C 207.088 195.943,205.309 203.667,199.667 203.667 C 193.576 203.667,192.346 195.036,198.167 193.148 C 198.975 192.886,201.194 193.073,202.014 193.472 M168.857 312.502 C 165.355 312.992,163.252 314.232,162.184 316.437 C 161.232 318.403,161.167 318.852,161.167 323.447 L 161.167 327.667 159.500 327.667 L 157.833 327.667 157.833 330.583 L 157.833 333.500 159.500 333.500 L 161.167 333.500 161.167 343.250 L 161.167 353.000 164.917 353.000 L 168.667 353.000 168.667 343.250 L 168.667 333.500 171.000 333.500 L 173.333 333.500 173.333 330.583 L 173.333 327.667 171.000 327.667 L 168.667 327.667 168.667 324.574 C 168.667 320.414,168.973 319.294,170.258 318.758 C 171.495 318.241,172.222 318.270,174.296 318.922 L 174.674 319.041 174.629 315.990 L 174.583 312.938 173.750 312.723 C 172.626 312.432,170.156 312.320,168.857 312.502 M147.585 313.267 C 144.678 314.331,144.018 318.438,146.401 320.635 C 149.298 323.305,153.969 320.912,153.615 316.939 C 153.567 316.401,153.447 315.880,153.347 315.781 C 153.248 315.681,153.167 315.481,153.167 315.335 C 153.167 313.859,149.589 312.533,147.585 313.267 M72.887 328.708 C 72.965 344.180,72.914 343.571,74.384 346.842 C 75.111 348.460,77.704 351.500,78.357 351.500 C 78.424 351.500,78.839 351.720,79.281 351.989 C 83.832 354.760,94.730 354.691,99.299 351.862 C 102.415 349.933,104.103 347.435,105.033 343.377 C 105.399 341.778,105.407 341.524,105.460 328.458 L 105.515 315.167 101.341 315.167 L 97.167 315.167 97.161 327.125 C 97.155 341.610,97.121 341.917,95.317 344.162 C 92.620 347.518,85.902 347.566,82.984 344.250 C 81.079 342.085,81.012 341.476,81.005 326.375 L 81.000 315.167 76.909 315.167 L 72.819 315.167 72.887 328.708 M314.833 326.828 C 306.860 327.665,303.708 336.812,310.083 340.611 C 311.003 341.159,313.857 342.500,314.104 342.500 C 314.190 342.500,314.883 342.762,315.643 343.083 C 316.404 343.404,317.104 343.667,317.200 343.667 C 318.141 343.667,319.998 345.493,319.999 346.420 C 320.003 349.424,312.744 349.219,312.088 346.197 C 311.927 345.454,311.714 345.412,310.742 345.931 C 310.288 346.173,309.035 346.822,307.958 347.373 C 305.772 348.492,305.849 348.388,306.409 349.464 C 307.406 351.379,309.240 352.690,312.250 353.637 C 313.495 354.028,319.189 354.023,320.620 353.629 C 324.876 352.456,327.167 349.719,327.167 345.806 C 327.167 342.193,324.524 339.173,320.484 338.169 C 315.509 336.932,312.917 334.816,314.245 333.075 C 315.710 331.155,321.167 332.144,321.167 334.330 C 321.167 334.881,321.631 334.744,324.310 333.407 C 327.024 332.051,327.081 331.991,326.506 331.048 C 324.453 327.681,320.460 326.237,314.833 326.828 M126.417 327.069 C 124.503 327.546,121.307 329.649,120.442 331.000 C 120.189 331.396,120.175 331.324,120.171 329.538 L 120.167 327.660 116.458 327.705 L 112.750 327.750 112.750 340.333 L 112.750 352.917 116.525 352.961 L 120.300 353.006 120.358 345.279 L 120.417 337.552 121.059 336.287 C 123.230 332.010,129.285 331.765,130.607 335.900 C 130.838 336.622,130.891 337.978,130.958 344.875 L 131.038 353.000 134.810 353.000 L 138.583 353.000 138.550 343.503 C 138.514 333.026,138.492 332.781,137.444 330.779 C 135.802 327.643,130.830 325.970,126.417 327.069 M186.833 326.993 C 173.875 329.385,171.836 347.751,183.959 352.894 C 186.210 353.849,186.627 353.917,190.167 353.908 C 193.639 353.899,193.478 353.928,196.333 352.819 C 198.604 351.936,201.824 348.886,202.757 346.732 C 203.650 344.671,203.856 343.966,204.019 342.417 C 204.552 337.340,203.246 333.511,199.909 330.369 C 199.206 329.708,198.571 329.167,198.497 329.167 C 198.423 329.167,197.964 328.904,197.477 328.583 C 196.990 328.262,196.473 328.000,196.329 328.000 C 196.185 328.000,195.995 327.932,195.908 327.849 C 195.125 327.101,189.249 326.547,186.833 326.993 M222.253 327.111 C 221.796 327.251,221.222 327.509,220.977 327.683 C 220.732 327.857,220.477 328.000,220.410 328.000 C 219.851 328.000,218.220 329.993,217.342 331.750 L 216.676 333.083 216.776 330.375 L 216.876 327.667 213.188 327.667 L 209.500 327.667 209.500 340.333 L 209.500 353.000 213.250 353.000 L 217.000 353.000 217.000 346.576 C 217.000 337.396,217.409 335.985,220.386 334.888 C 221.189 334.591,224.805 334.612,225.672 334.918 C 226.595 335.244,226.488 335.490,227.111 331.618 C 227.816 327.228,227.818 327.072,227.146 326.938 C 226.161 326.740,223.108 326.849,222.253 327.111 M243.738 327.083 C 242.072 327.533,240.230 328.784,238.912 330.360 L 238.250 331.152 238.203 329.409 L 238.155 327.667 234.411 327.667 L 230.667 327.667 230.667 340.333 L 230.667 353.000 234.406 353.000 L 238.144 353.000 238.214 345.792 C 238.288 338.015,238.382 337.106,239.290 335.393 C 240.668 332.791,244.752 332.182,246.250 334.356 C 247.112 335.608,247.322 338.058,247.329 346.958 L 247.333 353.000 251.072 353.000 L 254.812 353.000 254.877 345.625 C 254.947 337.804,254.966 337.599,255.815 335.629 C 256.747 333.469,259.352 332.437,261.725 333.288 C 263.833 334.044,264.008 334.916,264.116 345.208 L 264.197 353.000 267.932 353.000 L 271.667 353.000 271.659 344.375 C 271.650 333.745,271.586 332.804,270.750 331.022 C 269.317 327.968,266.942 326.742,262.680 326.859 L 260.551 326.917 258.964 327.705 C 257.419 328.472,255.387 330.169,254.661 331.297 C 254.420 331.673,254.410 331.665,253.930 330.714 C 252.322 327.526,247.916 325.956,243.738 327.083 M286.687 327.087 C 282.015 328.391,278.044 332.364,277.321 336.458 C 277.236 336.940,277.092 337.765,277.001 338.292 C 276.112 343.435,278.161 349.023,281.917 351.700 C 286.423 354.911,294.472 354.809,298.667 351.487 C 300.396 350.118,302.542 347.544,302.159 347.297 C 302.118 347.270,300.757 346.576,299.137 345.753 L 296.190 344.258 295.811 344.754 C 294.435 346.551,293.304 347.160,291.121 347.279 C 287.189 347.494,285.258 346.197,284.437 342.792 L 284.327 342.333 293.723 342.333 L 303.118 342.333 303.211 341.208 C 303.656 335.829,301.660 331.269,297.750 328.728 C 296.737 328.070,296.379 327.907,294.583 327.292 C 293.237 326.830,288.087 326.697,286.687 327.087 M145.500 340.333 L 145.500 353.000 149.292 353.000 L 153.083 353.000 153.083 340.333 L 153.083 327.667 149.292 327.667 L 145.500 327.667 145.500 340.333 M292.020 333.278 C 293.674 333.677,295.054 334.959,295.398 336.417 C 295.463 336.692,295.555 337.048,295.602 337.208 C 295.684 337.482,295.349 337.500,290.178 337.500 C 285.879 337.500,284.667 337.454,284.669 337.292 C 284.702 334.425,288.403 332.405,292.020 333.278 M192.770 334.306 C 195.607 335.556,196.905 338.375,196.276 341.924 C 195.216 347.911,186.948 349.033,184.242 343.556 L 183.640 342.338 183.698 340.211 C 183.839 335.066,188.140 332.266,192.770 334.306 " stroke="none" fill="#64142c" fill-rule="evenodd"></path><path id="path2" d="M150.722 17.571 C 144.308 19.044,148.383 25.664,157.583 28.715 C 164.402 30.976,176.578 33.090,188.000 33.995 C 192.028 34.315,197.244 34.865,197.483 34.996 C 197.652 35.089,197.514 35.239,196.983 35.544 C 196.372 35.894,193.439 37.556,190.583 39.170 C 190.217 39.378,188.979 40.072,187.833 40.714 C 185.976 41.754,184.790 42.421,182.583 43.664 C 182.217 43.871,180.792 44.678,179.417 45.458 C 178.042 46.238,175.979 47.403,174.833 48.047 C 173.688 48.690,171.925 49.684,170.917 50.254 C 168.390 51.684,165.650 53.227,163.083 54.665 C 161.892 55.332,160.429 56.159,159.833 56.501 C 158.921 57.025,155.179 59.137,152.747 60.501 C 152.382 60.706,150.996 61.491,149.667 62.245 C 145.956 64.353,145.199 64.754,145.110 64.665 C 145.016 64.571,144.744 60.011,144.498 54.417 C 144.304 49.973,143.362 36.806,143.229 36.673 C 143.179 36.624,136.650 36.535,128.720 36.475 C 113.074 36.357,114.445 36.304,111.224 37.153 C 110.935 37.229,110.266 37.526,109.736 37.812 C 109.207 38.099,108.707 38.333,108.625 38.333 C 108.544 38.333,108.150 38.558,107.750 38.833 C 107.350 39.108,106.972 39.333,106.908 39.333 C 106.777 39.333,103.552 41.647,102.667 42.376 C 100.570 44.102,99.682 44.849,99.329 45.184 C 99.174 45.332,98.231 46.187,97.232 47.086 C 96.234 47.985,94.929 49.187,94.333 49.757 C 93.737 50.328,92.505 51.497,91.594 52.356 C 90.683 53.214,89.629 54.217,89.251 54.583 C 88.873 54.950,88.018 55.737,87.350 56.333 C 86.682 56.929,85.858 57.679,85.520 58.000 C 85.181 58.321,83.857 59.555,82.577 60.743 C 79.607 63.500,68.127 74.965,65.737 77.562 C 64.736 78.650,63.795 79.662,63.646 79.812 C 63.497 79.961,62.795 80.751,62.088 81.566 C 61.380 82.381,60.677 83.183,60.526 83.347 C 60.374 83.511,59.725 84.278,59.083 85.050 C 58.442 85.822,57.673 86.624,57.375 86.832 C 54.593 88.772,51.660 93.161,50.661 96.877 C 50.483 97.540,50.235 98.458,50.111 98.917 C 49.761 100.206,49.997 105.440,50.494 107.417 C 52.529 115.515,58.919 121.110,67.329 122.157 C 69.315 122.405,330.685 122.405,332.671 122.157 C 334.563 121.922,337.186 121.234,338.433 120.646 C 338.992 120.382,339.496 120.167,339.553 120.167 C 339.925 120.167,343.015 117.950,344.097 116.906 C 348.524 112.635,350.586 106.867,350.012 100.361 C 349.725 97.111,348.526 93.506,347.225 91.987 C 347.101 91.842,347.000 91.671,347.000 91.607 C 347.000 91.399,345.032 88.989,343.709 87.576 C 342.998 86.818,341.967 85.689,341.417 85.069 C 338.922 82.254,331.766 75.021,326.756 70.250 C 325.216 68.783,323.448 67.096,322.826 66.500 C 322.205 65.904,321.106 64.854,320.384 64.167 C 315.575 59.589,311.918 56.018,308.583 52.647 C 301.494 45.481,299.011 43.147,296.633 41.417 C 295.321 40.462,293.666 39.333,293.578 39.333 C 293.523 39.333,293.239 39.158,292.947 38.944 C 290.633 37.243,286.047 36.005,284.128 36.563 C 283.306 36.802,281.683 36.833,270.099 36.833 L 257.000 36.833 256.999 37.292 C 256.998 38.139,256.666 46.718,256.502 50.167 C 256.107 58.453,255.630 67.255,255.573 67.314 C 255.520 67.369,231.146 52.819,228.250 51.003 C 227.700 50.659,225.862 49.551,224.167 48.541 C 219.245 45.612,217.731 44.704,215.250 43.196 C 213.967 42.416,212.524 41.546,212.045 41.264 C 206.243 37.844,202.667 35.650,202.667 35.511 C 202.667 35.440,203.698 35.291,204.958 35.180 C 210.692 34.674,224.281 32.613,229.917 31.395 C 233.597 30.599,234.824 30.309,237.089 29.699 C 245.447 27.451,250.361 22.714,247.303 19.854 C 245.967 18.605,247.250 18.670,222.417 18.590 C 210.775 18.553,198.325 18.446,194.750 18.352 C 191.175 18.259,184.500 18.102,179.917 18.004 C 175.333 17.907,168.658 17.752,165.083 17.661 C 151.618 17.319,151.814 17.320,150.722 17.571 M201.569 43.509 C 205.134 44.843,206.228 49.338,203.684 52.199 C 201.147 55.052,196.523 54.375,194.813 50.900 C 192.691 46.591,197.053 41.819,201.569 43.509 M202.121 97.675 C 206.960 100.046,205.539 107.421,200.172 107.789 C 198.370 107.913,197.284 107.569,196.121 106.506 C 191.478 102.262,196.474 94.908,202.121 97.675 M31.083 235.438 C 27.537 235.822,26.078 236.035,25.083 236.317 C 22.250 237.118,21.700 237.302,20.881 237.721 C 20.402 237.966,19.938 238.167,19.848 238.167 C 19.643 238.167,17.706 239.362,16.500 240.233 C 9.416 245.349,7.855 255.134,13.042 261.905 C 13.710 262.778,16.014 265.000,16.250 265.000 C 16.313 265.000,16.670 265.262,17.045 265.583 C 17.420 265.904,17.793 266.167,17.874 266.167 C 17.956 266.167,18.261 266.347,18.553 266.567 C 19.940 267.613,26.290 270.890,28.917 271.916 C 30.574 272.563,33.791 274.130,34.613 274.691 C 34.997 274.953,35.364 275.167,35.430 275.167 C 36.099 275.167,39.254 278.200,39.845 279.411 C 40.909 281.591,40.210 284.374,38.134 286.229 C 32.548 291.220,21.279 289.323,17.806 282.808 C 17.521 282.272,17.230 281.833,17.160 281.833 C 16.912 281.833,9.249 289.870,9.196 290.186 C 9.002 291.346,12.860 294.987,16.175 296.773 C 23.977 300.974,40.120 300.414,46.264 295.728 C 46.549 295.511,46.849 295.331,46.932 295.329 C 47.493 295.311,51.223 291.580,51.920 290.341 C 52.396 289.493,53.546 287.068,53.769 286.440 C 54.625 284.036,54.700 278.473,53.907 276.250 C 53.583 275.341,52.628 273.427,52.255 272.937 C 52.023 272.634,51.833 272.312,51.833 272.223 C 51.833 271.350,46.297 266.686,43.447 265.157 C 40.760 263.716,36.388 261.667,36.001 261.667 C 35.113 261.667,28.899 258.688,27.927 257.796 C 27.749 257.633,27.537 257.500,27.456 257.500 C 27.129 257.500,24.985 255.098,24.659 254.366 C 23.806 252.447,24.375 249.778,25.955 248.297 C 30.544 243.994,39.467 244.999,43.167 250.235 C 43.725 251.024,43.660 251.036,44.931 249.917 C 45.243 249.642,45.780 249.180,46.124 248.891 C 47.158 248.021,51.037 244.686,51.724 244.075 L 52.365 243.505 51.867 242.877 C 47.631 237.544,39.273 234.552,31.083 235.438 M297.000 267.417 L 297.000 298.000 304.333 298.000 L 311.667 298.000 311.667 284.833 L 311.667 271.667 324.250 271.667 L 336.833 271.667 336.833 266.000 L 336.833 260.333 324.250 260.333 L 311.667 260.333 311.667 254.167 L 311.667 248.000 324.250 248.000 L 336.833 248.000 336.833 242.417 L 336.833 236.833 316.917 236.833 L 297.000 236.833 297.000 267.417 M182.000 250.083 L 182.000 256.833 178.917 256.833 L 175.833 256.833 175.833 261.583 L 175.833 266.333 178.917 266.333 L 182.000 266.333 182.000 282.167 L 182.000 298.000 188.750 298.000 L 195.500 298.000 195.500 282.167 L 195.500 266.333 198.583 266.333 L 201.667 266.333 201.667 261.583 L 201.667 256.833 198.583 256.833 L 195.500 256.833 195.500 250.083 L 195.500 243.333 188.750 243.333 L 182.000 243.333 182.000 250.083 M80.333 255.603 C 80.012 255.642,79.262 255.750,78.667 255.844 C 78.071 255.938,77.171 256.078,76.667 256.156 C 74.931 256.424,70.783 258.293,69.952 259.181 C 69.788 259.357,69.600 259.500,69.535 259.501 C 69.336 259.502,67.009 261.796,66.408 262.584 C 59.831 271.199,60.648 286.673,68.068 294.020 C 69.839 295.773,72.356 297.667,72.917 297.667 C 72.991 297.667,73.471 297.867,73.984 298.111 C 74.497 298.355,75.179 298.609,75.500 298.675 C 75.821 298.742,76.533 298.915,77.083 299.061 C 82.167 300.412,89.337 299.429,93.141 296.860 C 93.966 296.303,96.833 293.668,96.833 293.466 C 96.833 293.393,96.986 293.181,97.172 292.995 L 97.511 292.656 97.396 295.328 L 97.282 298.000 103.808 298.000 L 110.333 298.000 110.333 277.417 L 110.333 256.833 104.000 256.833 L 97.667 256.833 97.667 260.026 L 97.667 263.219 97.250 262.734 C 97.021 262.468,96.834 262.183,96.834 262.101 C 96.833 261.861,93.485 258.646,93.013 258.432 C 92.777 258.325,92.285 258.052,91.920 257.827 C 91.555 257.601,91.059 257.342,90.818 257.250 C 90.576 257.158,89.862 256.884,89.231 256.640 C 87.172 255.845,82.656 255.318,80.333 255.603 M149.667 255.607 C 143.774 256.389,139.655 258.437,135.965 262.417 L 135.347 263.083 135.340 259.958 L 135.333 256.833 128.833 256.833 L 122.333 256.833 122.333 277.417 L 122.333 298.000 128.990 298.000 L 135.646 298.000 135.706 286.375 C 135.782 271.750,135.847 271.361,138.697 268.543 C 143.077 264.213,151.305 264.320,153.535 268.736 C 154.783 271.208,154.855 272.091,154.950 286.125 L 155.030 298.000 161.692 298.000 L 168.354 298.000 168.286 283.042 C 168.210 266.423,168.204 266.329,167.108 263.609 C 166.786 262.811,166.330 261.930,166.095 261.650 C 165.859 261.370,165.667 261.087,165.667 261.020 C 165.667 260.795,163.420 258.684,162.556 258.098 C 159.994 256.360,153.478 255.101,149.667 255.607 M224.369 255.661 C 223.701 255.738,222.951 255.852,222.702 255.916 C 222.454 255.980,221.838 256.092,221.333 256.165 C 215.382 257.024,209.982 262.184,207.726 269.167 C 205.871 274.913,206.574 284.647,209.172 289.167 C 209.410 289.579,209.650 290.040,209.707 290.191 C 210.248 291.633,214.788 296.500,215.591 296.500 C 215.661 296.500,215.962 296.686,216.260 296.913 C 216.877 297.383,219.704 298.665,220.132 298.669 C 220.289 298.670,220.736 298.783,221.126 298.918 C 225.440 300.422,233.650 299.534,237.232 297.177 C 237.589 296.942,238.035 296.661,238.223 296.552 C 238.638 296.311,240.872 294.136,241.630 293.234 L 242.176 292.583 242.064 295.292 L 241.951 298.000 248.392 298.000 L 254.833 298.000 254.833 277.417 L 254.833 256.833 248.587 256.833 L 242.341 256.833 242.295 260.019 L 242.250 263.205 241.720 262.466 C 238.090 257.409,231.538 254.840,224.369 255.661 M365.333 255.596 C 360.303 256.178,356.092 257.469,353.886 259.106 C 353.594 259.323,353.309 259.500,353.252 259.500 C 353.195 259.500,352.609 259.927,351.949 260.449 C 348.285 263.349,345.894 266.728,344.661 270.750 C 343.786 273.602,343.750 273.884,343.750 277.833 C 343.750 281.806,343.716 281.552,344.751 285.333 C 345.057 286.449,346.516 289.501,346.893 289.814 C 347.044 289.939,347.167 290.112,347.167 290.200 C 347.167 290.779,350.653 294.397,352.287 295.514 C 354.415 296.969,357.594 298.346,359.917 298.818 C 360.467 298.929,361.517 299.142,362.250 299.291 C 364.136 299.673,370.697 299.673,372.583 299.291 C 373.317 299.142,374.367 298.929,374.917 298.818 C 377.949 298.201,381.559 296.442,384.351 294.219 C 385.741 293.113,388.244 290.303,388.818 289.204 C 389.041 288.777,389.125 288.821,382.833 285.996 C 381.962 285.604,380.762 285.045,380.167 284.752 C 378.544 283.954,378.243 283.912,377.884 284.432 C 373.994 290.050,363.184 290.676,359.099 285.520 C 358.358 284.584,357.258 282.206,357.105 281.208 L 356.996 280.500 373.899 280.500 L 390.802 280.500 390.922 278.896 C 391.115 276.327,390.796 273.368,389.981 270.167 C 389.543 268.444,387.890 265.058,386.885 263.824 C 384.321 260.673,381.256 258.383,378.167 257.307 C 375.675 256.440,375.100 256.289,373.167 255.991 C 371.182 255.684,366.576 255.453,365.333 255.596 M371.051 265.984 C 374.461 266.837,376.785 269.218,377.449 272.537 L 377.542 273.000 367.445 273.000 L 357.349 273.000 357.569 272.292 C 358.800 268.325,361.207 266.398,365.917 265.611 C 366.873 265.451,369.758 265.661,371.051 265.984 M90.076 266.067 C 99.645 268.145,101.069 283.847,92.056 287.895 C 88.502 289.491,82.780 289.072,80.007 287.012 C 79.690 286.776,79.349 286.546,79.251 286.500 C 79.009 286.388,77.667 284.911,77.667 284.758 C 77.667 284.691,77.520 284.449,77.340 284.221 C 75.105 281.380,75.009 273.732,77.171 270.794 C 77.355 270.543,77.578 270.150,77.666 269.919 C 77.753 269.689,77.892 269.500,77.974 269.500 C 78.057 269.500,78.302 269.238,78.520 268.918 C 78.738 268.598,78.997 268.335,79.096 268.334 C 79.195 268.334,79.453 268.144,79.671 267.912 C 81.340 266.135,86.322 265.252,90.076 266.067 M234.716 266.065 C 238.615 266.898,241.850 270.528,242.363 274.646 C 243.601 284.597,238.453 289.923,228.801 288.679 C 222.776 287.901,219.095 281.612,220.498 274.491 C 221.065 271.615,222.084 269.790,224.173 267.913 C 225.180 267.008,227.467 266.156,229.917 265.772 C 230.756 265.641,233.517 265.810,234.716 266.065 M153.079 340.333 C 153.079 347.254,153.100 350.085,153.125 346.625 C 153.150 343.165,153.150 337.502,153.125 334.042 C 153.100 330.581,153.079 333.412,153.079 340.333 M138.577 344.750 C 138.577 349.242,138.599 351.055,138.625 348.780 C 138.651 346.505,138.651 342.830,138.625 340.613 C 138.599 338.397,138.577 340.258,138.577 344.750 M247.242 346.667 C 247.242 350.196,247.264 351.640,247.291 349.875 C 247.318 348.110,247.318 345.223,247.291 343.458 C 247.264 341.694,247.242 343.137,247.242 346.667 " stroke="none" fill="#0c244c" fill-rule="evenodd"></path><path id="path3" d="M152.792 17.287 C 153.090 17.324,153.577 17.324,153.875 17.287 C 154.173 17.250,153.929 17.220,153.333 17.220 C 152.737 17.220,152.494 17.250,152.792 17.287 M157.208 17.457 C 157.827 17.489,158.840 17.489,159.458 17.457 C 160.077 17.425,159.571 17.399,158.333 17.399 C 157.096 17.399,156.590 17.425,157.208 17.457 M162.792 17.624 C 163.548 17.655,164.785 17.655,165.542 17.624 C 166.298 17.593,165.679 17.568,164.167 17.568 C 162.654 17.568,162.035 17.593,162.792 17.624 M169.050 17.791 C 169.856 17.821,171.131 17.821,171.883 17.791 C 172.635 17.760,171.975 17.735,170.417 17.735 C 168.858 17.735,168.243 17.760,169.050 17.791 M177.708 17.956 C 178.144 17.990,178.856 17.990,179.292 17.956 C 179.727 17.922,179.371 17.893,178.500 17.893 C 177.629 17.893,177.273 17.922,177.708 17.956 M184.631 18.123 C 185.115 18.157,185.865 18.156,186.297 18.122 C 186.730 18.088,186.333 18.060,185.417 18.061 C 184.500 18.061,184.146 18.089,184.631 18.123 M192.201 18.290 C 192.816 18.322,193.866 18.322,194.534 18.291 C 195.203 18.259,194.700 18.233,193.417 18.232 C 192.133 18.232,191.586 18.258,192.201 18.290 M200.801 18.458 C 201.745 18.488,203.245 18.487,204.134 18.457 C 205.023 18.428,204.250 18.403,202.417 18.403 C 200.583 18.404,199.856 18.428,200.801 18.458 M213.125 18.625 C 215.165 18.651,218.502 18.651,220.542 18.625 C 222.581 18.598,220.912 18.577,216.833 18.577 C 212.754 18.577,211.085 18.598,213.125 18.625 M234.542 18.625 C 235.802 18.653,237.865 18.653,239.125 18.625 C 240.385 18.596,239.354 18.573,236.833 18.573 C 234.313 18.573,233.281 18.596,234.542 18.625 M243.292 18.618 C 243.498 18.657,243.835 18.657,244.042 18.618 C 244.248 18.578,244.079 18.545,243.667 18.545 C 243.254 18.545,243.085 18.578,243.292 18.618 M147.833 21.730 C 147.833 21.909,148.329 22.833,148.425 22.833 C 148.471 22.833,148.385 22.590,148.233 22.292 C 147.924 21.683,147.833 21.556,147.833 21.730 M149.750 24.500 C 150.201 24.958,150.608 25.333,150.654 25.333 C 150.700 25.333,150.368 24.958,149.917 24.500 C 149.465 24.042,149.058 23.667,149.013 23.667 C 148.967 23.667,149.299 24.042,149.750 24.500 M246.242 25.208 L 245.583 25.917 246.292 25.258 C 246.681 24.895,247.000 24.577,247.000 24.550 C 247.000 24.423,246.855 24.550,246.242 25.208 M243.125 27.429 C 242.502 27.767,242.540 27.907,243.167 27.583 C 243.442 27.441,243.667 27.289,243.667 27.246 C 243.667 27.138,243.649 27.145,243.125 27.429 M160.250 29.667 C 160.433 29.745,160.696 29.810,160.833 29.810 C 160.991 29.810,160.960 29.757,160.750 29.667 C 160.567 29.588,160.304 29.523,160.167 29.523 C 160.009 29.523,160.040 29.576,160.250 29.667 M177.375 32.948 C 177.535 32.990,177.798 32.990,177.958 32.948 C 178.119 32.906,177.987 32.872,177.667 32.872 C 177.346 32.872,177.215 32.906,177.375 32.948 M178.708 33.115 C 178.869 33.157,179.131 33.157,179.292 33.115 C 179.452 33.073,179.321 33.039,179.000 33.039 C 178.679 33.039,178.548 33.073,178.708 33.115 M180.042 33.282 C 180.202 33.323,180.465 33.323,180.625 33.282 C 180.785 33.240,180.654 33.205,180.333 33.205 C 180.012 33.205,179.881 33.240,180.042 33.282 M186.294 33.951 C 186.501 33.991,186.801 33.990,186.960 33.948 C 187.120 33.906,186.950 33.874,186.583 33.875 C 186.217 33.877,186.086 33.911,186.294 33.951 M188.044 34.120 C 188.297 34.158,188.672 34.157,188.877 34.117 C 189.082 34.078,188.875 34.046,188.417 34.048 C 187.958 34.049,187.791 34.081,188.044 34.120 M213.875 34.115 C 214.035 34.157,214.298 34.157,214.458 34.115 C 214.619 34.073,214.487 34.039,214.167 34.039 C 213.846 34.039,213.715 34.073,213.875 34.115 M189.708 34.286 C 189.960 34.324,190.373 34.324,190.625 34.286 C 190.877 34.248,190.671 34.217,190.167 34.217 C 189.662 34.217,189.456 34.248,189.708 34.286 M212.708 34.282 C 212.869 34.323,213.131 34.323,213.292 34.282 C 213.452 34.240,213.321 34.205,213.000 34.205 C 212.679 34.205,212.548 34.240,212.708 34.282 M191.792 34.451 C 191.998 34.491,192.335 34.491,192.542 34.451 C 192.748 34.411,192.579 34.379,192.167 34.379 C 191.754 34.379,191.585 34.411,191.792 34.451 M193.708 34.615 C 193.869 34.657,194.131 34.657,194.292 34.615 C 194.452 34.573,194.321 34.539,194.000 34.539 C 193.679 34.539,193.548 34.573,193.708 34.615 M206.208 35.115 C 206.369 35.157,206.631 35.157,206.792 35.115 C 206.952 35.073,206.821 35.039,206.500 35.039 C 206.179 35.039,206.048 35.073,206.208 35.115 M204.458 35.284 C 204.665 35.324,205.002 35.324,205.208 35.284 C 205.415 35.245,205.246 35.212,204.833 35.212 C 204.421 35.212,204.252 35.245,204.458 35.284 M196.625 35.595 C 196.002 35.933,196.040 36.074,196.667 35.750 C 196.942 35.608,197.167 35.456,197.167 35.412 C 197.167 35.305,197.149 35.311,196.625 35.595 M202.667 35.490 C 202.667 35.576,202.753 35.701,202.859 35.766 C 202.974 35.837,203.006 35.812,202.939 35.703 C 202.869 35.590,203.033 35.496,203.372 35.454 C 203.912 35.387,203.911 35.386,203.292 35.360 C 202.948 35.345,202.667 35.404,202.667 35.490 M143.379 37.333 C 143.379 37.746,143.411 37.915,143.451 37.708 C 143.491 37.502,143.491 37.165,143.451 36.958 C 143.411 36.752,143.379 36.921,143.379 37.333 M192.792 37.762 C 192.169 38.100,192.207 38.241,192.833 37.917 C 193.108 37.774,193.333 37.623,193.333 37.579 C 193.333 37.472,193.315 37.478,192.792 37.762 M256.881 38.750 C 256.882 39.208,256.915 39.376,256.953 39.123 C 256.991 38.869,256.990 38.494,256.951 38.289 C 256.911 38.084,256.880 38.292,256.881 38.750 M143.553 39.333 C 143.553 39.929,143.584 40.173,143.621 39.875 C 143.658 39.577,143.658 39.090,143.621 38.792 C 143.584 38.494,143.553 38.737,143.553 39.333 M207.833 38.741 C 207.833 38.787,208.058 38.941,208.333 39.083 C 208.608 39.226,208.833 39.304,208.833 39.259 C 208.833 39.213,208.608 39.059,208.333 38.917 C 208.058 38.774,207.833 38.696,207.833 38.741 M188.958 39.929 C 188.335 40.267,188.373 40.407,189.000 40.083 C 189.275 39.941,189.500 39.789,189.500 39.746 C 189.500 39.638,189.482 39.645,188.958 39.929 M211.167 40.741 C 211.167 40.787,211.392 40.941,211.667 41.083 C 211.942 41.226,212.167 41.304,212.167 41.259 C 212.167 41.213,211.942 41.059,211.667 40.917 C 211.392 40.774,211.167 40.696,211.167 40.741 M143.717 41.833 C 143.717 42.337,143.748 42.544,143.786 42.292 C 143.824 42.040,143.824 41.627,143.786 41.375 C 143.748 41.123,143.717 41.329,143.717 41.833 M256.725 43.000 C 256.725 43.779,256.754 44.098,256.789 43.708 C 256.824 43.319,256.824 42.681,256.789 42.292 C 256.754 41.902,256.725 42.221,256.725 43.000 M185.125 42.095 C 184.502 42.433,184.540 42.574,185.167 42.250 C 185.442 42.108,185.667 41.956,185.667 41.912 C 185.667 41.805,185.649 41.811,185.125 42.095 M215.333 43.241 C 215.333 43.287,215.558 43.441,215.833 43.583 C 216.108 43.726,216.333 43.804,216.333 43.759 C 216.333 43.713,216.108 43.559,215.833 43.417 C 215.558 43.274,215.333 43.196,215.333 43.241 M143.881 44.083 C 143.882 44.542,143.915 44.709,143.953 44.456 C 143.991 44.203,143.990 43.828,143.951 43.623 C 143.911 43.418,143.880 43.625,143.881 44.083 M180.958 44.429 C 180.335 44.767,180.373 44.907,181.000 44.583 C 181.275 44.441,181.500 44.289,181.500 44.246 C 181.500 44.138,181.482 44.145,180.958 44.429 M195.824 44.792 L 195.250 45.417 195.875 44.842 C 196.219 44.526,196.500 44.245,196.500 44.217 C 196.500 44.090,196.359 44.210,195.824 44.792 M217.000 44.241 C 217.000 44.287,217.225 44.441,217.500 44.583 C 217.775 44.726,218.000 44.804,218.000 44.759 C 218.000 44.713,217.775 44.559,217.500 44.417 C 217.225 44.274,217.000 44.196,217.000 44.241 M256.561 46.917 C 256.561 47.833,256.589 48.187,256.623 47.703 C 256.657 47.218,256.656 46.468,256.622 46.036 C 256.588 45.604,256.560 46.000,256.561 46.917 M178.625 45.762 C 178.002 46.100,178.040 46.241,178.667 45.917 C 178.942 45.774,179.167 45.623,179.167 45.579 C 179.167 45.472,179.149 45.478,178.625 45.762 M144.045 46.500 C 144.045 46.913,144.078 47.081,144.118 46.875 C 144.157 46.669,144.157 46.331,144.118 46.125 C 144.078 45.919,144.045 46.087,144.045 46.500 M177.125 46.595 C 176.502 46.933,176.540 47.074,177.167 46.750 C 177.442 46.608,177.667 46.456,177.667 46.412 C 177.667 46.305,177.649 46.311,177.125 46.595 M174.792 47.929 C 174.169 48.267,174.207 48.407,174.833 48.083 C 175.108 47.941,175.333 47.789,175.333 47.746 C 175.333 47.638,175.315 47.645,174.792 47.929 M222.833 47.741 C 222.833 47.787,223.058 47.941,223.333 48.083 C 223.608 48.226,223.833 48.304,223.833 48.259 C 223.833 48.213,223.608 48.059,223.333 47.917 C 223.058 47.774,222.833 47.696,222.833 47.741 M144.205 49.000 C 144.205 49.321,144.240 49.452,144.282 49.292 C 144.323 49.131,144.323 48.869,144.282 48.708 C 144.240 48.548,144.205 48.679,144.205 49.000 M224.500 48.741 C 224.500 48.787,224.725 48.941,225.000 49.083 C 225.275 49.226,225.500 49.304,225.500 49.259 C 225.500 49.213,225.275 49.059,225.000 48.917 C 224.725 48.774,224.500 48.696,224.500 48.741 M256.393 50.500 C 256.393 51.371,256.422 51.727,256.456 51.292 C 256.490 50.856,256.490 50.144,256.456 49.708 C 256.422 49.273,256.393 49.629,256.393 50.500 M169.458 50.929 C 168.835 51.267,168.873 51.407,169.500 51.083 C 169.775 50.941,170.000 50.789,170.000 50.746 C 170.000 50.638,169.982 50.645,169.458 50.929 M144.379 51.667 C 144.379 52.079,144.411 52.248,144.451 52.042 C 144.491 51.835,144.491 51.498,144.451 51.292 C 144.411 51.085,144.379 51.254,144.379 51.667 M166.792 52.429 C 166.169 52.767,166.207 52.907,166.833 52.583 C 167.108 52.441,167.333 52.289,167.333 52.246 C 167.333 52.138,167.315 52.145,166.792 52.429 M230.333 52.241 C 230.333 52.287,230.558 52.441,230.833 52.583 C 231.108 52.726,231.333 52.804,231.333 52.759 C 231.333 52.713,231.108 52.559,230.833 52.417 C 230.558 52.274,230.333 52.196,230.333 52.241 M256.223 54.333 C 256.223 55.021,256.252 55.302,256.288 54.958 C 256.324 54.615,256.324 54.052,256.288 53.708 C 256.252 53.365,256.223 53.646,256.223 54.333 M144.558 55.167 C 144.558 55.946,144.587 56.265,144.622 55.875 C 144.657 55.485,144.657 54.848,144.622 54.458 C 144.587 54.069,144.558 54.387,144.558 55.167 M162.958 54.595 C 162.335 54.933,162.373 55.074,163.000 54.750 C 163.275 54.608,163.500 54.456,163.500 54.412 C 163.500 54.305,163.482 54.311,162.958 54.595 M159.125 56.762 C 158.502 57.100,158.540 57.241,159.167 56.917 C 159.442 56.774,159.667 56.623,159.667 56.579 C 159.667 56.472,159.649 56.478,159.125 56.762 M256.052 57.750 C 256.053 58.300,256.084 58.505,256.121 58.205 C 256.158 57.906,256.157 57.456,256.119 57.205 C 256.081 56.955,256.051 57.200,256.052 57.750 M144.725 58.333 C 144.725 59.112,144.754 59.431,144.789 59.042 C 144.824 58.652,144.824 58.015,144.789 57.625 C 144.754 57.235,144.725 57.554,144.725 58.333 M154.958 59.095 C 154.335 59.433,154.373 59.574,155.000 59.250 C 155.275 59.108,155.500 58.956,155.500 58.912 C 155.500 58.805,155.482 58.811,154.958 59.095 M255.883 61.000 C 255.883 61.504,255.915 61.710,255.953 61.458 C 255.991 61.206,255.991 60.794,255.953 60.542 C 255.915 60.290,255.883 60.496,255.883 61.000 M144.890 61.583 C 144.891 62.317,144.920 62.596,144.956 62.204 C 144.991 61.812,144.990 61.212,144.954 60.871 C 144.919 60.529,144.890 60.850,144.890 61.583 M151.125 61.262 C 150.502 61.600,150.540 61.741,151.167 61.417 C 151.442 61.274,151.667 61.123,151.667 61.079 C 151.667 60.972,151.649 60.978,151.125 61.262 M148.792 62.595 C 148.169 62.933,148.207 63.074,148.833 62.750 C 149.108 62.608,149.333 62.456,149.333 62.412 C 149.333 62.305,149.315 62.311,148.792 62.595 M147.292 63.429 C 146.669 63.767,146.707 63.907,147.333 63.583 C 147.608 63.441,147.833 63.289,147.833 63.246 C 147.833 63.138,147.815 63.145,147.292 63.429 M255.714 64.417 C 255.716 64.875,255.748 65.043,255.786 64.789 C 255.825 64.536,255.824 64.161,255.784 63.956 C 255.744 63.751,255.713 63.958,255.714 64.417 M199.292 97.118 C 199.498 97.157,199.835 97.157,200.042 97.118 C 200.248 97.078,200.079 97.045,199.667 97.045 C 199.254 97.045,199.085 97.078,199.292 97.118 " stroke="none" fill="#3f4447" fill-rule="evenodd"></path><path id="path4" d="M226.458 18.623 C 226.940 18.657,227.727 18.657,228.208 18.623 C 228.690 18.589,228.296 18.562,227.333 18.562 C 226.371 18.562,225.977 18.589,226.458 18.623 M198.453 43.339 C 194.396 44.357,192.982 49.505,195.956 52.430 C 199.305 55.724,205.000 53.302,205.000 48.583 C 205.000 45.153,201.713 42.520,198.453 43.339 M197.980 97.397 C 192.272 99.437,193.625 107.741,199.667 107.748 C 205.411 107.755,207.118 100.101,201.920 97.642 C 200.788 97.106,199.089 97.000,197.980 97.397 M197.887 145.489 C 193.157 147.192,193.399 154.015,198.238 155.421 C 202.938 156.786,206.792 151.460,204.027 147.422 C 202.713 145.503,200.118 144.686,197.887 145.489 M198.167 193.148 C 192.346 195.036,193.576 203.667,199.667 203.667 C 205.309 203.667,207.088 195.943,202.014 193.472 C 201.194 193.073,198.975 192.886,198.167 193.148 " stroke="none" fill="#ffffff" fill-rule="evenodd"></path></g></svg>