<svg id="svg" version="1.1" width="400" height="140.10889292196006" viewBox="0 0 400 140.10889292196006" xmlns="http://www.w3.org/2000/svg" xmlns:xlink="http://www.w3.org/1999/xlink" ><g id="svgg"><path id="path0" d="M167.167 87.830 C 162.209 89.250,161.167 91.094,161.167 98.452 L 161.167 102.667 159.500 102.667 L 157.833 102.667 157.833 105.667 L 157.833 108.667 159.500 108.667 L 161.167 108.667 161.167 118.333 L 161.167 128.000 164.917 128.000 L 168.667 128.000 168.667 118.333 L 168.667 108.667 171.000 108.667 L 173.333 108.667 173.333 105.667 L 173.333 102.667 171.000 102.667 L 168.667 102.667 168.667 99.675 C 168.667 96.515,168.841 95.201,169.356 94.471 C 170.014 93.540,172.440 93.114,173.617 93.724 C 174.695 94.283,174.679 94.326,174.629 90.969 L 174.583 87.938 173.750 87.722 C 172.445 87.384,168.498 87.449,167.167 87.830 M147.537 88.308 C 145.333 89.203,144.264 92.018,145.278 94.259 C 146.867 97.770,152.062 97.573,153.335 93.953 C 154.637 90.248,151.141 86.845,147.537 88.308 M72.834 103.042 C 72.834 114.968,72.858 116.059,73.155 117.850 C 74.561 126.322,81.193 129.986,93.036 128.834 C 94.836 128.659,97.744 127.779,99.000 127.031 C 99.412 126.785,99.839 126.546,99.948 126.500 C 100.777 126.151,103.374 123.299,103.657 122.426 C 103.719 122.238,103.969 121.669,104.213 121.162 C 105.354 118.795,105.385 118.352,105.453 103.542 L 105.515 90.167 101.341 90.167 L 97.167 90.167 97.159 102.042 C 97.150 116.627,97.109 117.004,95.271 119.167 C 92.382 122.565,85.930 122.574,82.919 119.184 C 81.150 117.191,81.019 115.939,81.008 100.958 L 81.000 90.167 76.917 90.167 L 72.833 90.167 72.834 103.042 M314.489 101.911 C 313.005 102.127,311.007 102.908,309.965 103.679 C 309.295 104.176,307.675 105.861,307.670 106.067 C 307.668 106.150,307.462 106.638,307.212 107.151 C 306.515 108.580,306.529 111.338,307.241 112.667 C 308.421 114.873,310.501 116.239,315.361 118.002 C 317.727 118.861,318.544 119.272,319.262 119.965 C 321.277 121.909,318.715 124.137,315.198 123.498 C 313.619 123.211,312.320 122.243,312.086 121.178 C 311.898 120.323,311.511 120.395,309.284 121.699 C 308.845 121.956,308.422 122.167,308.343 122.167 C 308.023 122.167,306.003 123.433,306.002 123.635 C 305.990 125.218,309.181 127.766,312.333 128.690 C 313.545 129.045,319.845 128.978,320.897 128.598 C 322.219 128.122,323.795 127.323,324.255 126.897 C 324.491 126.679,324.753 126.500,324.837 126.500 C 325.303 126.500,326.690 124.171,326.994 122.878 C 328.044 118.407,325.869 115.018,320.833 113.280 C 320.421 113.138,319.296 112.749,318.333 112.416 C 313.669 110.802,312.316 108.408,315.437 107.290 C 317.690 106.482,321.167 107.748,321.167 109.376 C 321.167 109.909,321.622 109.875,322.665 109.264 C 323.226 108.935,323.762 108.667,323.856 108.667 C 323.950 108.667,324.454 108.417,324.975 108.111 C 325.497 107.805,326.128 107.504,326.378 107.441 C 326.932 107.302,326.979 106.824,326.512 106.058 C 324.384 102.568,320.107 101.093,314.489 101.911 M126.814 102.012 C 125.003 102.278,123.026 103.410,121.125 105.269 L 120.167 106.207 120.167 104.437 L 120.167 102.667 116.417 102.667 L 112.667 102.667 112.667 115.333 L 112.667 128.000 116.482 128.000 L 120.298 128.000 120.361 120.292 L 120.424 112.583 120.882 111.667 C 121.589 110.253,121.702 110.096,122.522 109.386 C 124.654 107.541,128.594 107.591,129.903 109.481 C 130.846 110.841,130.867 111.053,130.958 119.875 L 131.041 128.000 134.867 128.000 L 138.693 128.000 138.618 118.458 C 138.541 108.678,138.499 108.045,137.839 106.596 C 137.653 106.186,137.500 105.783,137.500 105.700 C 137.500 105.237,135.456 103.372,134.300 102.779 C 132.570 101.892,129.658 101.594,126.814 102.012 M187.167 101.995 C 182.856 102.546,178.285 106.144,176.809 110.146 C 175.783 112.930,175.519 116.913,176.224 119.000 C 177.241 122.013,177.959 123.262,179.685 125.027 C 180.658 126.022,182.898 127.667,183.279 127.667 C 183.366 127.667,183.733 127.809,184.094 127.983 C 186.828 129.303,194.099 129.315,195.917 128.002 C 196.008 127.936,196.323 127.801,196.616 127.703 C 198.886 126.940,201.814 123.918,203.073 121.039 C 203.974 118.980,204.058 118.499,204.058 115.417 C 204.058 113.641,203.979 112.303,203.847 111.833 C 203.536 110.725,202.532 108.494,202.070 107.886 C 201.848 107.594,201.665 107.294,201.663 107.219 C 201.660 107.087,200.501 105.854,199.556 104.978 C 198.918 104.387,197.265 103.349,196.613 103.130 C 196.322 103.032,196.008 102.895,195.917 102.827 C 194.951 102.102,190.004 101.632,187.167 101.995 M222.750 101.985 C 220.640 102.334,218.687 104.055,217.344 106.750 L 216.679 108.083 216.779 105.375 L 216.880 102.667 213.190 102.667 L 209.500 102.667 209.500 115.333 L 209.500 128.000 213.250 128.000 L 217.000 128.000 217.000 121.601 C 217.000 112.883,217.258 111.758,219.576 110.353 C 220.651 109.701,223.232 109.450,225.000 109.824 C 226.718 110.188,226.503 110.501,227.107 106.750 C 227.402 104.917,227.649 103.109,227.655 102.732 L 227.667 102.048 226.542 101.942 C 225.203 101.816,223.671 101.833,222.750 101.985 M244.104 101.997 C 242.455 102.298,240.177 103.770,238.819 105.413 L 238.167 106.203 238.167 104.435 L 238.167 102.667 234.417 102.667 L 230.667 102.667 230.667 115.333 L 230.667 128.000 234.404 128.000 L 238.142 128.000 238.215 120.792 C 238.303 112.141,238.410 111.447,239.948 109.560 C 241.482 107.678,244.786 107.567,246.206 109.350 C 247.040 110.396,247.165 111.846,247.166 120.458 L 247.167 128.000 251.000 128.000 L 254.833 128.000 254.833 121.265 C 254.833 112.989,255.094 111.230,256.587 109.444 C 258.160 107.563,261.746 107.522,263.071 109.371 C 263.919 110.555,264.018 111.576,264.114 120.208 L 264.202 128.000 267.949 128.000 L 271.697 128.000 271.634 117.958 L 271.570 107.917 271.023 106.542 C 270.458 105.121,269.286 103.604,268.360 103.092 C 263.743 100.544,257.414 102.002,254.737 106.231 L 254.432 106.711 254.128 106.064 C 252.764 103.167,250.856 102.022,247.220 101.916 C 245.953 101.879,244.551 101.915,244.104 101.997 M287.417 101.992 C 279.247 103.112,274.344 113.363,277.965 121.750 C 279.450 125.190,282.228 127.587,286.000 128.686 C 288.310 129.358,294.792 128.866,296.286 127.904 C 296.489 127.774,296.742 127.667,296.848 127.667 C 297.820 127.667,302.197 123.351,302.159 122.430 C 302.155 122.331,300.811 121.576,299.172 120.753 L 296.192 119.256 295.812 119.753 C 294.277 121.757,293.206 122.244,290.327 122.247 L 288.070 122.250 287.127 121.678 C 285.851 120.905,284.333 118.574,284.333 117.388 C 284.333 117.358,288.560 117.333,293.726 117.333 L 303.119 117.333 303.220 116.208 C 303.610 111.890,302.209 107.661,299.557 105.153 C 298.603 104.251,297.089 103.167,296.783 103.167 C 296.664 103.167,296.495 103.097,296.408 103.011 C 295.558 102.177,290.364 101.588,287.417 101.992 M145.500 115.333 L 145.500 128.000 149.333 128.000 L 153.167 128.000 153.167 115.333 L 153.167 102.667 149.333 102.667 L 145.500 102.667 145.500 115.333 M292.704 108.512 C 294.163 109.084,295.055 110.129,295.431 111.708 L 295.619 112.500 290.143 112.500 C 287.131 112.500,284.667 112.452,284.667 112.394 C 284.667 109.283,289.146 107.119,292.704 108.512 M191.163 108.833 C 198.392 110.204,198.183 121.000,190.909 121.988 C 184.691 122.831,181.084 115.310,185.413 110.527 C 186.639 109.173,189.112 108.444,191.163 108.833 " stroke="none" fill="#640c24" fill-rule="evenodd"></path><path id="path1" d="M30.556 10.488 C 17.271 11.768,9.400 18.885,10.084 29.000 C 10.248 31.427,11.259 34.654,12.158 35.619 C 12.324 35.797,12.505 36.087,12.561 36.263 C 12.892 37.301,19.114 42.500,20.025 42.500 C 20.094 42.500,20.472 42.712,20.867 42.972 C 21.924 43.667,28.744 47.000,29.111 47.000 C 29.203 47.000,29.818 47.262,30.477 47.583 C 31.136 47.904,31.709 48.167,31.750 48.167 C 31.836 48.167,34.737 49.750,35.567 50.250 C 41.175 53.628,41.923 58.513,37.358 61.961 C 35.332 63.491,33.606 63.917,29.500 63.903 L 26.083 63.891 24.583 63.331 C 21.473 62.171,18.832 59.993,17.624 57.590 L 17.209 56.764 15.804 58.174 C 11.660 62.331,9.167 65.013,9.167 65.315 C 9.167 65.754,10.861 67.868,12.096 68.968 C 14.869 71.441,19.324 73.528,22.833 73.997 C 23.429 74.076,24.517 74.238,25.250 74.356 C 31.946 75.432,41.004 73.951,45.942 70.974 C 47.934 69.773,51.789 66.150,51.826 65.443 C 51.830 65.366,51.977 65.119,52.153 64.896 C 54.586 61.803,55.217 54.190,53.381 50.083 C 51.982 46.953,48.360 43.011,45.493 41.499 C 45.268 41.381,45.046 41.230,45.000 41.166 C 44.661 40.686,38.702 37.736,36.333 36.874 C 35.462 36.557,34.372 36.161,33.911 35.993 C 33.449 35.826,32.689 35.496,32.220 35.261 C 31.752 35.026,31.315 34.833,31.251 34.833 C 30.886 34.833,27.108 32.368,26.333 31.624 C 24.940 30.286,24.178 28.853,24.171 27.557 C 24.127 19.847,38.137 18.041,43.027 25.125 C 43.625 25.991,43.746 25.997,44.632 25.208 C 45.018 24.865,45.615 24.347,45.959 24.059 C 48.232 22.148,52.258 18.623,52.300 18.507 C 52.479 18.005,48.184 14.334,46.000 13.122 C 42.217 11.023,36.005 9.963,30.556 10.488 M297.000 42.417 L 297.000 73.000 304.333 73.000 L 311.667 73.000 311.667 59.833 L 311.667 46.667 324.250 46.667 L 336.833 46.667 336.833 41.000 L 336.833 35.333 324.250 35.333 L 311.667 35.333 311.667 29.167 L 311.667 23.000 324.250 23.000 L 336.833 23.000 336.833 17.417 L 336.833 11.833 316.917 11.833 L 297.000 11.833 297.000 42.417 M182.000 25.081 L 182.000 31.833 178.914 31.833 L 175.828 31.833 175.872 36.625 L 175.917 41.417 178.958 41.462 L 182.000 41.508 182.000 57.254 L 182.000 73.000 188.750 73.000 L 195.500 73.000 195.500 57.254 L 195.500 41.508 198.542 41.462 L 201.583 41.417 201.628 36.625 L 201.672 31.833 198.588 31.833 L 195.504 31.833 195.460 25.125 L 195.417 18.417 188.708 18.373 L 182.000 18.330 182.000 25.081 M79.828 30.678 C 76.930 30.986,71.845 32.600,71.155 33.431 C 71.047 33.560,70.875 33.668,70.771 33.669 C 70.324 33.674,67.456 36.319,66.437 37.667 C 59.303 47.103,60.996 64.230,69.691 70.585 C 73.467 73.345,76.701 74.448,81.500 74.614 C 83.844 74.695,84.557 74.630,88.109 74.009 C 90.962 73.510,95.262 70.689,97.142 68.083 L 97.503 67.583 97.393 70.292 L 97.284 73.000 103.809 73.000 L 110.335 73.000 110.292 52.458 L 110.250 31.917 103.962 31.873 L 97.674 31.829 97.629 35.040 L 97.583 38.250 97.034 37.458 C 93.590 32.499,87.028 29.913,79.828 30.678 M149.207 30.684 C 144.457 31.236,140.412 33.218,136.554 36.882 L 135.333 38.042 135.333 34.938 L 135.333 31.833 128.833 31.833 L 122.333 31.833 122.333 52.417 L 122.333 73.000 128.988 73.000 L 135.643 73.000 135.712 61.208 C 135.797 46.636,135.850 46.325,138.700 43.566 C 143.220 39.190,151.550 39.335,153.612 43.825 C 154.804 46.421,154.858 47.117,154.950 61.125 L 155.028 73.000 161.691 73.000 L 168.354 73.000 168.288 58.125 C 168.207 39.830,168.174 39.548,165.652 36.147 C 162.552 31.966,156.234 29.867,149.207 30.684 M224.494 30.678 C 220.520 31.100,216.604 32.565,214.114 34.560 C 213.293 35.218,211.000 37.518,211.000 37.684 C 211.000 37.752,210.824 38.020,210.608 38.279 C 210.393 38.538,210.010 39.125,209.758 39.583 C 209.505 40.042,209.231 40.499,209.149 40.600 C 209.009 40.773,208.553 41.934,207.827 43.967 C 205.872 49.445,206.550 59.681,209.166 64.167 C 209.407 64.579,209.647 65.032,209.700 65.174 C 210.122 66.299,212.732 69.335,214.397 70.637 C 215.454 71.464,217.653 72.833,217.927 72.834 C 218.013 72.835,218.271 72.932,218.500 73.049 C 223.377 75.551,233.057 75.000,237.562 71.963 C 238.959 71.021,240.380 69.722,241.636 68.237 L 242.188 67.583 242.071 70.292 L 241.954 73.000 248.393 73.000 L 254.833 73.000 254.833 52.417 L 254.833 31.833 248.583 31.833 L 242.333 31.833 242.333 35.100 L 242.333 38.366 241.600 37.392 C 237.775 32.309,231.674 29.915,224.494 30.678 M364.833 30.670 C 360.419 31.107,356.440 32.442,353.250 34.557 C 349.491 37.050,345.717 41.792,344.835 45.132 C 344.746 45.472,344.474 46.462,344.233 47.333 C 342.817 52.433,344.077 61.022,346.769 64.614 C 346.988 64.906,347.168 65.206,347.170 65.281 C 347.181 65.785,350.962 69.613,352.441 70.617 C 360.412 76.027,374.710 75.996,382.556 70.552 C 385.021 68.841,387.914 65.913,388.804 64.226 C 389.019 63.819,389.343 64.014,385.667 62.336 C 384.429 61.772,383.117 61.168,382.750 60.995 C 382.383 60.821,381.224 60.296,380.174 59.827 L 378.264 58.975 377.939 59.446 C 377.347 60.303,375.397 62.078,374.651 62.438 C 371.835 63.799,370.253 64.098,366.667 63.947 C 361.623 63.734,357.709 60.605,357.093 56.292 L 356.980 55.500 373.890 55.500 L 390.801 55.500 390.914 53.792 C 391.138 50.416,390.327 45.399,389.152 42.885 C 388.885 42.314,388.667 41.799,388.667 41.739 C 388.667 41.680,388.442 41.298,388.167 40.891 C 387.892 40.483,387.667 40.106,387.667 40.052 C 387.667 39.430,384.255 35.885,382.432 34.614 C 378.091 31.586,371.197 30.041,364.833 30.670 M369.453 40.657 C 373.568 41.252,375.972 43.111,377.185 46.637 C 377.772 48.342,378.889 48.167,367.413 48.167 L 357.327 48.167 357.437 47.708 C 357.903 45.761,359.980 42.500,360.755 42.500 C 360.802 42.500,361.120 42.315,361.462 42.089 C 363.272 40.891,366.756 40.266,369.453 40.657 M90.558 41.231 C 91.369 41.459,92.324 41.837,92.680 42.072 C 93.035 42.307,93.386 42.500,93.459 42.500 C 93.747 42.500,95.821 44.806,96.382 45.750 C 98.542 49.388,98.520 56.036,96.336 59.272 C 96.059 59.682,95.833 60.072,95.833 60.140 C 95.833 60.695,93.218 62.529,91.476 63.195 C 90.139 63.706,89.966 63.730,87.149 63.796 L 84.215 63.865 82.649 63.329 C 72.714 59.926,73.152 43.815,83.250 41.197 C 85.772 40.544,88.140 40.555,90.558 41.231 M235.167 41.220 C 239.668 42.494,242.243 46.070,242.447 51.333 C 242.659 56.757,241.543 59.690,238.381 62.026 C 235.076 64.468,228.374 64.520,224.699 62.131 C 218.331 57.994,218.770 45.808,225.417 42.179 C 228.167 40.678,231.940 40.307,235.167 41.220 " stroke="none" fill="#041c4c" fill-rule="evenodd"></path></g></svg>