<svg xmlns="http://www.w3.org/2000/svg" xmlns:xlink="http://www.w3.org/1999/xlink" version="1.1" width="252" height="216"><rect id="backgroundrect" width="100%" height="100%" x="0" y="0" fill="none" stroke="none"/><g class="currentLayer" style=""><title>Layer 1</title><g id="svgg" class=""><path id="path0" d="M102.63144317626953,0.19607604980468807 C76.92744317626952,1.9170760498046846 61.34844317626954,4.48807604980469 51.76044317626953,8.591076049804684 C48.39644317626953,10.031076049804689 14.259443176269528,30.576076049804684 3.3924431762695377,37.70107604980468 C-2.075556823730466,41.28607604980469 -2.30855682373047,40.614076049804694 13.141443176269533,65.79807604980469 C30.382443176269533,93.9030760498047 28.543443176269534,92.6000760498047 40.52944317626954,85.2090760498047 C43.589443176269526,83.32207604980469 46.22944317626953,81.77807604980468 46.39644317626953,81.77807604980468 C46.564443176269535,81.77807604980468 46.701443176269535,111.4100760498047 46.701443176269535,147.6280760498047 L46.701443176269535,213.47707604980468 L48.01744317626954,214.7940760498047 L49.33444317626953,216.11007604980466 L126.01744317626952,216.11007604980466 L202.70144317626955,216.11007604980466 L204.10144317626953,214.76807604980468 L205.50244317626954,213.4260760498047 L205.50244317626954,147.7940760498047 L205.50244317626954,82.16307604980469 L206.8424431762695,83.04007604980468 C218.5154431762695,90.6890760498047 221.17244317626955,91.54807604980468 224.17244317626955,88.64407604980468 C225.94244317626953,86.93107604980469 251.06944317626954,46.38407604980469 251.56644317626956,44.43807604980469 C252.56944317626954,40.517076049804686 253.68844317626952,41.39407604980468 225.97644317626953,24.37307604980468 C215.1284431762695,17.71007604980469 205.46544317626956,11.648076049804686 204.5034431762695,10.903076049804689 C198.94544317626952,6.5930760498046865 184.11044317626954,3.1600760498046867 162.05644317626954,1.081076049804686 C153.82544317626954,0.3060760498046875 110.61344317626953,-0.33792395019531085 102.63144317626953,0.19607604980468807 M136.08944317626953,3.385076049804688 C151.34844317626954,4.425076049804687 157.87444317626952,6.495076049804688 156.43444317626953,9.838076049804684 C155.63444317626954,11.693076049804688 126.43144317626954,59.77407604980469 126.10144317626953,59.77807604980468 C125.77444317626953,59.78307604980469 96.57544317626954,11.709076049804686 95.76944317626953,9.838076049804684 C93.69544317626952,5.024076049804691 113.53744317626953,1.848076049804689 136.08944317626953,3.385076049804688 M169.54744317626952,67.04607604980468 L169.54744317626952,73.28907604980469 L175.78944317626954,73.28907604980469 L182.03144317626953,73.28907604980469 L182.03144317626953,76.03507604980469 L182.03144317626953,78.78207604980469 L175.78944317626954,78.78207604980469 L169.54744317626952,78.78207604980469 L169.54744317626952,85.02407604980469 L169.54744317626952,91.2660760498047 L166.80044317626954,91.2660760498047 L164.05444317626953,91.2660760498047 L164.05444317626953,85.02407604980469 L164.05444317626953,78.78207604980469 L157.81244317626954,78.78207604980469 L151.56944317626954,78.78207604980469 L151.56944317626954,76.03507604980469 L151.56944317626954,73.28907604980469 L157.81244317626954,73.28907604980469 L164.05444317626953,73.28907604980469 L164.05444317626953,67.04607604980468 L164.05444317626953,60.80407604980469 L166.80044317626954,60.80407604980469 L169.54744317626952,60.80407604980469 L169.54744317626952,67.04607604980468 " stroke="none" fill="#0a204f" fill-rule="evenodd"/></g></g></svg>