<svg xmlns="http://www.w3.org/2000/svg" xmlns:xlink="http://www.w3.org/1999/xlink" version="1.1" width="340" height="541"><rect id="backgroundrect" width="100%" height="100%" x="0" y="0" fill="none" stroke="none"/><g class="currentLayer" style=""><title>Layer 1</title><g id="svgg" class=""><path id="path0" d="M165.27561917114258,0.487867843627928 C163.86161917114256,0.7068678436279292 160.98661917114256,2.644867843627928 158.88661917114257,4.79486784362793 L155.0696191711426,8.703867843627929 L146.51261917114257,8.703867843627929 C137.05061917114259,8.703867843627929 134.67961917114258,9.94586784362793 134.67961917114258,14.90286784362793 C134.67961917114258,17.078867843627933 133.42161917114257,18.221867843627926 126.59761917114258,22.249867843627932 C101.25361917114259,37.20886784362793 84.22761917114258,64.28886784362793 81.66061917114259,93.72386784362793 L80.95261917114257,101.84286784362793 L76.69161917114258,104.33986784362793 C55.35061917114258,116.84686784362793 62.22361917114257,132.32886784362793 96.18261917114259,148.24286784362792 C138.67961917114258,168.15686784362794 200.97561917114257,168.15686784362794 243.47261917114258,148.24286784362792 C277.43261917114256,132.32886784362793 284.30561917114255,116.84686784362793 262.96361917114257,104.33986784362793 L258.7036191711426,101.84286784362793 L257.99561917114255,93.72386784362793 C255.42761917114257,64.28886784362793 238.40161917114256,37.20886784362793 213.05861917114257,22.249867843627932 C206.0276191711426,18.10086784362793 204.97661917114257,17.121867843627932 204.97661917114257,14.730867843627927 C204.97661917114257,9.98386784362793 202.40661917114258,8.703867843627929 192.8726191711426,8.703867843627929 L184.38961917114258,8.703867843627929 L181.24061917114258,5.116867843627929 C179.28661917114258,2.892867843627929 176.70961917114258,1.208867843627928 174.45461917114258,0.6848678436279307 C170.72761917114258,-0.18113215637206892 169.73461917114258,-0.20213215637206972 165.27561917114258,0.487867843627928 M173.72861917114258,15.187867843627927 C175.06561917114257,17.227867843627926 175.27361917114257,23.071867843627928 175.27361917114257,58.597867843627924 C175.27361917114257,103.19686784362793 175.21961917114257,102.76286784362793 180.7186191711426,102.76286784362793 C186.20761917114257,102.76286784362793 186.1646191711426,103.10186784362793 186.1646191711426,59.62286784362793 L186.1646191711426,19.59486784362793 L189.62961917114256,19.59486784362793 C193.74661917114258,19.59486784362793 193.57061917114257,17.624867843627932 191.6166191711426,41.87186784362793 C189.16261917114258,72.33186784362793 189.59061917114258,76.03086784362793 195.57061917114257,76.03086784362793 C200.86761917114256,76.03086784362793 201.31461917114257,74.39586784362793 203.0936191711426,48.55486784362793 C203.74061917114258,39.16186784362793 204.5816191711426,31.47586784362793 204.9626191711426,31.47586784362793 C205.3436191711426,31.47586784362793 208.74961917114257,33.64886784362793 212.53061917114258,36.30386784362793 C233.46161917114256,51.002867843627925 245.93761917114256,75.05986784362793 246.6526191711426,102.09786784362792 L246.8666191711426,110.18286784362792 L242.5056191711426,112.94286784362794 C217.14561917114258,128.99186784362794 122.51061917114257,128.99186784362794 97.15061917114258,112.94286784362794 L92.78961917114258,110.18286784362792 L93.00261917114258,102.09786784362792 C93.71761917114257,75.05986784362793 106.19461917114259,51.002867843627925 127.12561917114257,36.30386784362793 C130.90661917114258,33.64886784362793 134.31161917114258,31.47586784362793 134.69261917114258,31.47586784362793 C135.0746191711426,31.47586784362793 135.91561917114257,39.16186784362793 136.56161917114258,48.55486784362793 C138.34061917114258,74.39586784362793 138.78861917114259,76.03086784362793 144.08561917114258,76.03086784362793 C150.06461917114257,76.03086784362793 150.49261917114256,72.33186784362793 148.03861917114259,41.87186784362793 C146.08561917114258,17.624867843627932 145.90961917114257,19.59486784362793 150.02561917114258,19.59486784362793 L153.4916191711426,19.59486784362793 L153.4916191711426,59.62286784362793 C153.4916191711426,103.10186784362793 153.44861917114258,102.76286784362793 158.93661917114258,102.76286784362793 C164.4386191711426,102.76286784362793 164.38261917114258,103.22586784362792 164.38261917114258,58.282867843627926 L164.38261917114258,16.913867843627926 L166.8016191711426,14.303867843627927 C169.51061917114257,11.380867843627932 171.39161917114257,11.620867843627927 173.72861917114258,15.187867843627927 M85.42761917114258,119.21086784362794 C111.78961917114259,143.02686784362794 227.9936191711426,142.91186784362793 254.41361917114256,119.04286784362793 L258.5566191711426,115.29986784362794 L261.17261917114257,117.91586784362792 L263.78861917114256,120.53086784362793 L261.36261917114257,123.11586784362794 C244.98961917114258,140.56086784362793 197.3316191711426,153.56486784362792 158.93661917114258,151.06386784362792 C126.25761917114258,148.93486784362793 91.09561917114257,136.75686784362793 78.31861917114257,123.14286784362793 L75.91861917114258,120.58486784362793 L78.24361917114258,118.10986784362794 C81.14461917114258,115.02186784362792 80.71861917114258,114.95686784362792 85.42761917114258,119.21086784362794 M86.54661917114258,175.55886784362792 C83.71461917114257,178.38986784362794 46.491619171142574,186.86286784362792 35.280619171142575,187.22686784362793 C25.36061917114258,187.54986784362794 25.210619171142575,188.04086784362792 27.13861917114258,213.78686784362793 C34.44761917114258,311.36786784362795 31.30861917114258,335.4078678436279 9.457619171142575,349.2078678436279 C-0.9703808288574223,355.79386784362794 0.025619171142579944,345.50286784362794 0.025619171142579944,446.6238678436279 L0.025619171142579944,535.5888678436279 L2.9196191711425783,538.4828678436279 L5.814619171142581,541.3768678436279 L64.25561917114258,541.3768678436279 C146.08361917114257,541.3768678436279 153.99561917114258,540.0728678436279 166.25661917114257,524.561867843628 L169.97161917114258,519.860867843628 L172.2716191711426,523.2168678436279 C183.5816191711426,539.7228678436279 192.9746191711426,541.3768678436279 275.4006191711426,541.3768678436279 L333.84161917114255,541.3768678436279 L336.73561917114256,538.4828678436279 L339.62961917114256,535.5888678436279 L339.62961917114256,446.6238678436279 C339.62961917114256,345.50286784362794 340.6266191711426,355.79386784362794 330.1976191711426,349.2078678436279 C308.3466191711426,335.4078678436279 305.2076191711426,311.36786784362795 312.5176191711426,213.78686784362793 C314.4456191711426,188.04086784362792 314.2946191711426,187.54986784362794 304.3756191711426,187.22686784362793 C293.16361917114256,186.86286784362792 255.9406191711426,178.38986784362794 253.10861917114255,175.55886784362792 C249.78761917114258,172.23686784362792 247.81661917114258,172.37786784362794 233.37061917114255,176.96486784362793 C211.77361917114257,183.82286784362793 207.72161917114258,184.29186784362793 169.82761917114257,184.32786784362793 C131.94161917114258,184.36286784362792 128.22861917114258,183.93286784362792 106.28561917114257,176.96486784362793 C91.83961917114257,172.37786784362794 89.86761917114258,172.23686784362792 86.54661917114258,175.55886784362792 M125.97361917114259,266.6918678436279 L161.41861917114258,338.90186784362794 L161.16061917114257,418.1098678436279 L160.90161917114258,497.31786784362794 L158.65461917114257,503.243867843628 C150.9326191711426,523.609867843628 150.4856191711426,523.7218678436279 75.02561917114258,524.2798678436279 L16.85761917114258,524.7088678436279 L16.85761917114258,502.844867843628 L16.85761917114258,480.98086784362795 L84.49361917114258,480.98086784362795 L152.13061917114257,480.98086784362795 L154.79161917114257,478.2038678436279 C158.88261917114258,473.93286784362795 158.88261917114258,454.36586784362794 154.79161917114257,450.0948678436279 L152.13061917114257,447.31786784362794 L84.49361917114258,447.31786784362794 L16.85761917114258,447.31786784362794 L16.85761917114258,427.0208678436279 L16.85761917114258,406.72386784362794 L84.37761917114258,406.72386784362794 L151.89761917114257,406.72386784362794 L154.67461917114258,404.06286784362794 C158.9736191711426,399.9438678436279 158.9736191711426,379.8398678436279 154.67461917114258,375.72086784362796 L151.89761917114257,373.05986784362796 L84.37761917114258,373.05986784362796 L16.85761917114258,373.05986784362796 L16.884619171142575,368.85186784362793 C16.908619171142576,365.04386784362794 17.27561917114258,364.4198678436279 20.75161917114258,362.2758678436279 C45.88561917114258,346.7798678436279 51.03161917114258,318.43986784362795 45.009619171142575,228.68586784362793 C44.121619171142584,215.44386784362794 43.65661917114258,204.34686784362793 43.97761917114258,204.02586784362794 C44.69661917114257,203.30686784362794 88.26961917114258,193.99386784362792 89.58361917114257,194.27786784362792 C90.10361917114258,194.38986784362794 106.47861917114258,226.97686784362793 125.97361917114259,266.6918678436279 M274.54561917114256,199.17986784362793 C285.8526191711426,201.52986784362793 295.3646191711426,203.71286784362792 295.68261917114256,204.03086784362793 C296.0016191711426,204.34886784362794 295.5346191711426,215.44386784362794 294.6456191711426,228.68586784362793 C288.62461917114257,318.43986784362795 293.7706191711426,346.7798678436279 318.90361917114257,362.2758678436279 C322.3806191711426,364.4198678436279 322.74761917114256,365.04386784362794 322.77161917114256,368.85186784362793 L322.7986191711426,373.05986784362796 L255.2776191711426,373.05986784362796 L187.75761917114258,373.05986784362796 L184.98061917114256,375.72086784362796 C180.6816191711426,379.8398678436279 180.6816191711426,399.9438678436279 184.98061917114256,404.06286784362794 L187.75761917114258,406.72386784362794 L255.2776191711426,406.72386784362794 L322.7986191711426,406.72386784362794 L322.7986191711426,427.0208678436279 L322.7986191711426,447.31786784362794 L255.1616191711426,447.31786784362794 L187.52461917114258,447.31786784362794 L184.86461917114258,450.0948678436279 C182.2956191711426,452.7758678436279 182.20361917114258,453.25986784362794 182.20361917114258,464.14986784362793 C182.20361917114258,475.0398678436279 182.2956191711426,475.5228678436279 184.86461917114258,478.2038678436279 L187.52461917114258,480.98086784362795 L255.1616191711426,480.98086784362795 L322.7986191711426,480.98086784362795 L322.7986191711426,502.844867843628 L322.7986191711426,524.7088678436279 L264.62961917114256,524.2798678436279 C189.16961917114259,523.7218678436279 188.72261917114258,523.609867843628 181.00161917114258,503.243867843628 L178.75461917114256,497.31786784362794 L178.46561917114258,418.27386784362795 L178.17561917114259,339.2298678436279 L196.44761917114258,301.9368678436279 C253.88861917114258,184.69786784362793 249.2416191711426,193.74286784362792 251.71861917114256,194.35086784362792 C252.96561917114258,194.65686784362794 263.23761917114257,196.82986784362794 274.54561917114256,199.17986784362793 M120.17461917114258,198.32486784362794 C144.13661917114257,203.82786784362793 207.26061917114257,202.61586784362794 227.92561917114256,196.25486784362792 C229.12961917114256,195.88486784362792 172.35261917114258,314.4058678436279 169.93561917114258,317.30986784362796 C169.8486191711426,317.4148678436279 156.3436191711426,290.10586784362795 139.92561917114259,256.62286784362794 C120.46961917114257,216.94586784362792 110.65161917114258,195.92386784362793 111.73261917114257,196.25586784362793 C112.64561917114258,196.53686784362793 116.44461917114259,197.46786784362794 120.17461917114258,198.32486784362794 " stroke="none" fill="#0a204f" fill-rule="evenodd"/></g></g></svg>