<svg xmlns="http://www.w3.org/2000/svg" xmlns:xlink="http://www.w3.org/1999/xlink" version="1.1" width="390" height="536"><rect id="backgroundrect" width="100%" height="100%" x="0" y="0" fill="none" stroke="none"/><g class="currentLayer" style=""><title>Layer 1</title><g id="svgg" class=""><path id="path0" d="M120.06589289474488,0.9355296173095695 C118.48189289474487,1.6245296173095696 113.80189289474487,2.516529617309569 77.75389289474488,8.998529617309572 C54.00189289474487,13.269529617309573 53.34489289474487,13.501529617309572 50.304892894744874,18.67252961730957 L48.972892894744874,20.93852961730957 L48.691892894744875,64.59652961730957 C48.42889289474488,105.40152961730956 48.34189289474487,108.79752961730958 47.36189289474488,116.54752961730958 C42.49289289474487,155.04352961730956 28.274892894744873,188.32852961730958 6.654892894744872,211.84652961730956 C4.277892894744873,214.43252961730957 1.8508928947448728,217.42652961730957 1.2628928947448728,218.49952961730958 L0.19289289474487337,220.45052961730957 L0.06789289474487337,372.8765296173096 C-0.07010710525512653,541.0015296173095 -0.3141071052551272,527.6455296173095 2.9668928947448734,531.6265296173095 C3.8178928947448725,532.6585296173096 5.6268928947448735,534.0215296173096 6.986892894744873,534.6545296173095 L9.460892894744873,535.8065296173096 L194.58289289474487,535.8085296173095 C326.0948928947449,535.8105296173096 380.25689289474485,535.6575296173096 381.60989289474486,535.2815296173096 C384.1638928947449,534.5725296173096 388.46089289474486,530.2755296173095 389.1708928947449,527.7215296173096 C390.27289289474487,523.7515296173095 389.8608928947449,221.32952961730956 388.74989289474485,218.88252961730956 C388.23689289474487,217.75152961730956 385.80189289474487,214.57952961730956 383.33889289474484,211.83352961730958 C363.1298928947449,189.29952961730956 349.73689289474487,160.03052961730958 344.07189289474485,126.01752961730958 C341.7068928947449,111.81752961730956 341.42489289474486,105.09452961730958 341.4158928947449,62.64552961730956 C341.40589289474485,20.68552961730957 341.4288928947449,21.092529617309573 338.9038928947449,17.42252961730957 C335.87189289474486,13.015529617309568 339.7338928947449,13.989529617309572 288.13589289474487,4.623529617309572 C279.08889289474484,2.981529617309569 270.7748928947449,1.315529617309572 269.65989289474487,0.9225296173095714 C264.5008928947449,-0.8974703826904289 261.3588928947449,0.109529617309569 252.14389289474485,6.54052961730957 C216.9368928947449,31.110529617309574 174.49189289474486,31.263529617309572 138.58289289474487,6.951529617309571 C128.27889289474487,-0.023470382690430114 124.84289289474486,-1.140470382690431 120.06589289474488,0.9355296173095695 M109.95789289474487,38.62152961730957 C110.01489289474488,105.28852961730956 167.86589289474486,151.85152961730958 223.29289289474488,129.84152961730956 C258.18189289474486,115.98752961730958 282.2838928947449,75.61152961730957 280.2428928947449,34.43752961730957 C279.9408928947449,28.35052961730957 279.97589289474485,27.95352961730957 280.78789289474486,28.199529617309572 C281.5408928947449,28.42652961730957 290.7148928947449,30.129529617309572 298.24189289474486,31.43852961730957 C301.9568928947449,32.08552961730957 311.1018928947449,33.79752961730957 313.92689289474487,34.37552961730957 L316.4408928947449,34.89052961730957 L316.6708928947449,71.08552961730958 C316.91289289474486,109.19352961730957 317.1088928947449,113.15552961730958 319.49489289474485,128.25552961730958 C325.32189289474485,165.12352961730957 340.8568928947449,199.97952961730957 362.4698928947449,224.67752961730957 L365.3148928947449,227.92852961730958 L365.3148928947449,369.6775296173096 L365.3148928947449,511.4265296173096 L195.07089289474487,511.4265296173096 L24.826892894744873,511.4265296173096 L24.826892894744873,369.6695296173096 L24.826892894744873,227.91252961730956 L29.13889289474487,222.71852961730957 C38.47689289474487,211.47052961730958 47.21489289474487,197.91352961730956 52.608892894744876,186.30452961730958 C59.169892894744876,172.18352961730957 62.91589289474487,161.85852961730956 66.31189289474487,148.52752961730957 C72.27289289474487,125.13052961730958 72.75889289474487,119.67352961730958 72.99689289474487,73.51452961730958 L73.19589289474487,34.87052961730957 L74.98689289474487,34.53352961730957 C75.97189289474487,34.34752961730957 84.13189289474488,32.83152961730957 93.11989289474488,31.16452961730957 C102.10689289474487,29.497529617309567 109.57089289474487,28.10652961730957 109.70489289474487,28.07252961730957 C109.83889289474487,28.03852961730957 109.95289289474488,32.78552961730957 109.95789289474487,38.62152961730957 M255.4258928947449,42.10552961730957 C254.05689289474486,84.11152961730957 221.35889289474488,116.22352961730957 186.28989289474487,110.00252961730956 C157.18589289474488,104.83852961730958 134.60589289474487,74.34152961730958 134.37589289474488,39.88252961730957 C134.32889289474488,32.95652961730957 133.78089289474488,33.11952961730957 142.48989289474488,37.46052961730957 C177.59689289474488,54.95952961730957 223.23789289474487,53.71852961730957 253.36289289474485,34.44452961730957 C255.6038928947449,33.01152961730957 255.70889289474485,33.40252961730957 255.4258928947449,42.10552961730957 M103.48289289474488,225.21652961730956 L97.50389289474488,231.18252961730957 L97.50689289474488,243.49952961730958 L97.50989289474488,255.81652961730958 L109.70489289474487,255.81652961730958 L121.89989289474487,255.81652961730958 L121.89989289474487,249.71852961730957 L121.89989289474487,243.6215296173096 L140.1928928947449,243.6215296173096 L158.48489289474486,243.6215296173096 L158.48489289474486,261.84652961730956 L158.48489289474486,280.07252961730956 L128.00389289474487,298.31052961730956 L97.52289289474487,316.5475296173096 L97.51689289474487,341.06052961730956 L97.50989289474488,365.57252961730956 L140.20089289474487,365.57252961730956 L182.89189289474487,365.57252961730956 L182.76189289474488,353.25552961730955 L182.63189289474488,340.9385296173096 L152.26589289474487,340.81252961730956 L121.89989289474487,340.6865296173096 L121.89989289474487,334.86052961730957 L121.89989289474487,329.03352961730957 L152.35989289474486,310.83952961730955 L182.81889289474486,292.6455296173096 L182.84689289474488,261.90652961730956 L182.87589289474488,231.16752961730958 L176.89289289474488,225.19952961730957 L170.90989289474487,219.23052961730957 L140.18589289474488,219.24052961730956 L109.46089289474487,219.25052961730958 L103.48289289474488,225.21652961730956 M213.23389289474488,225.21352961730958 L207.26589289474487,231.19652961730958 L207.26589289474487,243.50652961730958 L207.26589289474487,255.81652961730958 L219.46089289474486,255.81652961730958 L231.65589289474488,255.81652961730958 L231.65589289474488,249.71852961730957 L231.65589289474488,243.6215296173096 L249.7048928947449,243.6215296173096 L267.75389289474487,243.6215296173096 L267.75389289474487,261.91352961730956 L267.75389289474487,280.20652961730957 L255.8028928947449,280.20652961730957 L243.85089289474487,280.20652961730957 L243.85089289474487,292.40152961730956 L243.85089289474487,304.59652961730956 L255.8028928947449,304.59652961730956 L267.75389289474487,304.59652961730956 L267.75389289474487,322.6455296173096 L267.75389289474487,340.69452961730957 L249.71989289474487,340.69452961730957 L231.68589289474488,340.69452961730957 L231.54889289474488,334.71852961730957 L231.41189289474488,328.74352961730955 L219.46089289474486,328.74352961730955 L207.50989289474487,328.74352961730955 L207.37989289474487,341.19952961730957 L207.24989289474487,353.6555296173096 L213.27689289474486,359.61352961730955 L219.30389289474488,365.57252961730956 L249.75489289474487,365.57252961730956 L280.2068928947449,365.57252961730956 L286.4188928947449,359.34652961730956 L292.63189289474485,353.1195296173096 L292.63189289474485,328.72852961730956 L292.63189289474485,304.33752961730954 L286.77789289474487,298.4995296173096 C283.5588928947449,295.28852961730956 280.9238928947449,292.51252961730955 280.9238928947449,292.33152961730957 C280.9238928947449,292.14952961730955 283.5588928947449,289.37252961730957 286.77789289474487,286.15952961730954 L292.63189289474485,280.31752961730956 L292.63189289474485,255.98652961730954 L292.63189289474485,231.65552961730958 L286.4048928947449,225.44352961730957 L280.1788928947449,219.23052961730957 L249.69089289474488,219.23052961730957 L219.20289289474488,219.23052961730957 L213.23389289474488,225.21352961730958 " stroke="none" fill="#0a204f" fill-rule="evenodd"/></g></g></svg>